<svg id="btn_coinone" xmlns="http://www.w3.org/2000/svg" width="120" height="42" viewBox="0 0 120 42">
  <g id="사각형_49" data-name="사각형 49" fill="none" stroke="#232323" stroke-width="1">
    <rect width="120" height="42" rx="4" stroke="none"/>
    <rect x="0.5" y="0.5" width="119" height="41" rx="3.5" fill="none"/>
  </g>
  <path id="패스_29494" data-name="패스 29494" d="M-60.208.1A5.446,5.446,0,0,0-56.1-1.552l-.752-.752A4.393,4.393,0,0,1-60.16-.96,4.577,4.577,0,0,1-64.9-5.6a4.577,4.577,0,0,1,4.736-4.64,4.439,4.439,0,0,1,3.312,1.328l.752-.752a5.423,5.423,0,0,0-4.1-1.632,5.623,5.623,0,0,0-5.872,5.7A5.619,5.619,0,0,0-60.208.1ZM-50.736.08a4.14,4.14,0,0,0,4.272-4.288A4.127,4.127,0,0,0-50.736-8.48a4.14,4.14,0,0,0-4.288,4.272A4.153,4.153,0,0,0-50.736.08Zm0-1.008a3.081,3.081,0,0,1-3.136-3.28,3.081,3.081,0,0,1,3.136-3.28,3.069,3.069,0,0,1,3.12,3.28A3.069,3.069,0,0,1-50.736-.928Zm7.168-9.328a.816.816,0,0,0,.832-.832.807.807,0,0,0-.832-.784.82.82,0,0,0-.832.8A.823.823,0,0,0-43.568-10.256ZM-44.144,0h1.136V-8.416h-1.136Zm8.592-8.48a3.537,3.537,0,0,0-3.2,1.616V-8.416H-39.84V0H-38.7V-4.416a2.759,2.759,0,0,1,2.944-3.04c1.6,0,2.528.912,2.528,2.688V0H-32.1V-4.88C-32.1-7.3-33.5-8.48-35.552-8.48ZM-25.536.08a4.14,4.14,0,0,0,4.272-4.288A4.127,4.127,0,0,0-25.536-8.48a4.14,4.14,0,0,0-4.288,4.272A4.153,4.153,0,0,0-25.536.08Zm0-1.008a3.081,3.081,0,0,1-3.136-3.28,3.081,3.081,0,0,1,3.136-3.28,3.069,3.069,0,0,1,3.12,3.28A3.069,3.069,0,0,1-25.536-.928Zm10.88-7.552a3.537,3.537,0,0,0-3.2,1.616V-8.416h-1.088V0h1.136V-4.416a2.759,2.759,0,0,1,2.944-3.04c1.6,0,2.528.912,2.528,2.688V0H-11.2V-4.88C-11.2-7.3-12.608-8.48-14.656-8.48ZM-.736-4.208A4.01,4.01,0,0,0-4.816-8.48,4.053,4.053,0,0,0-8.928-4.208,4.168,4.168,0,0,0-4.512.08,4.143,4.143,0,0,0-1.264-1.3l-.64-.736A3.317,3.317,0,0,1-4.48-.928,3.115,3.115,0,0,1-7.792-3.856h7.04C-.752-3.984-.736-4.112-.736-4.208Zm-4.08-3.3A2.927,2.927,0,0,1-1.824-4.7H-7.792A2.923,2.923,0,0,1-4.816-7.5Z" transform="translate(93.064 26.872)" fill="#232323"/>
</svg>
