<svg id="btn_en" xmlns="http://www.w3.org/2000/svg" xmlns:xlink="http://www.w3.org/1999/xlink" width="52" height="42" viewBox="0 0 52 42">
  <defs>
    <clipPath id="clip-path">
      <rect id="사각형_682" data-name="사각형 682" width="24" height="24" fill="#232323"/>
    </clipPath>
  </defs>
  <rect id="사각형_102" data-name="사각형 102" width="52" height="42" fill="none"/>
  <g id="그룹_847" data-name="그룹 847" transform="translate(28 9)">
    <g id="그룹_849" data-name="그룹 849" clip-path="url(#clip-path)">
      <path id="패스_9255" data-name="패스 9255" d="M12,0A12,12,0,1,0,24,12,12.014,12.014,0,0,0,12,0m6.008,11.538H12.462V7.392a19.223,19.223,0,0,0,4.815-.7,18.556,18.556,0,0,1,.732,4.848m-12.017.923h5.547v4.147a19.217,19.217,0,0,0-4.815.7,18.55,18.55,0,0,1-.732-4.848M6.724,6.69a19.217,19.217,0,0,0,4.815.7v4.146H5.991A18.556,18.556,0,0,1,6.724,6.69m5.738,5.771h5.547a18.55,18.55,0,0,1-.732,4.848,19.224,19.224,0,0,0-4.815-.7Zm10.6-.923H18.929a19.084,19.084,0,0,0-.795-5.12,13.22,13.22,0,0,0,2.6-1.212,11.032,11.032,0,0,1,2.321,6.332m-2.9-7.015A12.318,12.318,0,0,1,17.85,5.564a10.666,10.666,0,0,0-2.587-4.15,11.073,11.073,0,0,1,4.895,3.108M16.991,5.83a18.752,18.752,0,0,1-4.53.639V.959c1.885.265,3.529,2.136,4.53,4.871M11.538.959v5.51a18.753,18.753,0,0,1-4.53-.639c1-2.734,2.645-4.606,4.53-4.871m-2.8.456A10.655,10.655,0,0,0,6.15,5.564,12.3,12.3,0,0,1,3.842,4.523,11.071,11.071,0,0,1,8.736,1.415M3.263,5.207a13.232,13.232,0,0,0,2.6,1.212,19.085,19.085,0,0,0-.794,5.12H.942A11.032,11.032,0,0,1,3.263,5.207m1.808,7.255a19.088,19.088,0,0,0,.794,5.12,13.232,13.232,0,0,0-2.6,1.212A11.034,11.034,0,0,1,.942,12.462Zm-1.23,7.016A12.3,12.3,0,0,1,6.15,18.436a10.655,10.655,0,0,0,2.587,4.15,11.075,11.075,0,0,1-4.895-3.108M7.008,18.17a18.753,18.753,0,0,1,4.53-.639v5.51c-1.885-.265-3.53-2.136-4.53-4.871m5.453,4.871v-5.51a18.752,18.752,0,0,1,4.53.639c-1,2.735-2.645,4.606-4.53,4.871m2.8-.456a10.666,10.666,0,0,0,2.587-4.15,12.318,12.318,0,0,1,2.308,1.041,11.077,11.077,0,0,1-4.895,3.108m5.473-3.792a13.22,13.22,0,0,0-2.6-1.212,19.088,19.088,0,0,0,.795-5.12h4.129a11.034,11.034,0,0,1-2.321,6.332" fill="#232323"/>
    </g>
  </g>
  <path id="패스_16397" data-name="패스 16397" d="M3-1.056V-5.2H8.778v-1H3v-3.971H9.48V-11.2H1.824V-.036H9.719V-1.056ZM20.66-11.2v9.059L13.467-11.2h-.973V-.036h1.18V-9.095L20.851-.036h.973V-11.2Z" transform="translate(-1.824 26.2)" fill="#232323"/>
</svg>
