<svg id="btn_cashierest" xmlns="http://www.w3.org/2000/svg" width="120" height="42" viewBox="0 0 120 42">
  <path id="패스_116" data-name="패스 116" d="M-76.944.1a5.446,5.446,0,0,0,4.112-1.648l-.752-.752A4.393,4.393,0,0,1-76.9-.96,4.577,4.577,0,0,1-81.632-5.6,4.577,4.577,0,0,1-76.9-10.24a4.439,4.439,0,0,1,3.312,1.328l.752-.752a5.423,5.423,0,0,0-4.1-1.632A5.623,5.623,0,0,0-82.8-5.6,5.619,5.619,0,0,0-76.944.1Zm9.216-8.576a5.344,5.344,0,0,0-3.424,1.136l.512.848a4.287,4.287,0,0,1,2.8-.992c1.568,0,2.384.784,2.384,2.224v.512h-2.672c-2.416,0-3.248,1.088-3.248,2.384C-71.376-.912-70.208.08-68.3.08a3.16,3.16,0,0,0,2.9-1.392V0h1.088V-5.216C-64.32-7.392-65.552-8.48-67.728-8.48Zm-.4,7.664c-1.344,0-2.128-.608-2.128-1.584,0-.864.528-1.5,2.16-1.5h2.64v1.376A2.693,2.693,0,0,1-68.128-.816Zm9.152.9c2.192,0,3.472-.944,3.472-2.4,0-3.232-5.456-1.52-5.456-3.792,0-.8.672-1.392,2.192-1.392a4.314,4.314,0,0,1,2.48.72l.5-.912a5.7,5.7,0,0,0-2.976-.784c-2.144,0-3.328,1.024-3.328,2.4,0,3.328,5.456,1.6,5.456,3.792,0,.832-.656,1.376-2.256,1.376a5.083,5.083,0,0,1-2.992-.944l-.512.9A5.622,5.622,0,0,0-58.976.08Zm9.856-8.56a3.557,3.557,0,0,0-3.152,1.536v-4.928h-1.136V0h1.136V-4.416a2.759,2.759,0,0,1,2.944-3.04c1.6,0,2.528.912,2.528,2.688V0h1.136V-4.88C-45.664-7.3-47.072-8.48-49.12-8.48ZM-42-10.256a.816.816,0,0,0,.832-.832A.807.807,0,0,0-42-11.872a.82.82,0,0,0-.832.8A.823.823,0,0,0-42-10.256ZM-42.576,0h1.136V-8.416h-1.136Zm11.648-4.208a4.01,4.01,0,0,0-4.08-4.272A4.053,4.053,0,0,0-39.12-4.208,4.168,4.168,0,0,0-34.7.08,4.143,4.143,0,0,0-31.456-1.3l-.64-.736a3.317,3.317,0,0,1-2.576,1.1,3.115,3.115,0,0,1-3.312-2.928h7.04C-30.944-3.984-30.928-4.112-30.928-4.208Zm-4.08-3.3a2.927,2.927,0,0,1,2.992,2.8h-5.968A2.923,2.923,0,0,1-35.008-7.5Zm7.488.736V-8.416h-1.088V0h1.136V-4.288c0-1.984,1.072-3.1,2.832-3.1.08,0,.176.016.272.016v-1.1A3.174,3.174,0,0,0-27.52-6.768Zm12.464,2.56a4.01,4.01,0,0,0-4.08-4.272,4.053,4.053,0,0,0-4.112,4.272A4.168,4.168,0,0,0-18.832.08,4.143,4.143,0,0,0-15.584-1.3l-.64-.736A3.317,3.317,0,0,1-18.8-.928a3.115,3.115,0,0,1-3.312-2.928h7.04C-15.072-3.984-15.056-4.112-15.056-4.208Zm-4.08-3.3a2.927,2.927,0,0,1,2.992,2.8h-5.968A2.923,2.923,0,0,1-19.136-7.5ZM-10.48.08c2.192,0,3.472-.944,3.472-2.4,0-3.232-5.456-1.52-5.456-3.792,0-.8.672-1.392,2.192-1.392a4.314,4.314,0,0,1,2.48.72l.5-.912a5.7,5.7,0,0,0-2.976-.784c-2.144,0-3.328,1.024-3.328,2.4,0,3.328,5.456,1.6,5.456,3.792,0,.832-.656,1.376-2.256,1.376a5.083,5.083,0,0,1-2.992-.944l-.512.9A5.622,5.622,0,0,0-10.48.08Zm9.6-1.408A1.88,1.88,0,0,1-2.128-.9,1.348,1.348,0,0,1-3.584-2.432V-7.456h2.56v-.96h-2.56v-1.84H-4.72v1.84h-1.5v.96h1.5v5.088A2.229,2.229,0,0,0-2.256.08,2.705,2.705,0,0,0-.48-.512Z" transform="translate(101.8 26.872)" fill="#232323"/>
  <g id="사각형_50" data-name="사각형 50" fill="none" stroke="#232323" stroke-width="1">
    <rect width="120" height="42" rx="4" stroke="none"/>
    <rect x="0.5" y="0.5" width="119" height="41" rx="3.5" fill="none"/>
  </g>
</svg>
