<svg id="btn_language" xmlns="http://www.w3.org/2000/svg" xmlns:xlink="http://www.w3.org/1999/xlink" width="76" height="42" viewBox="0 0 76 42">
  <defs>
    <clipPath id="clip-path">
      <rect id="사각형_682" data-name="사각형 682" width="36" height="36" fill="#232323"/>
    </clipPath>
  </defs>
  <rect id="사각형_102" data-name="사각형 102" width="76" height="42" fill="none"/>
  <g id="그룹_847" data-name="그룹 847" transform="translate(40 3)">
    <g id="그룹_849" data-name="그룹 849" clip-path="url(#clip-path)">
      <path id="패스_9255" data-name="패스 9255" d="M18,0A18,18,0,1,0,36,18,18.02,18.02,0,0,0,18,0m9.012,17.308h-8.32v-6.22a28.835,28.835,0,0,0,7.222-1.052,27.834,27.834,0,0,1,1.1,7.272M8.987,18.692h8.321v6.22a28.826,28.826,0,0,0-7.222,1.052,27.824,27.824,0,0,1-1.1-7.272m1.1-8.657a28.826,28.826,0,0,0,7.222,1.052v6.22H8.987a27.833,27.833,0,0,1,1.1-7.272m8.607,8.657h8.32a27.825,27.825,0,0,1-1.1,7.272,28.836,28.836,0,0,0-7.222-1.052Zm15.894-1.385H28.393A28.627,28.627,0,0,0,27.2,9.628,19.829,19.829,0,0,0,31.1,7.81a16.548,16.548,0,0,1,3.482,9.5M30.237,6.785a18.477,18.477,0,0,1-3.462,1.562A16,16,0,0,0,22.9,2.122a16.61,16.61,0,0,1,7.342,4.663m-4.751,1.96a28.128,28.128,0,0,1-6.794.959V1.439c2.827.4,5.294,3.2,6.794,7.306M17.308,1.439V9.7a28.129,28.129,0,0,1-6.8-.959c1.5-4.1,3.967-6.909,6.8-7.306m-4.2.683a15.983,15.983,0,0,0-3.88,6.225A18.457,18.457,0,0,1,5.763,6.785,16.606,16.606,0,0,1,13.1,2.122M4.895,7.81A19.848,19.848,0,0,0,8.8,9.628a28.627,28.627,0,0,0-1.191,7.68H1.413a16.548,16.548,0,0,1,3.482-9.5M7.607,18.692A28.632,28.632,0,0,0,8.8,26.373a19.848,19.848,0,0,0-3.9,1.818,16.551,16.551,0,0,1-3.482-9.5ZM5.763,29.216a18.457,18.457,0,0,1,3.462-1.562,15.983,15.983,0,0,0,3.88,6.225,16.612,16.612,0,0,1-7.342-4.663m4.75-1.961a28.129,28.129,0,0,1,6.8-.959v8.265c-2.828-.4-5.295-3.2-6.8-7.307m8.18,7.307V26.3a28.128,28.128,0,0,1,6.794.959c-1.5,4.1-3.967,6.909-6.794,7.307m4.2-.683a16,16,0,0,0,3.88-6.225,18.477,18.477,0,0,1,3.462,1.562A16.616,16.616,0,0,1,22.9,33.879M31.1,28.191a19.829,19.829,0,0,0-3.9-1.818,28.632,28.632,0,0,0,1.192-7.68h6.193a16.55,16.55,0,0,1-3.482,9.5" fill="#232323"/>
    </g>
  </g>
  <path id="패스_16397" data-name="패스 16397" d="M3.712,5.03V-1.605H12.95V-3.213H3.712V-9.567h10.36V-11.2H1.824V6.663H14.456V5.03ZM31.961-11.2V3.294L20.452-11.2H18.9V6.663h1.888V-7.832L32.267,6.663h1.557V-11.2Z" transform="translate(-1.824 23.2)" fill="#232323"/>
</svg>
