<svg id="btn_language" xmlns="http://www.w3.org/2000/svg" xmlns:xlink="http://www.w3.org/1999/xlink" width="42" height="42" viewBox="0 0 42 42">
  <defs>
    <clipPath id="clip-path">
      <rect id="사각형_682" data-name="사각형 682" width="26" height="26" fill="#232323"/>
    </clipPath>
  </defs>
  <rect id="사각형_102" data-name="사각형 102" width="42" height="42" rx="4" fill="none"/>
  <g id="그룹_847" data-name="그룹 847" transform="translate(8 8)">
    <g id="그룹_849" data-name="그룹 849" clip-path="url(#clip-path)">
      <path id="패스_9255" data-name="패스 9255" d="M13,0A13,13,0,1,0,26,13,13.015,13.015,0,0,0,13,0m6.509,12.5H13.5V8.008a20.825,20.825,0,0,0,5.216-.76,20.1,20.1,0,0,1,.793,5.252M6.49,13.5H12.5v4.493a20.819,20.819,0,0,0-5.216.759A20.1,20.1,0,0,1,6.49,13.5m.793-6.252a20.819,20.819,0,0,0,5.216.76V12.5H6.49a20.1,20.1,0,0,1,.793-5.252M13.5,13.5h6.009a20.1,20.1,0,0,1-.793,5.252,20.826,20.826,0,0,0-5.216-.759Zm11.479-1H20.506a20.675,20.675,0,0,0-.861-5.547,14.321,14.321,0,0,0,2.819-1.313A11.952,11.952,0,0,1,24.979,12.5M21.838,4.9a13.344,13.344,0,0,1-2.5,1.128,11.555,11.555,0,0,0-2.8-4.5,12,12,0,0,1,5.3,3.368M18.407,6.315a20.315,20.315,0,0,1-4.907.693V1.039c2.042.287,3.824,2.314,4.907,5.276M12.5,1.039V7.008a20.316,20.316,0,0,1-4.908-.693C8.676,3.353,10.458,1.326,12.5,1.039m-3.035.493a11.543,11.543,0,0,0-2.8,4.5A13.33,13.33,0,0,1,4.162,4.9a11.993,11.993,0,0,1,5.3-3.368M3.535,5.641a14.335,14.335,0,0,0,2.82,1.313A20.675,20.675,0,0,0,5.494,12.5H1.02A11.952,11.952,0,0,1,3.535,5.641M5.494,13.5a20.679,20.679,0,0,0,.861,5.547,14.335,14.335,0,0,0-2.82,1.313A11.953,11.953,0,0,1,1.02,13.5ZM4.162,21.1a13.33,13.33,0,0,1,2.5-1.128,11.543,11.543,0,0,0,2.8,4.5,12,12,0,0,1-5.3-3.368m3.431-1.416a20.316,20.316,0,0,1,4.908-.692v5.969c-2.042-.287-3.824-2.314-4.908-5.277M13.5,24.962V18.992a20.315,20.315,0,0,1,4.907.692c-1.083,2.963-2.865,4.99-4.907,5.277m3.036-.493a11.555,11.555,0,0,0,2.8-4.5,13.345,13.345,0,0,1,2.5,1.128,12,12,0,0,1-5.3,3.368m5.929-4.108a14.321,14.321,0,0,0-2.819-1.313,20.679,20.679,0,0,0,.861-5.547h4.473a11.953,11.953,0,0,1-2.514,6.86" fill="#232323"/>
    </g>
  </g>
</svg>
