<svg id="btn_bittrex" xmlns="http://www.w3.org/2000/svg" width="120" height="42" viewBox="0 0 120 42">
  <g id="사각형_49" data-name="사각형 49" fill="none" stroke="#232323" stroke-width="1">
    <rect width="120" height="42" rx="4" stroke="none"/>
    <rect x="0.5" y="0.5" width="119" height="41" rx="3.5" fill="none"/>
  </g>
  <path id="패스_115" data-name="패스 115" d="M-59.168-5.776A2.6,2.6,0,0,0-57.456-8.32c0-1.824-1.44-2.88-3.936-2.88h-4.832V0h5.152c2.8,0,4.208-1.088,4.208-2.992A2.674,2.674,0,0,0-59.168-5.776Zm-2.3-4.448c1.792,0,2.832.688,2.832,2.032S-59.68-6.16-61.472-6.16H-65.04v-4.064Zm.384,9.248H-65.04V-5.184h3.952c1.968,0,3.04.64,3.04,2.1C-58.048-1.616-59.12-.976-61.088-.976ZM-54.16,0h1.184V-11.2H-54.16Zm7.008,0h1.184V-10.176h3.936V-11.2h-9.056v1.024h3.936Zm9.344,0h1.184V-10.176h3.936V-11.2h-9.056v1.024h3.936Zm15.952,0-2.736-3.84a3.472,3.472,0,0,0,2.56-3.52c0-2.4-1.728-3.84-4.576-3.84H-30.8V0h1.184V-3.552h3.008a7.973,7.973,0,0,0,.9-.048l2.56,3.6ZM-26.64-4.56h-2.976v-5.616h2.976c2.24,0,3.424,1.024,3.424,2.816C-23.216-5.6-24.4-4.56-26.64-4.56Zm8.592,3.536v-4.16h5.792V-6.192h-5.792v-3.984h6.5V-11.2h-7.68V0h7.92V-1.024ZM-.272,0-4.544-5.792-.576-11.2h-1.28l-3.36,4.576L-8.592-11.2h-1.36l3.984,5.44L-10.224,0h1.36l3.6-4.928L-1.648,0Z" transform="translate(93.224 26.2)" fill="#232323"/>
</svg>
