<svg id="icon_sns_twitter" xmlns="http://www.w3.org/2000/svg" width="64" height="64" viewBox="0 0 64 64">
  <circle id="타원_141" data-name="타원 141" cx="32" cy="32" r="32" fill="#ff9a3e" opacity="0.2"/>
  <g id="icon_sns_twitter-2" data-name="icon_sns_twitter" transform="translate(19.5 21.94)">
    <path id="패스_33" data-name="패스 33" d="M8.512,24.419A15.67,15.67,0,0,0,24.3,8.635V7.908A14.935,14.935,0,0,0,27.1,5a11.308,11.308,0,0,1-3.219.831,5.552,5.552,0,0,0,2.388-3.115,10.392,10.392,0,0,1-3.531,1.35A5.829,5.829,0,0,0,18.688,2.3a5.54,5.54,0,0,0-5.5,5.5,5.056,5.056,0,0,0,.1,1.246A15.43,15.43,0,0,1,1.865,3.235a7.994,7.994,0,0,0-.727,3.012,5.19,5.19,0,0,0,2.492,4.569,5,5,0,0,1-2.492-.727v.1a5.463,5.463,0,0,0,4.465,5.4A6.129,6.129,0,0,1,4.15,15.8a3.533,3.533,0,0,1-1.038-.1A5.486,5.486,0,0,0,8.3,19.538,11.19,11.19,0,0,1,1.45,21.927a5.921,5.921,0,0,1-1.35-.1,14.668,14.668,0,0,0,8.412,2.6" transform="translate(-0.1 -2.3)" fill="#ff9a3e"/>
  </g>
</svg>
