<svg id="icon_linkedin" xmlns="http://www.w3.org/2000/svg" width="30" height="30" viewBox="0 0 30 30">
  <rect id="사각형_42" data-name="사각형 42" width="30" height="30" fill="none"/>
  <g id="LinkedIn" transform="translate(-4 -3.999)">
    <path id="패스_93" data-name="패스 93" d="M21.06,18.59Z" transform="translate(-1.076 -0.899)" fill="#0a66c2"/>
    <path id="패스_94" data-name="패스 94" d="M21.06,18.59Z" transform="translate(-1.076 -0.899)" fill="#0a66c2"/>
    <path id="패스_95" data-name="패스 95" d="M21,18.63Z" transform="translate(-1.071 -0.902)" fill="#0a66c2"/>
    <path id="패스_96" data-name="패스 96" d="M30.078,6H7.922A1.857,1.857,0,0,0,6,7.857V30.143A1.857,1.857,0,0,0,7.922,32H30.078A1.857,1.857,0,0,0,32,30.143V7.857A1.857,1.857,0,0,0,30.078,6ZM13.884,27.766H9.956V16.019h3.928ZM11.915,14.422h0a2.024,2.024,0,0,1-2.2-2.024,2.052,2.052,0,0,1,2.229-2.034,2.034,2.034,0,1,1,0,4.058ZM28.044,27.766H24.116V21.479c0-1.579-.566-2.646-1.987-2.646a2.145,2.145,0,0,0-2.015,1.421,2.711,2.711,0,0,0-.13.929v6.556H16.056s.046-10.641,0-11.746h3.928v1.671a3.891,3.891,0,0,1,3.538-1.941c2.581,0,4.522,1.681,4.522,5.284Z" transform="translate(0)" fill="#0a66c2"/>
    <path id="패스_97" data-name="패스 97" d="M21.06,18.59Z" transform="translate(-1.076 -0.899)" fill="#0a66c2"/>
    <path id="패스_98" data-name="패스 98" d="M21.06,18.59Z" transform="translate(-1.076 -0.899)" fill="#0a66c2"/>
    <path id="패스_99" data-name="패스 99" d="M21.06,18.59Z" transform="translate(-1.076 -0.899)" fill="#0a66c2"/>
    <path id="패스_100" data-name="패스 100" d="M21.06,18.59Z" transform="translate(-1.076 -0.899)" fill="#0a66c2"/>
  </g>
</svg>
