<svg id="icon_3" xmlns="http://www.w3.org/2000/svg" width="30" height="30" viewBox="0 0 30 30">
  <rect id="사각형_6" data-name="사각형 6" width="30" height="30" fill="none"/>
  <path id="ico_arr_next" d="M24.375,3.25A1.625,1.625,0,0,0,22.75,1.625H3.25A1.625,1.625,0,0,0,1.625,3.25v19.5A1.625,1.625,0,0,0,3.25,24.375h19.5a1.625,1.625,0,0,0,1.625-1.625ZM0,3.25A3.25,3.25,0,0,1,3.25,0h19.5A3.25,3.25,0,0,1,26,3.25v19.5A3.25,3.25,0,0,1,22.75,26H3.25A3.25,3.25,0,0,1,0,22.75Z" transform="translate(2 2)" fill="#af1921" fill-rule="evenodd"/>
  <path id="패스_36" data-name="패스 36" d="M5.856-6.64,8.384-9.52V-11.2H.544v2.08H5.312l-2.3,2.608V-4.8H4.192c1.472,0,2.1.528,2.1,1.376,0,.912-.8,1.44-2.1,1.44a5.439,5.439,0,0,1-3.2-1.008L-.016-1.008A7.7,7.7,0,0,0,4.256.192C7.44.192,8.9-1.536,8.9-3.424A3.182,3.182,0,0,0,5.856-6.64Z" transform="translate(10.56 20.504)" fill="#af1921"/>
</svg>
