<svg id="icon_sns_kakaotalk" xmlns="http://www.w3.org/2000/svg" width="64" height="64" viewBox="0 0 64 64">
  <circle id="타원_140" data-name="타원 140" cx="32" cy="32" r="32" fill="#ff9a3e" opacity="0.2"/>
  <g id="icon_sns_kakaotalk-2" data-name="icon_sns_kakaotalk" transform="translate(18.5 19.637)">
    <path id="패스_31" data-name="패스 31" d="M10.435,9.8,9.5,12.4h1.869l-.935-2.6Z" transform="translate(0.365 -0.765)" fill="#ff9a3e"/>
    <path id="패스_32" data-name="패스 32" d="M13.5,1.1C6.023,1.1,0,5.877,0,11.692c0,3.842,2.6,7.165,6.438,9.035C6.127,21.765,5.4,24.569,5.3,25.088c-.208.831.208.831.519.623.208-.1,3.738-2.492,5.192-3.531a20.166,20.166,0,0,0,2.492.208c7.477,0,13.5-4.777,13.5-10.7C27,5.877,20.977,1.1,13.5,1.1ZM6.854,14.7a.54.54,0,0,1-.208.415.787.787,0,0,1-.415.208H6.023a.54.54,0,0,1-.415-.208A.787.787,0,0,1,5.4,14.7V9.927H4.154A.694.694,0,0,1,3.427,9.3a.6.6,0,0,1,.623-.623H8A.623.623,0,0,1,8,9.927H6.854Zm6.438.623a.706.706,0,0,1-.831-.415l-.312-.935H9.45l-.312.935a.706.706,0,0,1-.831.415.706.706,0,0,1-.415-.831L9.865,9.3V9.2a1,1,0,0,1,.935-.727.973.973,0,0,1,.935.519h0l1.973,5.4A.729.729,0,0,1,13.292,15.327Zm4.258-.1h-2.7a.67.67,0,0,1-.623-.623V9.2a.727.727,0,1,1,1.454,0v4.881H17.55a.67.67,0,0,1,.623.623A.582.582,0,0,1,17.55,15.223Zm5.712,0a.657.657,0,0,1-.935-.1l-1.973-2.492-.415.415V14.7a.727.727,0,0,1-1.454,0V9.2a.727.727,0,0,1,1.454,0v1.869l2.285-2.285a.775.775,0,0,1,.935,0,.775.775,0,0,1,0,.935l-1.869,1.869,2.077,2.7A.585.585,0,0,1,23.262,15.223Z" transform="translate(0 -1.1)" fill="#ff9a3e"/>
  </g>
</svg>
