<svg id="icon_2" xmlns="http://www.w3.org/2000/svg" width="30" height="30" viewBox="0 0 30 30">
  <rect id="사각형_6" data-name="사각형 6" width="30" height="30" fill="none"/>
  <path id="ico_arr_next" d="M24.375,3.25A1.625,1.625,0,0,0,22.75,1.625H3.25A1.625,1.625,0,0,0,1.625,3.25v19.5A1.625,1.625,0,0,0,3.25,24.375h19.5a1.625,1.625,0,0,0,1.625-1.625ZM0,3.25A3.25,3.25,0,0,1,3.25,0h19.5A3.25,3.25,0,0,1,26,3.25v19.5A3.25,3.25,0,0,1,22.75,26H3.25A3.25,3.25,0,0,1,0,22.75Z" transform="translate(2 2)" fill="#af1921" fill-rule="evenodd"/>
  <path id="패스_35" data-name="패스 35" d="M4.176-2.112,6.752-4.544C8.32-6,8.624-6.992,8.624-8.08c0-2.032-1.664-3.312-4.16-3.312A5.2,5.2,0,0,0,.016-9.312L1.9-8.1a2.739,2.739,0,0,1,2.32-1.12c1.184,0,1.792.512,1.792,1.392,0,.544-.176,1.12-1.168,2.064L.528-1.68V0H8.992V-2.112Z" transform="translate(10.496 20.696)" fill="#af1921"/>
</svg>
