<svg id="icon_sns_telegram" xmlns="http://www.w3.org/2000/svg" width="64" height="64" viewBox="0 0 64 64">
  <circle id="타원_139" data-name="타원 139" cx="32" cy="32" r="32" fill="#ff9a3e" opacity="0.2"/>
  <path id="icon_sns_telegram-2" data-name="icon_sns_telegram" d="M25.757,1.8.622,11.567A.917.917,0,0,0,.1,12.813c.1.312.312.415.623.519L7.062,15.41l2.8,8.517h0c.1.1.208.208.415.1h.1l4.362-4.051L21.5,24.965a.985.985,0,0,0,1.35-.208c.1-.1.1-.208.208-.415L27,2.842A.957.957,0,0,0,26.276,1.7,1.129,1.129,0,0,1,25.757,1.8ZM10.385,16.864l-.415,5.4L7.789,15.618l12.567-8Z" transform="translate(17.477 18.577)" fill="#ff9a3e"/>
</svg>
