<svg id="icon_1" xmlns="http://www.w3.org/2000/svg" width="30" height="30" viewBox="0 0 30 30">
  <rect id="사각형_6" data-name="사각형 6" width="30" height="30" fill="none"/>
  <path id="ico_arr_next" d="M24.375,3.25A1.625,1.625,0,0,0,22.75,1.625H3.25A1.625,1.625,0,0,0,1.625,3.25v19.5A1.625,1.625,0,0,0,3.25,24.375h19.5a1.625,1.625,0,0,0,1.625-1.625ZM0,3.25A3.25,3.25,0,0,1,3.25,0h19.5A3.25,3.25,0,0,1,26,3.25v19.5A3.25,3.25,0,0,1,22.75,26H3.25A3.25,3.25,0,0,1,0,22.75Z" transform="translate(2 2)" fill="#af1921" fill-rule="evenodd"/>
  <path id="패스_34" data-name="패스 34" d="M.112-11.2v2.08h2.24V0H4.944V-11.2Z" transform="translate(12.472 20.6)" fill="#af1921"/>
</svg>
