<svg id="icon_b" xmlns="http://www.w3.org/2000/svg" width="30" height="30" viewBox="0 0 30 30">
  <rect id="사각형_6" data-name="사각형 6" width="30" height="30" fill="none"/>
  <path id="ico_arr_next" d="M24.375,3.25A1.625,1.625,0,0,0,22.75,1.625H3.25A1.625,1.625,0,0,0,1.625,3.25v19.5A1.625,1.625,0,0,0,3.25,24.375h19.5a1.625,1.625,0,0,0,1.625-1.625ZM0,3.25A3.25,3.25,0,0,1,3.25,0h19.5A3.25,3.25,0,0,1,26,3.25v19.5A3.25,3.25,0,0,1,22.75,26H3.25A3.25,3.25,0,0,1,0,22.75Z" transform="translate(2 2)" fill="#ff9a3e" fill-rule="evenodd"/>
  <path id="패스_92" data-name="패스 92" d="M9.552-5.824A2.692,2.692,0,0,0,11.04-8.288c0-1.744-1.44-2.912-4.24-2.912H1.328V0H7.12c2.944,0,4.48-1.12,4.48-3.056A2.766,2.766,0,0,0,9.552-5.824ZM6.48-9.248c1.264,0,1.952.432,1.952,1.312S7.744-6.608,6.48-6.608H3.9v-2.64Zm.448,7.3H3.9V-4.72H6.928c1.344,0,2.064.448,2.064,1.392C8.992-2.368,8.272-1.952,6.928-1.952Z" transform="translate(8.536 20.6)" fill="#ff9a3e"/>
</svg>
