<svg id="img_platform" xmlns="http://www.w3.org/2000/svg" xmlns:xlink="http://www.w3.org/1999/xlink" width="650" height="419" viewBox="0 0 650 419">
  <defs>
    <clipPath id="clip-path">
      <rect id="사각형_381" data-name="사각형 381" width="650" height="414.433" fill="none"/>
    </clipPath>
  </defs>
  <g id="그룹_558" data-name="그룹 558" transform="translate(0 -4.964)">
    <g id="그룹_554" data-name="그룹 554" transform="translate(0 8.997)" clip-path="url(#clip-path)">
      <text id="Real_world" data-name="Real world" transform="translate(107 14.967)" fill="#3c3344" font-size="17" font-family="Montserrat-SemiBold, Montserrat" font-weight="600"><tspan x="0" y="0" letter-spacing="-0.024em">R</tspan><tspan y="0" letter-spacing="-0.039em">e</tspan><tspan y="0" letter-spacing="-0.024em">al </tspan><tspan y="0" letter-spacing="-0.039em">w</tspan><tspan y="0" letter-spacing="-0.024em">o</tspan><tspan y="0" letter-spacing="-0.03em">r</tspan><tspan y="0" letter-spacing="-0.024em">l</tspan><tspan y="0">d</tspan></text>
    </g>
    <text id="Commerce_Life" data-name="Commerce &amp; Life" transform="translate(77.756 43.913)" fill="#3c3344" font-size="17" font-family="Montserrat-SemiBold, Montserrat" font-weight="600"><tspan x="0" y="0" letter-spacing="-0.044em">C</tspan><tspan y="0" letter-spacing="-0.024em">om</tspan><tspan y="0" letter-spacing="-0.02em">m</tspan><tspan y="0" letter-spacing="-0.024em">e</tspan><tspan y="0" letter-spacing="-0.034em">r</tspan><tspan y="0" letter-spacing="-0.033em">c</tspan><tspan y="0" letter-spacing="-0.024em">e </tspan><tspan y="0" letter-spacing="-0.025em">&amp;</tspan><tspan y="0" letter-spacing="-0.024em"> </tspan><tspan y="0" letter-spacing="-0.025em">L</tspan><tspan y="0" letter-spacing="-0.024em">i</tspan><tspan y="0" letter-spacing="-0.032em">f</tspan><tspan y="0">e</tspan></text>
    <text id="Connect_to" data-name="Connect to" transform="translate(117.509 393.735)" fill="#3c3344" font-size="17" font-family="Montserrat-SemiBold, Montserrat" font-weight="600"><tspan x="0" y="0" letter-spacing="-0.044em">C</tspan><tspan y="0" letter-spacing="-0.024em">on</tspan><tspan y="0" letter-spacing="-0.019em">n</tspan><tspan y="0" letter-spacing="-0.024em">e</tspan><tspan y="0" letter-spacing="-0.017em">c</tspan><tspan y="0" letter-spacing="-0.024em">t </tspan><tspan y="0" letter-spacing="-0.042em">t</tspan><tspan y="0">o</tspan></text>
    <g id="그룹_557" data-name="그룹 557" transform="translate(0 4.964)">
      <g id="그룹_556" data-name="그룹 556" clip-path="url(#clip-path)">
        <text id="Smart_Contract" data-name="Smart Contract" transform="translate(99.124 407.868)" fill="#3c3344" font-size="17" font-family="Montserrat-SemiBold, Montserrat" font-weight="600"><tspan x="0" y="0" letter-spacing="-0.024em">Sma</tspan><tspan y="0" letter-spacing="-0.009em">r</tspan><tspan y="0" letter-spacing="-0.025em">t</tspan><tspan y="0" letter-spacing="-0.024em"> </tspan><tspan y="0" letter-spacing="-0.044em">C</tspan><tspan y="0" letter-spacing="-0.024em">on</tspan><tspan y="0" letter-spacing="-0.025em">t</tspan><tspan y="0" letter-spacing="-0.033em">r</tspan><tspan y="0" letter-spacing="-0.019em">a</tspan><tspan y="0" letter-spacing="-0.018em">c</tspan><tspan y="0">t</tspan></text>
        <circle id="타원_137" data-name="타원 137" cx="136.025" cy="136.025" r="136.025" transform="translate(181.566 58.234)" fill="none" stroke="#ff6c8f" stroke-miterlimit="10" stroke-width="1" stroke-dasharray="8 8 8 8 8 8"/>
        <path id="패스_4956" data-name="패스 4956" d="M78.156,307.183H21.166a2.41,2.41,0,0,1-2.41-2.41V218.395a2.41,2.41,0,0,1,2.41-2.41H78.156a2.409,2.409,0,0,1,2.41,2.41v86.379a2.409,2.409,0,0,1-2.41,2.41" transform="translate(-3.692 -42.512)" fill="#85d2ee"/>
        <rect id="사각형_382" data-name="사각형 382" width="61.81" height="91.198" rx="3" transform="translate(15.064 173.474)" fill="none" stroke="#3c3344" stroke-linecap="round" stroke-linejoin="round" stroke-width="2"/>
        <path id="패스_4957" data-name="패스 4957" d="M8.422,303a2.034,2.034,0,0,1-2.031-2.031v-9.094a9.932,9.932,0,0,1,19.863,0v9.094A2.033,2.033,0,0,1,24.224,303Zm13.77-4.062v-7.063a5.87,5.87,0,0,0-11.74,0v7.063Z" transform="translate(-1.258 -55.495)" fill="#fed9a2"/>
        <path id="패스_4958" data-name="패스 4958" d="M16.126,282.552a9.138,9.138,0,0,1,9.128,9.128v9.093A1.228,1.228,0,0,1,24.027,302H8.225A1.229,1.229,0,0,1,7,300.773V291.68a9.138,9.138,0,0,1,9.129-9.128M9.453,299.546H22.8V291.68a6.673,6.673,0,1,0-13.346,0v7.865m6.674-18.6A10.747,10.747,0,0,0,5.391,291.68v9.093a2.838,2.838,0,0,0,2.834,2.834h15.8a2.837,2.837,0,0,0,2.834-2.834V291.68a10.747,10.747,0,0,0-10.734-10.734M11.059,297.94V291.68a5.067,5.067,0,1,1,10.134,0v6.259Z" transform="translate(-1.061 -55.298)" fill="#3c3344"/>
        <path id="패스_4959" data-name="패스 4959" d="M21.77,324.053H8.754A7.753,7.753,0,0,1,1,316.3V301.7H29.523v14.6a7.754,7.754,0,0,1-7.753,7.753" transform="translate(-0.197 -59.382)" fill="#ff7767"/>
        <path id="패스_4960" data-name="패스 4960" d="M21.77,324.053H8.754A7.753,7.753,0,0,1,1,316.3V301.7H29.523v14.6A7.754,7.754,0,0,1,21.77,324.053Z" transform="translate(-0.197 -59.382)" fill="none" stroke="#3c3344" stroke-linecap="round" stroke-linejoin="round" stroke-width="2"/>
        <path id="패스_4961" data-name="패스 4961" d="M20.532,313.34a2.352,2.352,0,1,1-2.352-2.352,2.352,2.352,0,0,1,2.352,2.352" transform="translate(-3.115 -61.211)" fill="#fffbe9"/>
        <rect id="사각형_383" data-name="사각형 383" width="1.223" height="5.174" transform="translate(14.453 252.035)" fill="#fffbe9"/>
        <path id="패스_4962" data-name="패스 4962" d="M34.29,228.683v-2.652h2.977v2.589q5.007.558,6.543,4.76l-4.853,1.52a2.937,2.937,0,0,0-3.038-1.969q-1.924,0-1.924,1.239a1.033,1.033,0,0,0,.326.769,4.5,4.5,0,0,0,1.8.647A34.3,34.3,0,0,1,40.94,236.9a5.35,5.35,0,0,1,2.427,1.968,5.567,5.567,0,0,1,.969,3.275,5.88,5.88,0,0,1-1.883,4.439,8.708,8.708,0,0,1-5.186,2.161v2.682H34.29v-2.682q-5.613-.665-7.055-5.907l5.425-1.008a3.247,3.247,0,0,0,3.521,2.388q2.2,0,2.2-1.21a1.139,1.139,0,0,0-.512-.992,5.207,5.207,0,0,0-1.814-.622q-5.115-1.042-6.487-2.654a5.547,5.547,0,0,1-1.373-3.7,6.2,6.2,0,0,1,1.505-4.1,7.114,7.114,0,0,1,4.589-2.254" transform="translate(-5.361 -44.489)" fill="#3c3344"/>
        <line id="선_277" data-name="선 277" x2="27.158" transform="translate(43.979 184.923)" fill="none" stroke="#fff" stroke-linejoin="round" stroke-width="2"/>
        <line id="선_278" data-name="선 278" x2="9.169" transform="translate(61.969 190.449)" fill="none" stroke="#fff" stroke-linejoin="round" stroke-width="2"/>
        <line id="선_279" data-name="선 279" x2="15.956" transform="translate(43.979 190.449)" fill="none" stroke="#fff" stroke-linejoin="round" stroke-width="2"/>
        <line id="선_280" data-name="선 280" x2="27.158" transform="translate(43.979 195.976)" fill="none" stroke="#fff" stroke-linejoin="round" stroke-width="2"/>
        <line id="선_281" data-name="선 281" x2="27.158" transform="translate(43.979 201.411)" fill="none" stroke="#fff" stroke-linejoin="round" stroke-width="2"/>
        <line id="선_282" data-name="선 282" x2="9.169" transform="translate(61.969 206.937)" fill="none" stroke="#fff" stroke-linejoin="round" stroke-width="2"/>
        <line id="선_283" data-name="선 283" x2="15.956" transform="translate(43.979 206.937)" fill="none" stroke="#fff" stroke-linejoin="round" stroke-width="2"/>
        <line id="선_284" data-name="선 284" x2="50.336" transform="translate(20.801 214.806)" fill="none" stroke="#fff" stroke-linejoin="round" stroke-width="2"/>
        <line id="선_285" data-name="선 285" x2="49.981" transform="translate(21.156 221.519)" fill="none" stroke="#fff" stroke-linejoin="round" stroke-width="2"/>
        <line id="선_286" data-name="선 286" x2="40.713" transform="translate(30.425 228.233)" fill="none" stroke="#fff" stroke-linejoin="round" stroke-width="2"/>
        <line id="선_287" data-name="선 287" x2="40.713" transform="translate(30.425 234.947)" fill="none" stroke="#fff" stroke-linejoin="round" stroke-width="2"/>
        <line id="선_288" data-name="선 288" x2="33.557" transform="translate(37.58 241.661)" fill="none" stroke="#fff" stroke-linejoin="round" stroke-width="2"/>
        <line id="선_289" data-name="선 289" x2="33.557" transform="translate(37.58 248.374)" fill="none" stroke="#fff" stroke-linejoin="round" stroke-width="2"/>
        <line id="선_290" data-name="선 290" x2="33.557" transform="translate(37.58 255.088)" fill="none" stroke="#fff" stroke-linejoin="round" stroke-width="2"/>
        <path id="패스_4963" data-name="패스 4963" d="M496.279,97.449v-36.5h60.98" transform="translate(-97.681 -11.996)" fill="none" stroke="#ff6c8f" stroke-miterlimit="10" stroke-width="1" stroke-dasharray="8 8 8 8 8 8"/>
        <path id="패스_4964" data-name="패스 4964" d="M565.665,59.331a6.6,6.6,0,1,1,6.6,6.6,6.6,6.6,0,0,1-6.6-6.6" transform="translate(-111.338 -10.379)" fill="#ff6c8f"/>
        <path id="패스_4965" data-name="패스 4965" d="M185.986,71.979a6.6,6.6,0,1,1,6.6,6.6,6.6,6.6,0,0,1-6.6-6.6" transform="translate(-36.607 -12.868)" fill="#ff6c8f"/>
        <path id="패스_4966" data-name="패스 4966" d="M111.247,280.771a6.6,6.6,0,1,1,6.6,6.6,6.6,6.6,0,0,1-6.6-6.6" transform="translate(-21.896 -53.964)" fill="#ff6c8f"/>
        <path id="패스_4967" data-name="패스 4967" d="M202.551,446.643a6.6,6.6,0,1,1,6.6,6.6,6.6,6.6,0,0,1-6.6-6.6" transform="translate(-39.867 -86.612)" fill="#ff6c8f"/>
        <path id="패스_4968" data-name="패스 4968" d="M496.279,377.336v37.324h60.98" transform="translate(-97.681 -74.27)" fill="none" stroke="#ff6c8f" stroke-miterlimit="10" stroke-width="1" stroke-dasharray="8 8 8 8 8 8"/>
        <path id="패스_4969" data-name="패스 4969" d="M565.665,422.19a6.6,6.6,0,1,1,6.6,6.6,6.6,6.6,0,0,1-6.6-6.6" transform="translate(-111.338 -81.799)" fill="#ff6c8f"/>
        <path id="패스_4970" data-name="패스 4970" d="M689.594,283.528a6.6,6.6,0,1,1,6.6,6.6,6.6,6.6,0,0,1-6.6-6.6" transform="translate(-135.73 -54.507)" fill="#ff6c8f"/>
        <path id="패스_4971" data-name="패스 4971" d="M563.986,253.547h25.257v25.378h76.922" transform="translate(-111.007 -49.905)" fill="none" stroke="#ff6c8f" stroke-miterlimit="10" stroke-width="1" stroke-dasharray="8 8 8 8 8 8"/>
        <path id="패스_4972" data-name="패스 4972" d="M261.57,110.933H194.2V78.08" transform="translate(-38.224 -15.368)" fill="none" stroke="#ff6c8f" stroke-miterlimit="10" stroke-width="1" stroke-dasharray="8 8 8 8 8 8"/>
        <path id="패스_4973" data-name="패스 4973" d="M204.441,226.973H159.378v44.956H119.464" transform="translate(-23.514 -44.674)" fill="none" stroke="#ff6c8f" stroke-miterlimit="10" stroke-width="1" stroke-dasharray="8 8 8 8 8 8"/>
        <path id="패스_4974" data-name="패스 4974" d="M284.674,384.179H240.521v22.246H210.768v24.533" transform="translate(-41.485 -75.617)" fill="none" stroke="#ff6c8f" stroke-miterlimit="10" stroke-width="1" stroke-dasharray="8 8 8 8 8 8"/>
        <path id="패스_4975" data-name="패스 4975" d="M375.229,229.56Z" transform="translate(-73.855 -45.183)" fill="#ec4595"/>
        <path id="패스_4976" data-name="패스 4976" d="M394.459,234.4v11.073l.715.413Z" transform="translate(-77.64 -46.137)" fill="#ff6c8f"/>
        <path id="패스_4977" data-name="패스 4977" d="M394.459,249.3v.447H396V249.3l-.772.445Z" transform="translate(-77.64 -49.069)" fill="#ff6c8f"/>
        <path id="패스_4978" data-name="패스 4978" d="M395.421,248.635v.893l.772-.446v-.893Z" transform="translate(-77.829 -48.85)" fill="#ff6c8f"/>
        <path id="패스_4979" data-name="패스 4979" d="M395.174,248.6l-.715-.413v.892l.773.447Z" transform="translate(-77.64 -48.85)" fill="#ff6c8f"/>
        <path id="패스_4980" data-name="패스 4980" d="M395.349,248.7l.058.926v-.893h0Z" transform="translate(-77.815 -48.952)" fill="#ff6c8f"/>
        <path id="패스_4981" data-name="패스 4981" d="M384.844,242.107v.875l4.473-2.409,0-.877Z" transform="translate(-75.748 -47.179)" fill="#ff6c8f"/>
        <path id="패스_4982" data-name="패스 4982" d="M384.821,243.2v.865l-.094-.054.049.091,4.519-2.438,0-.874Z" transform="translate(-75.725 -47.393)" fill="#ff6c8f"/>
        <path id="패스_4983" data-name="패스 4983" d="M391.183,240.271l-.771.415,0,.874.771-.415Z" transform="translate(-76.844 -47.292)" fill="#ff6c8f"/>
        <path id="패스_4984" data-name="패스 4984" d="M391.052,239.265l-.643.347,0,.876.771-.415,0-.569Z" transform="translate(-76.843 -47.094)" fill="#ff6c8f"/>
        <path id="패스_4985" data-name="패스 4985" d="M391.37,239.562l0,.569.237-.128-.237.128,0,.874.6-.325Z" transform="translate(-77.032 -47.152)" fill="#ff6c8f"/>
        <path id="패스_4986" data-name="패스 4986" d="M384.653,243.573l-.411.222.411-.222V242.7l-.778.419.684,1.267.094.054Z" transform="translate(-75.557 -47.769)" fill="#ff6c8f"/>
        <path id="패스_4987" data-name="패스 4987" d="M367.536,232.775l5.406-2.912v-.877l-5.406,2.913Z" transform="translate(-72.341 -45.071)" fill="#ff6c8f"/>
        <path id="패스_4988" data-name="패스 4988" d="M367.536,232.99v.8l.033.062,5.373-2.9v-.875Z" transform="translate(-72.341 -45.285)" fill="#ff6c8f"/>
        <path id="패스_4989" data-name="패스 4989" d="M367.032,233.668l.332-.179v-.876l-.7.377.7,1.3v-.8Z" transform="translate(-72.169 -45.784)" fill="#ff6c8f"/>
        <path id="패스_4990" data-name="패스 4990" d="M375.039,229.393l-.367-.679-.406.218v.877Z" transform="translate(-73.666 -45.017)" fill="#ff6c8f"/>
        <path id="패스_4991" data-name="패스 4991" d="M375.04,229.56h0l-.773.416v.876l.773-.417Z" transform="translate(-73.666 -45.183)" fill="#ff6c8f"/>
        <path id="패스_4992" data-name="패스 4992" d="M375.229,229.561v.875l.366-.2Z" transform="translate(-73.855 -45.184)" fill="#ff6c8f"/>
        <path id="패스_4993" data-name="패스 4993" d="M349.724,223.662l.332-.179v-.876l-.7.377.7,1.3v-.8Z" transform="translate(-68.763 -43.815)" fill="#ff6c8f"/>
        <path id="패스_4994" data-name="패스 4994" d="M389.219,188.834l24.975-14.476v-5L384.844,186.3v41.959l4.47-2.41Z" transform="translate(-75.748 -33.334)" fill="#ccfff5"/>
        <path id="패스_4995" data-name="패스 4995" d="M355.634,168.453l30.892-17.838,8.494,4.908-.021.012h.026v6.225l5.4-3.119,8.5,4.906h0v4.995l9.712-5.629-32.117-18.552-36.293,20.972v41.873l5.4-2.912Z" transform="translate(-68.934 -28.414)" fill="#ccfff5"/>
        <path id="패스_4996" data-name="패스 4996" d="M396.887,159.366l-29.35,16.945,0,41.885,5.406-2.913V179.431l24.172-13.955h-.227Z" transform="translate(-72.341 -31.367)" fill="#ccfff5"/>
        <path id="패스_4997" data-name="패스 4997" d="M392.228,198.545l.1,38.9,1.694.977V227.345Z" transform="translate(-77.201 -39.079)" fill="#ffe6e6"/>
        <path id="패스_4998" data-name="패스 4998" d="M423.808,162.9l-37.837-21.853-38.628,22.3v41.908l.773.447V163.789l37.837-21.865,35.2,20.339-37.225,21.572,2.041,1.268Z" transform="translate(-68.366 -27.762)" fill="#ffe6e6"/>
        <path id="패스_4999" data-name="패스 4999" d="M396.382,232.786l37.841-21.848V169.93l-37.84,22.2Z" transform="translate(-78.019 -33.447)" fill="#ffe6e6"/>
        <path id="패스_5000" data-name="패스 5000" d="M415.267,175.584,390.292,190.06l.095,37.017.643-.346.129.239-.092-36.468,25.181-14.594h-.207v0h-.773Z" transform="translate(-76.82 -34.56)" fill="#ff6c8f"/>
        <path id="패스_5001" data-name="패스 5001" d="M345.42,162.018v43.689l3.862,2.244v-.161l-.7-1.3.7-.377V164.244l36.292-20.972,32.118,18.553-9.713,5.629v.892l11.254-6.522-33.659-19.444L348.51,163.8v42.812l-2.317-1.345v-42.8l39.4-22.747,38.6,22.3.379-.222.39.667h0l.39.665-.39.229v41.91l-38.614,22.294V228h-1.545v-.446l-2.464-1.423-.013-4.956-.771.415.013,4.986,4.008,2.317,40.159-23.187v-43.7l-40.145-23.186Z" transform="translate(-67.988 -27.325)" fill="#ff6c8f"/>
        <path id="패스_5002" data-name="패스 5002" d="M444.46,168.251h0Z" transform="translate(-87.482 -33.116)" fill="#ec4595"/>
        <path id="패스_5003" data-name="패스 5003" d="M434.224,210.827l-37.841,21.848v.893L435,211.274V169.365l-.773.454Z" transform="translate(-78.019 -33.336)" fill="#ff6c8f"/>
        <path id="패스_5004" data-name="패스 5004" d="M407.6,168.892l-25.181,14.594.092,36.467.6,1.12-.6.324.013,4.956L385,227.776v-.893l-1.694-.977-.1-38.9-.123-1.982-.467-.289.407-.658h0l.406-.656.31.192,37.225-21.572-35.2-20.339L347.926,163.57v41.914l-.772-.447V163.13l38.628-22.3,37.837,21.852.766-.45-38.6-22.294-39.4,22.746v42.8l2.317,1.345V164.015L385.765,142.6l33.659,19.444-11.254,6.522v.328Z" transform="translate(-68.177 -27.544)" fill="#ff6c8f"/>
        <path id="패스_5005" data-name="패스 5005" d="M444.46,168.25h0Z" transform="translate(-87.481 -33.116)" fill="#ec4595"/>
        <path id="패스_5006" data-name="패스 5006" d="M358.88,217.6l5.408,3.122,0-41.02-5.408-3.121Z" transform="translate(-70.637 -34.755)" fill="#ffe6e6"/>
        <path id="패스_5007" data-name="패스 5007" d="M393.824,157.494l-5.406-3.122-28.573,16.5,5.406,3.12Z" transform="translate(-70.827 -30.385)" fill="#ffe6e6"/>
        <path id="패스_5008" data-name="패스 5008" d="M365.454,216.775l0-41.884,29.35-16.946v-.877h1.519l.022-.012-8.5-4.908-30.892,17.838,0,35.841.407-.219.366.678v-34.96l-.386-.223.772-1.34.387.223,29.346-16.944,6.951,4.013-30.117,17.389v42.8l-6.952-4.012v-6.074l-.773.416v6.1l8.5,4.9v-.137l-.7-1.3Z" transform="translate(-70.259 -29.947)" fill="#ff6c8f"/>
        <path id="패스_5009" data-name="패스 5009" d="M388.229,154.153l5.406,3.122-28.573,16.5.386.222-.386.669,30.118-17.389-6.951-4.013-29.347,16.944.773.446Z" transform="translate(-70.638 -30.166)" fill="#ff6c8f"/>
        <path id="패스_5010" data-name="패스 5010" d="M357.921,210.986h0l.366.679-.368.2v6.074l6.952,4.012v-42.8l-.386.669-.386-.222v41.02l-5.408-3.122,0-41.02-.772-.445,0,34.959Z" transform="translate(-70.448 -34.646)" fill="#ff6c8f"/>
        <path id="패스_5011" data-name="패스 5011" d="M376.19,227.59l5.406,3.122v-41.02l-5.406-3.121Z" transform="translate(-74.044 -36.722)" fill="#ffe6e6"/>
        <path id="패스_5012" data-name="패스 5012" d="M411.132,167.485l-5.406-3.12-28.573,16.5,5.4,3.12Z" transform="translate(-74.234 -32.352)" fill="#ffe6e6"/>
        <path id="패스_5013" data-name="패스 5013" d="M382.762,226.842V184.882l29.351-16.945v-.889h1.54l-8.5-4.906-5.4,3.119v.761h-1.318l-24.172,13.955v35.852l.406-.218.367.679h0V181.317l-.386-.223.772-1.34.388.224,29.346-16.943,6.951,4.013-30.119,17.39v42.805l-6.951-4.014v-6.062l-.773.416v6.093l8.4,4.854-.684-1.267Z" transform="translate(-73.666 -31.914)" fill="#ff6c8f"/>
        <path id="패스_5014" data-name="패스 5014" d="M405.537,164.147l5.406,3.12-28.574,16.5.386.223-.387.67h0l30.119-17.389-6.951-4.013L376.191,180.2l.773.446Z" transform="translate(-74.045 -32.133)" fill="#ff6c8f"/>
        <path id="패스_5015" data-name="패스 5015" d="M375.595,221.667l-.366.2v6.062l6.951,4.014V189.136h0l-.386.669-.386-.222V230.6L376,227.481v-41.02l-.772-.446v34.973h0Z" transform="translate(-73.855 -36.613)" fill="#ff6c8f"/>
        <path id="패스_5016" data-name="패스 5016" d="M394.02,197.281l-1.8-1.113,0,1.909,1.793,28.8Z" transform="translate(-77.2 -38.611)" fill="#ffe6e6"/>
        <path id="패스_5017" data-name="패스 5017" d="M392.075,196.077l.124,1.982,0-1.909Z" transform="translate(-77.171 -38.593)" fill="#ff6c8f"/>
        <path id="패스_5018" data-name="패스 5018" d="M392,194.9h0Z" transform="translate(-77.156 -38.361)" fill="#f2a1c6"/>
        <path id="패스_5019" data-name="패스 5019" d="M395.813,197.688l-.39-.666h0v41.541l.772-.445,0-40.655Z" transform="translate(-77.829 -38.779)" fill="#ff6c8f"/>
        <path id="패스_5020" data-name="패스 5020" d="M392.219,194.892l2.573,1.6h0l-.391-.667.4-.235-2.042-1.267-.542.314Z" transform="translate(-77.199 -38.247)" fill="#ff6c8f"/>
        <path id="패스_5021" data-name="패스 5021" d="M392.176,194.587l.542-.314-.31-.193-.406.656.175.109Z" transform="translate(-77.156 -38.2)" fill="#ff6c8f"/>
        <path id="패스_5022" data-name="패스 5022" d="M391.494,195.556l.467.289-.059-.948Z" transform="translate(-77.056 -38.361)" fill="#ff6c8f"/>
        <path id="패스_5023" data-name="패스 5023" d="M392.219,195.033l0,.912,1.8,1.112,0,29.6.715,11.486.057.033h0V196.631Z" transform="translate(-77.199 -38.388)" fill="#ff6c8f"/>
        <path id="패스_5024" data-name="패스 5024" d="M392.176,195.006,392,194.9l.059.947.119.074Z" transform="translate(-77.156 -38.361)" fill="#ff6c8f"/>
        <path id="패스_5025" data-name="패스 5025" d="M396.379,191.041v.871l37.841-22.2v-.9l-37.86,22.214Z" transform="translate(-78.014 -33.227)" fill="#ff6c8f"/>
        <path id="패스_5026" data-name="패스 5026" d="M396.178,190.919l37.86-22.214V168.7l-.764-.441-37.839,22.2Z" transform="translate(-77.832 -33.117)" fill="#ff6c8f"/>
        <path id="패스_5027" data-name="패스 5027" d="M444.85,168.917l-.39-.666v.895Z" transform="translate(-87.481 -33.116)" fill="#ff6c8f"/>
        <path id="패스_5028" data-name="패스 5028" d="M443.88,167.42l-.379.222.769.444Z" transform="translate(-87.293 -32.953)" fill="#ff6c8f"/>
        <path id="패스_5029" data-name="패스 5029" d="M443.5,168.7v.9l.773-.454v-.895Z" transform="translate(-87.292 -33.116)" fill="#ff6c8f"/>
        <path id="패스_5030" data-name="패스 5030" d="M443.31,168.587v.007l.773-.453h0l-.769-.444-.767.45Z" transform="translate(-87.105 -33.007)" fill="#ff6c8f"/>
        <path id="패스_5031" data-name="패스 5031" d="M395.337,195.9l-.4.235.391.667.753-.442Z" transform="translate(-77.734 -38.558)" fill="#ff6c8f"/>
        <path id="패스_5032" data-name="패스 5032" d="M396.195,197.356v-.871l-.019-.012-.753.442.39.666Z" transform="translate(-77.83 -38.671)" fill="#ff6c8f"/>
        <path id="패스_5033" data-name="패스 5033" d="M364.29,178.479l.773-.446-5.406-3.12-.773.446,5.406,3.121Z" transform="translate(-70.638 -34.427)" fill="#ff6c8f"/>
        <path id="패스_5034" data-name="패스 5034" d="M358.884,175.468h0v.892l5.408,3.12v-.892Z" transform="translate(-70.638 -34.537)" fill="#ff6c8f"/>
        <path id="패스_5035" data-name="패스 5035" d="M358.6,174.3l-.386-.223-.773,1.34.387.223v-.894Z" transform="translate(-70.354 -34.263)" fill="#ff6c8f"/>
        <path id="패스_5036" data-name="패스 5036" d="M366.575,179.909v0h0Z" transform="translate(-72.152 -35.411)" fill="#ec4595"/>
        <path id="패스_5037" data-name="패스 5037" d="M365.615,179.353v.892l.386.223.386-.669h0Z" transform="translate(-71.963 -35.302)" fill="#ff6c8f"/>
        <path id="패스_5038" data-name="패스 5038" d="M358.693,175.359h0l-.773-.447v.894l.772.445Z" transform="translate(-70.448 -34.427)" fill="#ff6c8f"/>
        <path id="패스_5039" data-name="패스 5039" d="M358.695,175.249l.772-.446-.773-.447-.772.446Z" transform="translate(-70.448 -34.318)" fill="#ff6c8f"/>
        <path id="패스_5040" data-name="패스 5040" d="M366.387,178.8l-.773.446h0l.772.446h0l.386-.669Z" transform="translate(-71.963 -35.192)" fill="#ff6c8f"/>
        <path id="패스_5041" data-name="패스 5041" d="M381.6,188.47l.773-.446-5.4-3.12-.773.447,5.405,3.121Z" transform="translate(-74.044 -36.394)" fill="#ff6c8f"/>
        <path id="패스_5042" data-name="패스 5042" d="M376.19,185.46h0v.892l5.405,3.12v-.892Z" transform="translate(-74.044 -36.503)" fill="#ff6c8f"/>
        <path id="패스_5043" data-name="패스 5043" d="M375.907,184.294l-.388-.224-.772,1.34.386.223v-.892Z" transform="translate(-73.76 -36.23)" fill="#ff6c8f"/>
        <path id="패스_5044" data-name="패스 5044" d="M376,185.351h0l-.772-.446v.892l.772.446Z" transform="translate(-73.855 -36.394)" fill="#ff6c8f"/>
        <path id="패스_5045" data-name="패스 5045" d="M382.92,190.237l.386.222.386-.669-.772-.446Z" transform="translate(-75.369 -37.268)" fill="#ff6c8f"/>
        <path id="패스_5046" data-name="패스 5046" d="M376,185.241l.773-.447-.773-.446-.773.447Z" transform="translate(-73.855 -36.285)" fill="#ff6c8f"/>
        <path id="패스_5047" data-name="패스 5047" d="M383.693,188.788l-.773.446v0l.772.446.387-.671Z" transform="translate(-75.369 -37.159)" fill="#ff6c8f"/>
        <path id="패스_5048" data-name="패스 5048" d="M355.633,219.858v-.876l-5.4,2.911v.876Z" transform="translate(-68.934 -43.101)" fill="#ff6c8f"/>
        <path id="패스_5049" data-name="패스 5049" d="M350.228,222.984v.8l.033.061,5.372-2.894v-.876Z" transform="translate(-68.934 -43.316)" fill="#ff6c8f"/>
        <path id="패스_5050" data-name="패스 5050" d="M357.73,219.388v0l-.365-.677-.407.219v.876Z" transform="translate(-70.259 -43.048)" fill="#ff6c8f"/>
        <path id="패스_5051" data-name="패스 5051" d="M357.73,219.554l-.773.416v.876l.773-.416Z" transform="translate(-70.259 -43.214)" fill="#ff6c8f"/>
        <path id="패스_5052" data-name="패스 5052" d="M357.92,219.553v0Z" transform="translate(-70.448 -43.214)" fill="#ec4595"/>
        <path id="패스_5053" data-name="패스 5053" d="M357.92,219.553h0v.875l.367-.2Z" transform="translate(-70.448 -43.214)" fill="#ff6c8f"/>
        <path id="패스_5054" data-name="패스 5054" d="M423.117,168.25l-.767.443v5l.772-.447v-5Z" transform="translate(-83.13 -33.116)" fill="#ff6c8f"/>
        <path id="패스_5055" data-name="패스 5055" d="M422.16,173.8v-5l-.773.446v5Z" transform="translate(-82.94 -33.225)" fill="#ff6c8f"/>
        <path id="패스_5056" data-name="패스 5056" d="M421.388,175.8h.773v-.772l-.773.448Z" transform="translate(-82.94 -34.45)" fill="#ff6c8f"/>
        <path id="패스_5057" data-name="패스 5057" d="M422.35,175.688h.207l.565-.328v-.892l-.772.447Z" transform="translate(-83.13 -34.34)" fill="#ff6c8f"/>
        <path id="패스_5058" data-name="패스 5058" d="M423.172,175.907v-.328l-.565.328Z" transform="translate(-83.181 -34.559)" fill="#ff6c8f"/>
        <path id="패스_5059" data-name="패스 5059" d="M422.16,168.25v.443l.767-.443h-1.54v.889l.773-.447Z" transform="translate(-82.94 -33.116)" fill="#ff6c8f"/>
        <path id="패스_5060" data-name="패스 5060" d="M405.788,158.274l-.746.431v6.24l.772-.446v-6.225Z" transform="translate(-79.723 -31.153)" fill="#ff6c8f"/>
        <path id="패스_5061" data-name="패스 5061" d="M404.853,158.81l-.773.446v6.11h.226l.546-.315Z" transform="translate(-79.534 -31.258)" fill="#ff6c8f"/>
        <path id="패스_5062" data-name="패스 5062" d="M404.853,158.274v.431l.746-.431H404.08v.877l.773-.447Z" transform="translate(-79.534 -31.153)" fill="#ff6c8f"/>
        <path id="패스_5063" data-name="패스 5063" d="M405.042,166.786h.772v-.761l-.772.445Z" transform="translate(-79.723 -32.678)" fill="#ff6c8f"/>
        <path id="패스_5064" data-name="패스 5064" d="M404.362,166.9h.546v-.316Z" transform="translate(-79.589 -32.787)" fill="#ff6c8f"/>
        <path id="패스_5065" data-name="패스 5065" d="M343.98,300.922c-.037.436-.091.889-.164,1.362a5.03,5.03,0,0,1-.381,1.308,2.306,2.306,0,0,1-.709.981,2.281,2.281,0,0,1-1.417.6,2.989,2.989,0,0,1-1.471.164,5.014,5.014,0,0,1-1.308-.382,3.1,3.1,0,0,1-1.117-1.171,5.717,5.717,0,0,1-.518-1.444,7.522,7.522,0,0,1-.163-1.581v-5.777l-.055-8.339V284.38c0-.273-.01-.581-.027-.927s-.027-.845-.027-1.5c0-.109.008-.3.027-.572s-.01-1.009-.082-2.208q-2.125,3.543-3.516,5.7a38.93,38.93,0,0,1-2.344,3.324,6.721,6.721,0,0,1-1.663,1.581,3.392,3.392,0,0,1-1.471.463,1.49,1.49,0,0,1-.872-.164,4.728,4.728,0,0,1-.845-.545,9.07,9.07,0,0,1-.763-.681,4.437,4.437,0,0,1-.572-.682q-1.308-1.635-2.944-3.924a50.59,50.59,0,0,1-3.379-5.559q0,.054-.027,1.8t-.027,4.333q0,2.59-.027,5.56t-.055,5.532q-.028,2.563-.082,4.278a10.433,10.433,0,0,1-.108,1.717,3.507,3.507,0,0,1-.436,1.716,3.616,3.616,0,0,1-1.172,1.281,3.372,3.372,0,0,1-1.717.545,4.123,4.123,0,0,1-2.126-.545,2.683,2.683,0,0,1-1.063-1.254,6.271,6.271,0,0,1-.463-1.526q-.054-.765-.081-1.472c-.019-.472-.027-.962-.027-1.471l.054-4.251.055-8.393v-7.3q0-4.741.328-9.32a4.39,4.39,0,0,1,.136-1.117,6.623,6.623,0,0,1,.354-1.009,3.146,3.146,0,0,1,1.145-1.308,3.334,3.334,0,0,1,1.745-.49c.254,0,.5.01.736.027s.463.046.681.082a3.093,3.093,0,0,1,1.881,1.28,21.621,21.621,0,0,0,1.5,1.826,12.777,12.777,0,0,1,.926,1.2q.492.708.981,1.471t.927,1.471q.435.71.763,1.254,1.417,2.289,2.534,4.2t2.1,3.271a3.981,3.981,0,0,0,.381-.463q.217-.3.463-.654c.163-.236.308-.463.436-.682s.226-.4.3-.545q.545-.871,1.09-1.717t1.172-1.8q.626-.953,1.308-2.1t1.607-2.617q.382-.653.981-1.58a15.587,15.587,0,0,1,1.363-1.8,10.317,10.317,0,0,1,1.608-1.5,2.862,2.862,0,0,1,1.716-.626c.291,0,.545.01.763.027s.436.046.654.082a2.134,2.134,0,0,1,1.254.6,3.122,3.122,0,0,1,.655.927,6.86,6.86,0,0,1,.272,1.2q.053.383.082.709c.018.218.027.436.027.655q0,3.053.054,6.05t.055,6.049q0,3.707.027,7.631t.027,7.63q0,.765.055,1.635a14.051,14.051,0,0,1,0,1.744" transform="translate(-61.171 -52.353)" fill="#ffe6e6"/>
        <path id="패스_5066" data-name="패스 5066" d="M343.98,300.922c-.037.436-.091.889-.164,1.362a5.03,5.03,0,0,1-.381,1.308,2.306,2.306,0,0,1-.709.981,2.281,2.281,0,0,1-1.417.6,2.989,2.989,0,0,1-1.471.164,5.014,5.014,0,0,1-1.308-.382,3.1,3.1,0,0,1-1.117-1.171,5.717,5.717,0,0,1-.518-1.444,7.522,7.522,0,0,1-.163-1.581v-5.777l-.055-8.339V284.38c0-.273-.01-.581-.027-.927s-.027-.845-.027-1.5c0-.109.008-.3.027-.572s-.01-1.009-.082-2.208q-2.125,3.543-3.516,5.7a38.93,38.93,0,0,1-2.344,3.324,6.721,6.721,0,0,1-1.663,1.581,3.392,3.392,0,0,1-1.471.463,1.49,1.49,0,0,1-.872-.164,4.728,4.728,0,0,1-.845-.545,9.07,9.07,0,0,1-.763-.681,4.437,4.437,0,0,1-.572-.682q-1.308-1.635-2.944-3.924a50.59,50.59,0,0,1-3.379-5.559q0,.054-.027,1.8t-.027,4.333q0,2.59-.027,5.56t-.055,5.532q-.028,2.563-.082,4.278a10.433,10.433,0,0,1-.108,1.717,3.507,3.507,0,0,1-.436,1.716,3.616,3.616,0,0,1-1.172,1.281,3.372,3.372,0,0,1-1.717.545,4.123,4.123,0,0,1-2.126-.545,2.683,2.683,0,0,1-1.063-1.254,6.271,6.271,0,0,1-.463-1.526q-.054-.765-.081-1.472c-.019-.472-.027-.962-.027-1.471l.054-4.251.055-8.393v-7.3q0-4.741.328-9.32a4.39,4.39,0,0,1,.136-1.117,6.623,6.623,0,0,1,.354-1.009,3.146,3.146,0,0,1,1.145-1.308,3.334,3.334,0,0,1,1.745-.49c.254,0,.5.01.736.027s.463.046.681.082a3.093,3.093,0,0,1,1.881,1.28,21.621,21.621,0,0,0,1.5,1.826,12.777,12.777,0,0,1,.926,1.2q.492.708.981,1.471t.927,1.471q.435.71.763,1.254,1.417,2.289,2.534,4.2t2.1,3.271a3.981,3.981,0,0,0,.381-.463q.217-.3.463-.654c.163-.236.308-.463.436-.682s.226-.4.3-.545q.545-.871,1.09-1.717t1.172-1.8q.626-.953,1.308-2.1t1.607-2.617q.382-.653.981-1.58a15.587,15.587,0,0,1,1.363-1.8,10.317,10.317,0,0,1,1.608-1.5,2.862,2.862,0,0,1,1.716-.626c.291,0,.545.01.763.027s.436.046.654.082a2.134,2.134,0,0,1,1.254.6,3.122,3.122,0,0,1,.655.927,6.86,6.86,0,0,1,.272,1.2q.053.383.082.709c.018.218.027.436.027.655q0,3.053.054,6.05t.055,6.049q0,3.707.027,7.631t.027,7.63q0,.765.055,1.635A14.051,14.051,0,0,1,343.98,300.922Z" transform="translate(-61.171 -52.353)" fill="none" stroke="#f16c8e" stroke-miterlimit="10" stroke-width="2"/>
        <path id="패스_5067" data-name="패스 5067" d="M389.607,268.636a1.862,1.862,0,0,1,.027.545,1.756,1.756,0,0,1-.191.6,9.8,9.8,0,0,1-.49,1.362,4.71,4.71,0,0,1-.818,1.308c-.145.218-.282.427-.409.627s-.245.391-.354.573l-.709.926-6.976,10.083-1.253,1.581v14.5a1.427,1.427,0,0,0-.109.545,3.8,3.8,0,0,1-.055.6,3.286,3.286,0,0,0-.164.517,3.4,3.4,0,0,1-.163.518.812.812,0,0,0-.109.327q-.055.108-.082.164c-.018.035-.046.09-.082.163a3.382,3.382,0,0,1-.926.982,4.048,4.048,0,0,1-2.725.273,2.191,2.191,0,0,1-1.308-.545,1.5,1.5,0,0,1-.436-.382,5.762,5.762,0,0,1-.327-.49q-.11-.328-.218-.6a3.03,3.03,0,0,1-.164-.545,1.39,1.39,0,0,1-.109-.518V286.405l-1.2-1.854-7.086-10.028-.6-.981q-.327-.49-.818-1.145a7.659,7.659,0,0,1-.763-1.308,3.422,3.422,0,0,1-.354-.682c-.092-.236-.173-.482-.246-.736a2.223,2.223,0,0,1-.054-1.09,2.433,2.433,0,0,1,.654-1.2,4.526,4.526,0,0,1,1.145-.763,2.444,2.444,0,0,1,1.745-.436,2.305,2.305,0,0,1,1.035.218c.291.145.581.31.872.491q.49.382.953.818a8.25,8.25,0,0,1,.845.926q.436.546.818,1.009a11,11,0,0,1,.763,1.063l.164.218q1.308,1.744,2.453,3.352t2.4,3.461a3.4,3.4,0,0,1,.328.436c.145.218.308.473.49.763q.218-.381.409-.681a2.59,2.59,0,0,1,.3-.409q1.253-1.852,2.4-3.488t2.453-3.379l.109-.218a10.31,10.31,0,0,0,.79-1.008q.353-.518.79-1.063A6.176,6.176,0,0,1,384.156,267a4.559,4.559,0,0,1,1.8-.763,2.535,2.535,0,0,1,1.8.436c.218.145.426.271.626.381a2.274,2.274,0,0,1,.518.382,3.912,3.912,0,0,1,.708,1.2" transform="translate(-70.916 -52.389)" fill="#ffe6e6"/>
        <path id="패스_5068" data-name="패스 5068" d="M389.607,268.636a1.862,1.862,0,0,1,.027.545,1.756,1.756,0,0,1-.191.6,9.8,9.8,0,0,1-.49,1.362,4.71,4.71,0,0,1-.818,1.308c-.145.218-.282.427-.409.627s-.245.391-.354.573l-.709.926-6.976,10.083-1.253,1.581v14.5a1.427,1.427,0,0,0-.109.545,3.8,3.8,0,0,1-.055.6,3.286,3.286,0,0,0-.164.517,3.4,3.4,0,0,1-.163.518.812.812,0,0,0-.109.327q-.055.108-.082.164c-.018.035-.046.09-.082.163a3.382,3.382,0,0,1-.926.982,4.048,4.048,0,0,1-2.725.273,2.191,2.191,0,0,1-1.308-.545,1.5,1.5,0,0,1-.436-.382,5.762,5.762,0,0,1-.327-.49q-.11-.328-.218-.6a3.03,3.03,0,0,1-.164-.545,1.39,1.39,0,0,1-.109-.518V286.405l-1.2-1.854-7.086-10.028-.6-.981q-.327-.49-.818-1.145a7.659,7.659,0,0,1-.763-1.308,3.422,3.422,0,0,1-.354-.682c-.092-.236-.173-.482-.246-.736a2.223,2.223,0,0,1-.054-1.09,2.433,2.433,0,0,1,.654-1.2,4.526,4.526,0,0,1,1.145-.763,2.444,2.444,0,0,1,1.745-.436,2.305,2.305,0,0,1,1.035.218c.291.145.581.31.872.491q.49.382.953.818a8.25,8.25,0,0,1,.845.926q.436.546.818,1.009a11,11,0,0,1,.763,1.063l.164.218q1.308,1.744,2.453,3.352t2.4,3.461a3.4,3.4,0,0,1,.328.436c.145.218.308.473.49.763q.218-.381.409-.681a2.59,2.59,0,0,1,.3-.409q1.253-1.852,2.4-3.488t2.453-3.379l.109-.218a10.31,10.31,0,0,0,.79-1.008q.353-.518.79-1.063A6.176,6.176,0,0,1,384.156,267a4.559,4.559,0,0,1,1.8-.763,2.535,2.535,0,0,1,1.8.436c.218.145.426.271.626.381a2.274,2.274,0,0,1,.518.382A3.912,3.912,0,0,1,389.607,268.636Z" transform="translate(-70.916 -52.389)" fill="none" stroke="#ff6c8f" stroke-miterlimit="10" stroke-width="2"/>
        <path id="패스_5069" data-name="패스 5069" d="M430.583,295.693a3.654,3.654,0,0,1,.055,3.079,7.92,7.92,0,0,1-2.071,2.752,16.524,16.524,0,0,1-6.7,3.488,17.146,17.146,0,0,1-3.788.354,18.8,18.8,0,0,1-7.849-1.853,16.7,16.7,0,0,1-3.461-2.208,11.155,11.155,0,0,1-2.971-3.788,19.443,19.443,0,0,1-1.553-4.715,27.722,27.722,0,0,1-.517-5.042q-.029-2.535.136-4.769a20.347,20.347,0,0,1,.818-4.2,21.306,21.306,0,0,1,1.826-4.278,20.3,20.3,0,0,1,2.834-3.9,15.774,15.774,0,0,1,3.9-3.053,11.2,11.2,0,0,1,3.789-1.335,16.629,16.629,0,0,1,4.251-.164,15.242,15.242,0,0,1,4.088.927,10.135,10.135,0,0,1,3.3,1.989,11.974,11.974,0,0,1,1.826,2.126,10.006,10.006,0,0,1,1.39,2.779,4.252,4.252,0,0,1,.027,2.643,3.59,3.59,0,0,1-3.57,1.745,2.929,2.929,0,0,1-1.09-.491,5.677,5.677,0,0,1-.927-.845q-.437-.49-.818-.98a6.614,6.614,0,0,0-3.052-2.153,7.056,7.056,0,0,0-3.461-.273,7.646,7.646,0,0,0-5.532,4.278,20.541,20.541,0,0,0-1.39,4.061,21.746,21.746,0,0,0-.572,4.469,18.388,18.388,0,0,0,.409,4.388,10.3,10.3,0,0,0,1.608,3.761,7.255,7.255,0,0,0,2.153,2.125,8.5,8.5,0,0,0,2.753,1.145,8.139,8.139,0,0,0,2.971.109,8.765,8.765,0,0,0,2.916-.981,5.682,5.682,0,0,0,.954-.627q.517-.408,1.063-.845t1.117-.817a3.9,3.9,0,0,1,1.226-.545,3.379,3.379,0,0,1,2.153.055,2.969,2.969,0,0,1,1.771,1.581" transform="translate(-79.069 -52.357)" fill="#ffe6e6"/>
        <path id="패스_5070" data-name="패스 5070" d="M430.583,295.693a3.654,3.654,0,0,1,.055,3.079,7.92,7.92,0,0,1-2.071,2.752,16.524,16.524,0,0,1-6.7,3.488,17.146,17.146,0,0,1-3.788.354,18.8,18.8,0,0,1-7.849-1.853,16.7,16.7,0,0,1-3.461-2.208,11.155,11.155,0,0,1-2.971-3.788,19.443,19.443,0,0,1-1.553-4.715,27.722,27.722,0,0,1-.517-5.042q-.029-2.535.136-4.769a20.347,20.347,0,0,1,.818-4.2,21.306,21.306,0,0,1,1.826-4.278,20.3,20.3,0,0,1,2.834-3.9,15.774,15.774,0,0,1,3.9-3.053,11.2,11.2,0,0,1,3.789-1.335,16.629,16.629,0,0,1,4.251-.164,15.242,15.242,0,0,1,4.088.927,10.135,10.135,0,0,1,3.3,1.989,11.974,11.974,0,0,1,1.826,2.126,10.006,10.006,0,0,1,1.39,2.779,4.252,4.252,0,0,1,.027,2.643,3.59,3.59,0,0,1-3.57,1.745,2.929,2.929,0,0,1-1.09-.491,5.677,5.677,0,0,1-.927-.845q-.437-.49-.818-.98a6.614,6.614,0,0,0-3.052-2.153,7.056,7.056,0,0,0-3.461-.273,7.646,7.646,0,0,0-5.532,4.278,20.541,20.541,0,0,0-1.39,4.061,21.746,21.746,0,0,0-.572,4.469,18.388,18.388,0,0,0,.409,4.388,10.3,10.3,0,0,0,1.608,3.761,7.255,7.255,0,0,0,2.153,2.125,8.5,8.5,0,0,0,2.753,1.145,8.139,8.139,0,0,0,2.971.109,8.765,8.765,0,0,0,2.916-.981,5.682,5.682,0,0,0,.954-.627q.517-.408,1.063-.845t1.117-.817a3.9,3.9,0,0,1,1.226-.545,3.379,3.379,0,0,1,2.153.055A2.969,2.969,0,0,1,430.583,295.693Z" transform="translate(-79.069 -52.357)" fill="none" stroke="#f16c8e" stroke-miterlimit="10" stroke-width="2"/>
        <path id="패스_5071" data-name="패스 5071" d="M455.7,272.864l-.109,8.557h2.181q2.234-.054,3.978-.054t3.87.054h.272q.654,0,1.281.027t1.226.028a9.151,9.151,0,0,1,1.253.19q.6.136,1.2.3a3.694,3.694,0,0,1,1.526.982,2.53,2.53,0,0,1,.545,1.58v.627a1.681,1.681,0,0,1-.109.626,1.847,1.847,0,0,1-.708,1.09,1.645,1.645,0,0,1-1.035.545,6.407,6.407,0,0,1-1.418.272,7.254,7.254,0,0,1-1.526.164h-2.561l-10.083.054-.109,10.683,10.846.109h3.379a4.356,4.356,0,0,1,.709.055,4.693,4.693,0,0,0,.79.137,2.87,2.87,0,0,1,.681.136,3.17,3.17,0,0,1,1.09.6,2.6,2.6,0,0,1,.708,1.145,5.508,5.508,0,0,1,.082.573,2.484,2.484,0,0,1-.027.626,2.538,2.538,0,0,1-.545,1.581,2.935,2.935,0,0,1-1.526.981,6.307,6.307,0,0,1-2.508.49c-.4.036-.818.055-1.254.055s-.855.018-1.254.055h-.327q-4.252.108-8.829,0-1.092,0-1.745-.027c-.436-.019-.826-.027-1.172-.027h-2.48a3.148,3.148,0,0,1-2.071-.436,2.555,2.555,0,0,1-.927-1.036.469.469,0,0,1-.164-.327.64.64,0,0,0-.108-.163.6.6,0,0,1-.109-.164,2.946,2.946,0,0,1-.164-.572,3.228,3.228,0,0,1-.055-.573,5.5,5.5,0,0,1-.081-.545c-.019-.182-.046-.363-.082-.545v-.871a3.449,3.449,0,0,1,.027-.436,3.612,3.612,0,0,0,.027-.436v-4.251l.108-7.849v-7.249q0-1.963.027-3.488t.082-3.324v-.273q.054-.6.082-1.117t.027-1.063a5.051,5.051,0,0,1,.6-2.126,4.98,4.98,0,0,1,.463-.763,1.877,1.877,0,0,1,.682-.545,3.233,3.233,0,0,1,1.689-.492,2.915,2.915,0,0,1,.655.055v-.055h2.752c.382,0,.79-.008,1.226-.027s1.036-.027,1.8-.027q2.179-.054,4.142-.055t4.034.055h.218c.4.037.818.054,1.254.054s.854.019,1.254.055a5.454,5.454,0,0,1,1.2.136,10.313,10.313,0,0,1,1.2.354,3.282,3.282,0,0,1,1.526.927,2.807,2.807,0,0,1,.491,1.526v.626a1.533,1.533,0,0,1-.109.573,1.979,1.979,0,0,1-.654,1.145,4.472,4.472,0,0,0-.463.272,2.365,2.365,0,0,1-.573.272,2.747,2.747,0,0,1-.681.137c-.237.019-.463.047-.681.082a3.233,3.233,0,0,1-.79.109H466.6l-10.9.055Z" transform="translate(-88.223 -52.42)" fill="#ffe6e6"/>
        <path id="패스_5072" data-name="패스 5072" d="M455.7,272.864l-.109,8.557h2.181q2.234-.054,3.978-.054t3.87.054h.272q.654,0,1.281.027t1.226.028a9.151,9.151,0,0,1,1.253.19q.6.136,1.2.3a3.694,3.694,0,0,1,1.526.982,2.53,2.53,0,0,1,.545,1.58v.627a1.681,1.681,0,0,1-.109.626,1.847,1.847,0,0,1-.708,1.09,1.645,1.645,0,0,1-1.035.545,6.407,6.407,0,0,1-1.418.272,7.254,7.254,0,0,1-1.526.164h-2.561l-10.083.054-.109,10.683,10.846.109h3.379a4.356,4.356,0,0,1,.709.055,4.693,4.693,0,0,0,.79.137,2.87,2.87,0,0,1,.681.136,3.17,3.17,0,0,1,1.09.6,2.6,2.6,0,0,1,.708,1.145,5.508,5.508,0,0,1,.082.573,2.484,2.484,0,0,1-.027.626,2.538,2.538,0,0,1-.545,1.581,2.935,2.935,0,0,1-1.526.981,6.307,6.307,0,0,1-2.508.49c-.4.036-.818.055-1.254.055s-.855.018-1.254.055h-.327q-4.252.108-8.829,0-1.092,0-1.745-.027c-.436-.019-.826-.027-1.172-.027h-2.48a3.148,3.148,0,0,1-2.071-.436,2.555,2.555,0,0,1-.927-1.036.469.469,0,0,1-.164-.327.64.64,0,0,0-.108-.163.6.6,0,0,1-.109-.164,2.946,2.946,0,0,1-.164-.572,3.228,3.228,0,0,1-.055-.573,5.5,5.5,0,0,1-.081-.545c-.019-.182-.046-.363-.082-.545v-.871a3.449,3.449,0,0,1,.027-.436,3.612,3.612,0,0,0,.027-.436v-4.251l.108-7.849v-7.249q0-1.963.027-3.488t.082-3.324v-.273q.054-.6.082-1.117t.027-1.063a5.051,5.051,0,0,1,.6-2.126,4.98,4.98,0,0,1,.463-.763,1.877,1.877,0,0,1,.682-.545,3.233,3.233,0,0,1,1.689-.492,2.915,2.915,0,0,1,.655.055v-.055h2.752c.382,0,.79-.008,1.226-.027s1.036-.027,1.8-.027q2.179-.054,4.142-.055t4.034.055h.218c.4.037.818.054,1.254.054s.854.019,1.254.055a5.454,5.454,0,0,1,1.2.136,10.313,10.313,0,0,1,1.2.354,3.282,3.282,0,0,1,1.526.927,2.807,2.807,0,0,1,.491,1.526v.626a1.533,1.533,0,0,1-.109.573,1.979,1.979,0,0,1-.654,1.145,4.472,4.472,0,0,0-.463.272,2.365,2.365,0,0,1-.573.272,2.747,2.747,0,0,1-.681.137c-.237.019-.463.047-.681.082a3.233,3.233,0,0,1-.79.109H466.6l-10.9.055Z" transform="translate(-88.223 -52.42)" fill="none" stroke="#f16c8e" stroke-miterlimit="10" stroke-width="2"/>
        <path id="패스_5073" data-name="패스 5073" d="M616.832,463.439,605.01,445.851l-11.822-17.587h47.289l-11.822,17.588Z" transform="translate(-116.755 -84.294)" fill="#d6b1dd" fill-rule="evenodd"/>
        <path id="패스_5074" data-name="패스 5074" d="M616.275,463.592l-11.818-17.581-11.823-17.587a.514.514,0,0,1,.427-.8v0h47.289a.516.516,0,0,1,.4.837l-11.8,17.552L617.134,463.6a.514.514,0,0,1-.713.141.507.507,0,0,1-.145-.147m-10.964-18.153,11.4,16.953,11.4-16.953,11.284-16.786H594.027Z" transform="translate(-116.629 -84.167)" fill="#3c3344" fill-rule="evenodd"/>
        <path id="패스_5075" data-name="패스 5075" d="M640.712,426.053l-5.939-4.2-5.94-4.2H605.075l-5.939,4.2-5.939,4.2,5.939,4.2,5.939,4.2h23.759l5.94-4.2Z" transform="translate(-116.757 -82.206)" fill="#f1d3f8" fill-rule="evenodd"/>
        <path id="패스_5076" data-name="패스 5076" d="M639.695,425.927l-5.344-3.776-5.806-4.1H605.111l-5.805,4.1-5.344,3.776,5.344,3.776,5.805,4.1h23.434l5.806-4.1Zm-4.752-4.618,5.931,4.191a.5.5,0,0,1,.133.131.515.515,0,0,1-.124.717l-5.94,4.2-5.915,4.179a.512.512,0,0,1-.321.112H604.949a.512.512,0,0,1-.3-.094l-5.94-4.2-5.93-4.191a.506.506,0,0,1-.134-.131.515.515,0,0,1,.125-.717l5.939-4.2,5.915-4.179a.512.512,0,0,1,.321-.112h23.759a.507.507,0,0,1,.3.094Z" transform="translate(-116.631 -82.08)" fill="#3c3344" fill-rule="evenodd"/>
        <path id="패스_5077" data-name="패스 5077" d="M646.545,427.105l-.214-.151-23.5-3.948,11.921,12.434L640.6,431.3Z" transform="translate(-122.59 -83.259)" fill="#d6c5e8" fill-rule="evenodd"/>
        <path id="패스_5078" data-name="패스 5078" d="M646.5,426.407l.2.145a.5.5,0,0,1,.133.131.515.515,0,0,1-.124.717l-5.94,4.2-5.854,4.138h0a.515.515,0,0,1-.667-.063l-11.908-12.421a.515.515,0,0,1,.443-.877l23.49,3.946a.5.5,0,0,1,.222.089m-1.268.779-21.084-3.542,10.539,10.993,5.494-3.883Z" transform="translate(-122.464 -83.133)" fill="#3c3344" fill-rule="evenodd"/>
        <path id="패스_5079" data-name="패스 5079" d="M631.595,417.86H608.337l11.466,4.164Z" transform="translate(-119.737 -82.246)" fill="#d6b1dd" fill-rule="evenodd"/>
        <path id="패스_5080" data-name="패스 5080" d="M628.462,418.249H611.137l8.541,3.1Zm-20.251-1.031h23.258a.515.515,0,0,1,.171,1l-11.791,4.164h0a.507.507,0,0,1-.346,0l-11.431-4.15a.516.516,0,0,1,.14-1.012" transform="translate(-119.611 -82.12)" fill="#3c3344" fill-rule="evenodd"/>
        <path id="패스_5081" data-name="패스 5081" d="M607.8,435.4l.153.108h23.758l.025-.018-2.159-2.237-9.853-10.21-9.852,10.21Z" transform="translate(-119.631 -83.266)" fill="#f7e4fc" fill-rule="evenodd"/>
        <path id="패스_5082" data-name="패스 5082" d="M607.527,435.8l-.153-.108a.574.574,0,0,1-.06-.05.515.515,0,0,1-.015-.728l2.072-2.146,9.852-10.21.014-.014a.514.514,0,0,1,.727.014l9.852,10.21,2.159,2.236h0a.6.6,0,0,1,.049.06.537.537,0,0,1-.443.829H607.823a.512.512,0,0,1-.3-.094m1.252-.936H630.41l-1.333-1.381-9.482-9.826-9.481,9.826Z" transform="translate(-119.505 -83.14)" fill="#3c3344" fill-rule="evenodd"/>
        <path id="패스_5083" data-name="패스 5083" d="M619.529,465.313l-8.077-17.588-4.564-9.939.882.623h23.759l.527-.373-4.45,9.69Z" transform="translate(-119.452 -86.168)" fill="#f1d3f8" fill-rule="evenodd"/>
        <path id="패스_5084" data-name="패스 5084" d="M618.935,465.4l-8.076-17.587-4.565-9.94a.514.514,0,0,1,.763-.634h0l.749.529H631.24l.393-.278a.514.514,0,0,1,.749.664l-4.435,9.66L619.87,465.4a.514.514,0,0,1-.935,0m-7.141-18.014,7.609,16.57,7.61-16.57,3.943-8.587H607.849Z" transform="translate(-119.326 -86.042)" fill="#3c3344" fill-rule="evenodd"/>
        <path id="패스_5085" data-name="패스 5085" d="M593.043,427.105l.214-.151,23.5-3.948-11.921,12.434-5.854-4.138Z" transform="translate(-116.727 -83.259)" fill="#e5cff1" fill-rule="evenodd"/>
        <path id="패스_5086" data-name="패스 5086" d="M592.629,426.552l.2-.145a.5.5,0,0,1,.223-.088l23.49-3.947a.515.515,0,0,1,.443.877L605.083,435.67a.515.515,0,0,1-.667.064l-5.855-4.138-5.94-4.2a.515.515,0,0,1-.125-.717.5.5,0,0,1,.133-.131m.428-.233.494.213a.514.514,0,0,0-.494-.213m22.129-2.675L594.1,427.186l5.051,3.569,5.494,3.883Z" transform="translate(-116.601 -83.133)" fill="#3c3344" fill-rule="evenodd"/>
        <path id="패스_5087" data-name="패스 5087" d="M608.814,416l11.477-42.816L631.12,416Z" transform="translate(-119.831 -73.454)" fill="#f1d3f8" fill-rule="evenodd"/>
        <path id="패스_5088" data-name="패스 5088" d="M608.814,416l11.477-42.816L631.12,416Z" transform="translate(-119.831 -73.454)" fill="none" stroke="#3c3344" stroke-linecap="round" stroke-linejoin="round" stroke-width="1.5"/>
        <path id="패스_5089" data-name="패스 5089" d="M593.78,407.257,605.855,416l11.477-42.816Z" transform="translate(-116.872 -73.454)" fill="#f1d3f8" fill-rule="evenodd"/>
        <path id="패스_5090" data-name="패스 5090" d="M593.78,407.257,605.855,416l11.477-42.816Z" transform="translate(-116.872 -73.454)" fill="none" stroke="#3c3344" stroke-linecap="round" stroke-linejoin="round" stroke-width="1.5"/>
        <path id="패스_5091" data-name="패스 5091" d="M646.008,407.257,633.933,416,623.1,373.189Z" transform="translate(-122.643 -73.454)" fill="#f1d3f8" fill-rule="evenodd"/>
        <path id="패스_5092" data-name="패스 5092" d="M646.008,407.257,633.933,416,623.1,373.189Z" transform="translate(-122.643 -73.454)" fill="none" stroke="#3c3344" stroke-linecap="round" stroke-linejoin="round" stroke-width="1.5"/>
        <path id="패스_5093" data-name="패스 5093" d="M758.769,220.639H726.012c-2.881,0-5.216,1.606-5.216,3.586v44.636c0,1.981,2.335,3.587,5.216,3.587h32.757c2.88,0,5.215-1.606,5.215-3.587V224.225c0-1.981-2.335-3.586-5.215-3.586" transform="translate(-141.872 -43.428)" fill="#f08fa2"/>
        <path id="패스_5094" data-name="패스 5094" d="M758.769,220.639H726.012c-2.881,0-5.216,1.606-5.216,3.586v44.636c0,1.981,2.335,3.587,5.216,3.587h32.757c2.88,0,5.215-1.606,5.215-3.587V224.225C763.984,222.245,761.649,220.639,758.769,220.639Z" transform="translate(-141.872 -43.428)" fill="none" stroke="#3c3344" stroke-miterlimit="10" stroke-width="2"/>
        <path id="패스_5095" data-name="패스 5095" d="M792.388,230.662H773.068c-1.7,0-3.075.973-3.075,2.174V259.9c0,1.2,1.377,2.175,3.075,2.175h19.319c1.7,0,3.075-.973,3.075-2.175V232.836c0-1.2-1.377-2.174-3.075-2.174" transform="translate(-151.555 -45.4)" fill="#fed9a2"/>
        <path id="패스_5096" data-name="패스 5096" d="M792.388,230.662H773.068c-1.7,0-3.075.973-3.075,2.174V259.9c0,1.2,1.377,2.175,3.075,2.175h19.319c1.7,0,3.075-.973,3.075-2.175V232.836C795.463,231.635,794.087,230.662,792.388,230.662Z" transform="translate(-151.555 -45.4)" fill="none" stroke="#3c3344" stroke-linecap="round" stroke-linejoin="round" stroke-width="2"/>
        <path id="패스_5097" data-name="패스 5097" d="M762.162,251.429h-6.777v-36.9a2.426,2.426,0,0,1,2.427-2.426h1.924a2.426,2.426,0,0,1,2.426,2.426Z" transform="translate(-148.68 -41.747)" fill="#fff"/>
        <path id="패스_5098" data-name="패스 5098" d="M762.162,251.429h-6.777v-36.9a2.426,2.426,0,0,1,2.427-2.426h1.924a2.426,2.426,0,0,1,2.426,2.426Z" transform="translate(-148.68 -41.747)" fill="none" stroke="#3c3344" stroke-linecap="round" stroke-linejoin="round" stroke-width="2"/>
        <path id="패스_5099" data-name="패스 5099" d="M786.589,263.74H713.456a2.536,2.536,0,0,1-2.536-2.536v-2.01a2.536,2.536,0,0,1,2.536-2.536h73.134a2.535,2.535,0,0,1,2.536,2.536v2.01a2.535,2.535,0,0,1-2.536,2.536" transform="translate(-139.928 -50.517)" fill="#fff"/>
        <rect id="사각형_384" data-name="사각형 384" width="78.205" height="7.081" rx="3.157" transform="translate(570.992 206.142)" fill="none" stroke="#3c3344" stroke-linecap="round" stroke-linejoin="round" stroke-width="2"/>
        <path id="패스_5100" data-name="패스 5100" d="M778.58,299.657H723.2l-7.872-34.181h71.123Z" transform="translate(-140.796 -52.253)" fill="#e6fbff"/>
        <path id="패스_5101" data-name="패스 5101" d="M778.58,299.657H723.2l-7.872-34.181h71.123Z" transform="translate(-140.796 -52.253)" fill="none" stroke="#3c3344" stroke-miterlimit="10" stroke-width="2"/>
        <path id="패스_5102" data-name="패스 5102" d="M764.886,259.353a7,7,0,1,1-7-7,7,7,0,0,1,7,7" transform="translate(-147.796 -49.671)" fill="#fff"/>
        <circle id="타원_138" data-name="타원 138" cx="6.996" cy="6.996" r="6.996" transform="translate(602.068 203.897) rotate(-9.217)" fill="none" stroke="#3c3344" stroke-linecap="round" stroke-linejoin="round" stroke-width="2"/>
        <line id="선_291" data-name="선 291" x2="6.736" transform="translate(584.667 184.257)" fill="none" stroke="#3c3344" stroke-linecap="round" stroke-linejoin="round" stroke-width="3"/>
        <line id="선_292" data-name="선 292" x2="4.093" transform="translate(584.667 189.524)" fill="none" stroke="#3c3344" stroke-linecap="round" stroke-linejoin="round" stroke-width="3"/>
        <line id="선_293" data-name="선 293" x1="3.282" y2="16.511" transform="translate(628.872 222.058)" fill="none" stroke="#3c3344" stroke-linecap="round" stroke-linejoin="round" stroke-width="2"/>
        <line id="선_294" data-name="선 294" x1="3.282" y1="16.511" transform="translate(588.035 222.058)" fill="none" stroke="#3c3344" stroke-linecap="round" stroke-linejoin="round" stroke-width="2"/>
        <line id="선_295" data-name="선 295" x1="1.094" y1="16.511" transform="translate(602.741 222.058)" fill="none" stroke="#3c3344" stroke-linecap="round" stroke-linejoin="round" stroke-width="2"/>
        <line id="선_296" data-name="선 296" y1="16.511" x2="1.094" transform="translate(616.353 222.058)" fill="none" stroke="#3c3344" stroke-linecap="round" stroke-linejoin="round" stroke-width="2"/>
        <path id="패스_5103" data-name="패스 5103" d="M670.787,12.8H634.348a6.078,6.078,0,0,0-6.078,6.078V95.314a6.078,6.078,0,0,0,6.078,6.078h36.439a6.078,6.078,0,0,0,6.078-6.078V18.877a6.078,6.078,0,0,0-6.078-6.078" transform="translate(-123.66 -2.519)" fill="#4b87dd"/>
        <rect id="사각형_385" data-name="사각형 385" width="48.594" height="88.592" rx="7.567" transform="translate(504.61 10.28)" fill="none" stroke="#3c3344" stroke-miterlimit="10" stroke-width="2"/>
        <path id="패스_5104" data-name="패스 5104" d="M633.368,20.7V95.1a3.817,3.817,0,0,0,3.817,3.817h32.773a3.815,3.815,0,0,0,3.815-3.815V20.695a3.816,3.816,0,0,0-3.815-3.816H637.185a3.827,3.827,0,0,0-3.817,3.817" transform="translate(-124.664 -3.322)" fill="#eef6ff"/>
        <line id="선_297" data-name="선 297" x2="6.42" transform="translate(525.697 19.072)" fill="none" stroke="#3c3344" stroke-linecap="round" stroke-linejoin="round" stroke-width="2"/>
        <path id="패스_5105" data-name="패스 5105" d="M662.921,64.464q0-1.13-.008-2.328t-.009-2.317q0-.937-.017-1.857c-.01-.6-.016-1.211-.016-1.826,0-.088,0-.178-.011-.267s-.017-.165-.027-.237a2.806,2.806,0,0,0-.112-.511l-.034-.092a1.81,1.81,0,0,0-.393-.55,1.4,1.4,0,0,0-.79-.38c-.085-.014-.17-.025-.264-.034s-.185-.01-.3-.01a1.659,1.659,0,0,0-1,.349,3.873,3.873,0,0,0-.615.572,5.462,5.462,0,0,0-.486.64c-.13.2-.236.373-.3.49q-.289.459-.5.814-.2.333-.38.608l-.361.555-.126.2c-.219-.373-.466-.78-.733-1.212l-.239-.392c-.091-.147-.186-.3-.289-.46s-.209-.318-.315-.471a4.566,4.566,0,0,0-.353-.453,5.981,5.981,0,0,1-.4-.49,1.759,1.759,0,0,0-1.086-.7c-.086-.014-.175-.026-.277-.034a2.075,2.075,0,0,0-1.237.258,1.779,1.779,0,0,0-.662.756,2.772,2.772,0,0,0-.15.429,1.937,1.937,0,0,0-.066.488c-.067.944-.1,1.917-.1,2.895l-.033,6.072c0,.166,0,.326.009.479s.014.312.034.54a2.677,2.677,0,0,0,.2.662,1.638,1.638,0,0,0,.688.773,2.088,2.088,0,0,0,.97.259c.031,0,.063,0,.093,0a1.81,1.81,0,0,0,.924-.3,1.891,1.891,0,0,0,.614-.67,1.855,1.855,0,0,0,.233-.911h0a4.872,4.872,0,0,0,.034-.5c.01-.353.018-.792.025-1.32l.016-1.685c0-.29,0-.573.006-.845.178.238.337.445.471.609a2.061,2.061,0,0,0,.275.331,3.689,3.689,0,0,0,.3.267,2.284,2.284,0,0,0,.4.259,1.166,1.166,0,0,0,.68.132,1.838,1.838,0,0,0,.793-.247,2.73,2.73,0,0,0,.727-.669c.118-.145.25-.322.394-.528l.014,3.846a3.111,3.111,0,0,0,.067.649,2.55,2.55,0,0,0,.231.642,1.744,1.744,0,0,0,.618.662l.1.057a2.38,2.38,0,0,0,.607.177,1.679,1.679,0,0,0,.739-.055,1.392,1.392,0,0,0,.742-.328,1.458,1.458,0,0,0,.468-.611,2.333,2.333,0,0,0,.178-.608q.037-.243.056-.469l0-.018a5.149,5.149,0,0,0,0-.63c-.01-.159-.015-.308-.015-.447" transform="translate(-128.179 -10.639)" fill="#d3bb6e"/>
        <path id="패스_5106" data-name="패스 5106" d="M662.921,63.964q0-1.13-.008-2.328t-.009-2.317q0-.937-.017-1.857c-.01-.6-.016-1.211-.016-1.826,0-.088,0-.178-.011-.267s-.017-.165-.027-.237a2.806,2.806,0,0,0-.112-.511l-.034-.092a1.81,1.81,0,0,0-.393-.55,1.4,1.4,0,0,0-.79-.38c-.085-.014-.17-.025-.264-.034s-.185-.01-.3-.01a1.659,1.659,0,0,0-1,.349,3.873,3.873,0,0,0-.615.572,5.462,5.462,0,0,0-.486.64c-.13.2-.236.373-.3.49q-.289.459-.5.814-.2.333-.38.608l-.361.555-.126.2c-.219-.373-.466-.78-.733-1.212l-.239-.392c-.091-.147-.186-.3-.289-.46s-.209-.318-.315-.471a4.566,4.566,0,0,0-.353-.453,5.981,5.981,0,0,1-.4-.49,1.759,1.759,0,0,0-1.086-.7c-.086-.014-.175-.026-.277-.034a2.075,2.075,0,0,0-1.237.258,1.779,1.779,0,0,0-.662.756,2.772,2.772,0,0,0-.15.429,1.938,1.938,0,0,0-.066.488c-.067.944-.1,1.917-.1,2.895l-.033,6.072c0,.166,0,.326.009.479s.014.312.034.54a2.677,2.677,0,0,0,.2.662,1.638,1.638,0,0,0,.688.773,2.088,2.088,0,0,0,.97.259c.031,0,.063,0,.093,0a1.81,1.81,0,0,0,.924-.3,1.891,1.891,0,0,0,.614-.67,1.855,1.855,0,0,0,.233-.911h0a4.873,4.873,0,0,0,.034-.5c.01-.353.018-.792.025-1.32l.016-1.685c0-.29,0-.573.006-.845.178.238.337.445.471.609a2.061,2.061,0,0,0,.275.331,3.687,3.687,0,0,0,.3.267,2.284,2.284,0,0,0,.4.259,1.166,1.166,0,0,0,.68.132,1.837,1.837,0,0,0,.793-.247,2.73,2.73,0,0,0,.727-.669c.118-.145.25-.322.394-.528l.014,3.846a3.111,3.111,0,0,0,.067.649,2.55,2.55,0,0,0,.231.642,1.744,1.744,0,0,0,.618.662l.1.057a2.38,2.38,0,0,0,.607.178,1.679,1.679,0,0,0,.739-.055,1.392,1.392,0,0,0,.742-.328,1.458,1.458,0,0,0,.468-.611,2.333,2.333,0,0,0,.178-.608q.037-.243.056-.469l0-.018a5.149,5.149,0,0,0,0-.63c-.01-.159-.015-.308-.015-.447" transform="translate(-128.179 -10.541)" fill="#fdc374"/>
        <path id="패스_5107" data-name="패스 5107" d="M668.994,59.14a13.847,13.847,0,0,1-13.848,13.848c-18.368-.729-18.363-26.968,0-27.694A13.847,13.847,0,0,1,668.994,59.14Z" transform="translate(-126.239 -8.915)" fill="none" stroke="#fdc374" stroke-linecap="round" stroke-linejoin="round" stroke-width="1" stroke-dasharray="2.006 2.006 2.006 2.006 2.006 2.006"/>
        <rect id="사각형_386" data-name="사각형 386" width="56.303" height="27.109" transform="translate(472.604 62.883)" fill="#ff7767"/>
        <rect id="사각형_387" data-name="사각형 387" width="56.303" height="27.109" transform="translate(472.604 62.883)" fill="none" stroke="#3e3160" stroke-linecap="round" stroke-linejoin="round" stroke-width="3"/>
        <line id="선_298" data-name="선 298" x2="44.208" transform="translate(479.416 69.973)" fill="none" stroke="#fff" stroke-linejoin="round" stroke-width="2"/>
        <line id="선_299" data-name="선 299" x2="36.98" transform="translate(486.645 76.437)" fill="none" stroke="#fff" stroke-linejoin="round" stroke-width="2"/>
        <line id="선_300" data-name="선 300" x2="4.032" transform="translate(479.416 76.437)" fill="none" stroke="#fff" stroke-linejoin="round" stroke-width="2"/>
        <line id="선_301" data-name="선 301" x2="37.397" transform="translate(479.416 82.901)" fill="none" stroke="#fff" stroke-linejoin="round" stroke-width="2"/>
        <line id="선_302" data-name="선 302" x2="3.406" transform="translate(520.218 82.901)" fill="none" stroke="#fff" stroke-linejoin="round" stroke-width="2"/>
        <rect id="사각형_388" data-name="사각형 388" width="56.303" height="27.109" transform="translate(542.728 27.438)" fill="#fed9a2"/>
        <rect id="사각형_389" data-name="사각형 389" width="56.303" height="27.109" transform="translate(542.728 27.438)" fill="none" stroke="#3e3160" stroke-linecap="round" stroke-linejoin="round" stroke-width="3"/>
        <line id="선_303" data-name="선 303" x2="44.208" transform="translate(549.54 34.528)" fill="none" stroke="#fff" stroke-linejoin="round" stroke-width="2"/>
        <line id="선_304" data-name="선 304" x2="36.98" transform="translate(556.769 40.992)" fill="none" stroke="#fff" stroke-linejoin="round" stroke-width="2"/>
        <line id="선_305" data-name="선 305" x2="4.032" transform="translate(549.54 40.992)" fill="none" stroke="#fff" stroke-linejoin="round" stroke-width="2"/>
        <line id="선_306" data-name="선 306" x2="37.397" transform="translate(549.54 47.457)" fill="none" stroke="#fff" stroke-linejoin="round" stroke-width="2"/>
        <line id="선_307" data-name="선 307" x2="3.406" transform="translate(590.342 47.457)" fill="none" stroke="#fff" stroke-linejoin="round" stroke-width="2"/>
      </g>
    </g>
  </g>
  <rect id="사각형_391" data-name="사각형 391" width="650" height="419" fill="none"/>
</svg>
