<svg id="logo_myce_5" xmlns="http://www.w3.org/2000/svg" xmlns:xlink="http://www.w3.org/1999/xlink" width="32" height="32" viewBox="0 0 32 32">
  <defs>
    <clipPath id="clip-path">
      <rect id="사각형_296" data-name="사각형 296" width="25.75" height="28.828" transform="translate(0 0)" fill="none"/>
    </clipPath>
  </defs>
  <g id="그룹_500" data-name="그룹 500" transform="translate(3 2)">
    <g id="그룹_499" data-name="그룹 499" clip-path="url(#clip-path)">
      <path id="패스_3720" data-name="패스 3720" d="M25.739,7.465a.109.109,0,0,0-.006-.044c-.008-.013-.023-.016-.034-.025s0-.016-.012-.02L12.942.016a.127.127,0,0,0-.125,0L.063,7.379A.124.124,0,0,0,0,7.487V21.342a.124.124,0,0,0,.063.108l.75.435c.012.007.026,0,.04,0s.032.032.054.032A.126.126,0,0,0,.966,21.9L3,20.807v2.266a.125.125,0,0,0,.062.109l2.251,1.3a.136.136,0,0,0,.062.016A.153.153,0,0,0,5.4,24.49h0a.137.137,0,0,0,.058-.014L7.5,23.4v2.268a.124.124,0,0,0,.063.108l2.249,1.3a.132.132,0,0,0,.063.017.126.126,0,0,0,.062-.017c.013-.007.011-.024.02-.034s.021.021.035.021a.126.126,0,0,0,.059-.015l1.646-.887L11.7,28.1a.124.124,0,0,0,.063.108l1.047.605a.144.144,0,0,0,.063.016.136.136,0,0,0,.062-.016l12.75-7.362a.124.124,0,0,0,.063-.108V7.484c0-.007-.01-.011-.011-.019M10,26.794V13.187L19.5,7.7V9.567c0,.014.01.022.014.034l-7.785,4.511a.127.127,0,0,0-.062.109L11.7,25.88ZM15.232,4.918c0-.012.018-.018.018-.031a.128.128,0,0,0-.062-.109L13,3.516V1.2L23.52,7.279,19.75,9.464V7.555c0-.016-.011-.027-.017-.041s.017-.017.017-.03a.127.127,0,0,0-.062-.108l-2.25-1.3a.132.132,0,0,0-.125,0l-2.087,1.2a.12.12,0,0,0,.024-.058V4.961c0-.017-.012-.029-.018-.043M1,7.99,12.75,1.2V3.516L3.062,9.109c-.007,0-.005.014-.011.019s-.027.013-.034.026a.109.109,0,0,0-.006.044C3.01,9.2,3,9.209,3,9.217V20.523L1,21.6Zm4.5,2.6L15,5.1v2.12a.123.123,0,0,0,.117.121L7.563,11.707c-.008,0-.006.015-.012.02s-.027.012-.034.026a.107.107,0,0,0-.006.043c0,.008-.011.012-.011.02V23.121l-2,1.053Z" fill="#f8842f"/>
    </g>
  </g>
  <rect id="사각형_298" data-name="사각형 298" width="32" height="32" fill="none"/>
</svg>
