<svg id="logo_myce_2" xmlns="http://www.w3.org/2000/svg" width="96" height="32" viewBox="0 0 96 32">
  <rect id="사각형_4" data-name="사각형 4" width="96" height="32" fill="none"/>
  <g id="레이어_2" data-name="레이어 2" transform="translate(0.327)">
    <g id="레이어_1" data-name="레이어 1">
      <path id="패스_101" data-name="패스 101" d="M63.153,43.281,48.83,51.507V36.087L63.153,27.73Z" transform="translate(-34.35 -19.507)" fill="#777"/>
      <path id="패스_102" data-name="패스 102" d="M60.128,8.843l1.154-.62L47.006,0,46.17.528Z" transform="translate(-32.479)" fill="#777"/>
      <path id="패스_103" data-name="패스 103" d="M.29,8.321l.919.454L14.729.99,14.723,0Z" transform="translate(-0.204)" fill="#777"/>
      <path id="패스_104" data-name="패스 104" d="M11.94,19.237l2.441,1.376L25.252,14.3,22.874,12.93Z" transform="translate(-8.399 -9.096)" fill="#777"/>
      <path id="패스_105" data-name="패스 105" d="M28.41,28.787l2.441,1.376,10.874-6.31L39.344,22.48Z" transform="translate(-19.985 -15.814)" fill="#777"/>
      <path id="패스_106" data-name="패스 106" d="M0,42.9l1.02.664L1.005,28.514.086,28.06Z" transform="translate(0 -19.739)" fill="#777"/>
      <path id="패스_107" data-name="패스 107" d="M44.666,68.724l1.2.813V54.063l-1.251-.7Z" transform="translate(-31.381 -37.536)" fill="#777"/>
      <path id="패스_108" data-name="패스 108" d="M28.41,58.963l2.458,1.667-.018-15.5L28.41,43.75Z" transform="translate(-19.985 -30.776)" fill="#777"/>
      <path id="패스_109" data-name="패스 109" d="M11.94,49.422,14.4,51.088l-.018-15.512L11.94,34.2Z" transform="translate(-8.399 -24.058)" fill="#777"/>
      <path id="패스_110" data-name="패스 110" d="M60.184,26.021,58.927,25.3,44.61,33.621l1.254.756Z" transform="translate(-31.381 -17.797)" fill="#777"/>
      <path id="패스_111" data-name="패스 111" d="M137.909,42.473l-3.621-9.489v9.489H131V26.19h3.437l4.878,12.751L144.2,26.19h3.437V42.473h-3.289V32.984l-3.624,9.489Z" transform="translate(-92.953 -18.424)" fill="#777"/>
      <path id="패스_112" data-name="패스 112" d="M202.3,26.19h3.52l-5.166,9.86v6.423h-3.378V36.05l-5.145-9.86h3.52l3.312,6.96Z" transform="translate(-135.955 -18.424)" fill="#777"/>
      <path id="패스_113" data-name="패스 113" d="M240.9,27.423a5.774,5.774,0,0,1,5-2.2c3.855,0,6.174,2.266,6.382,5.848h-3.378c-.122-1.874-1.151-3.007-3-3.007a2.626,2.626,0,0,0-2.346,1.133c-.578.845-.824,2.058-.824,4.448s.246,3.624.824,4.466a2.626,2.626,0,0,0,2.346,1.133c1.853,0,2.882-1.133,3-3h3.381c-.208,3.582-2.512,5.845-6.382,5.845a5.774,5.774,0,0,1-5-2.2c-1.213-1.6-1.563-3.808-1.563-6.227S239.687,29.028,240.9,27.423Z" transform="translate(-169.165 -17.741)" fill="#777"/>
      <path id="패스_114" data-name="패스 114" d="M289.79,26.19H299.9v2.82h-6.732v3.707h5.88v2.82h-5.88v4.116H300v2.82H289.79Z" transform="translate(-204.655 -18.424)" fill="#777"/>
    </g>
  </g>
</svg>
