<svg id="logo_myce" xmlns="http://www.w3.org/2000/svg" width="120" height="40" viewBox="0 0 120 40">
  <rect id="사각형_4" data-name="사각형 4" width="120" height="40" fill="none"/>
  <g id="logo" transform="translate(0.409)">
    <g id="레이어_2" data-name="레이어 2" transform="translate(-17 -20)">
      <g id="레이어_1" data-name="레이어 1" transform="translate(17 20)">
        <path id="패스_101" data-name="패스 101" d="M66.734,47.168,48.83,57.451V38.176l17.9-10.446Z" transform="translate(-30.73 -17.451)" fill="#232323"/>
        <path id="패스_102" data-name="패스 102" d="M63.618,11.054l1.442-.775L47.215,0,46.17.66Z" transform="translate(-29.056)" fill="#232323"/>
        <path id="패스_103" data-name="패스 103" d="M.29,10.4l1.149.567,16.9-9.73L18.331,0Z" transform="translate(-0.183)" fill="#232323"/>
        <path id="패스_104" data-name="패스 104" d="M11.94,20.814l3.051,1.72L28.58,14.646,25.607,12.93Z" transform="translate(-7.514 -8.137)" fill="#232323"/>
        <path id="패스_105" data-name="패스 105" d="M28.41,30.364l3.051,1.72L45.053,24.2,42.077,22.48Z" transform="translate(-17.879 -14.147)" fill="#232323"/>
        <path id="패스_106" data-name="패스 106" d="M0,46.612l1.275.83L1.257,28.627.107,28.06Z" transform="translate(0 -17.659)" fill="#232323"/>
        <path id="패스_107" data-name="패스 107" d="M44.68,72.565l1.494,1.016V54.239L44.61,53.36Z" transform="translate(-28.074 -33.581)" fill="#232323"/>
        <path id="패스_108" data-name="패스 108" d="M28.41,62.766l3.073,2.083L31.461,45.47,28.41,43.75Z" transform="translate(-17.879 -27.533)" fill="#232323"/>
        <path id="패스_109" data-name="패스 109" d="M11.94,53.227l3.073,2.083-.022-19.39L11.94,34.2Z" transform="translate(-7.514 -21.523)" fill="#232323"/>
        <path id="패스_110" data-name="패스 110" d="M64.078,26.2l-1.572-.9L44.61,35.7l1.568.945Z" transform="translate(-28.074 -15.922)" fill="#232323"/>
        <path id="패스_111" data-name="패스 111" d="M139.637,46.544l-4.526-11.862V46.544H131V26.19h4.3l6.1,15.939,6.1-15.939h4.3V46.544h-4.111V34.682l-4.53,11.862Z" transform="translate(-83.441 -16.482)" fill="#232323"/>
        <path id="패스_112" data-name="패스 112" d="M204.841,26.19h4.4l-6.457,12.325v8.029h-4.222V38.515L192.13,26.19h4.4l4.14,8.7Z" transform="translate(-121.911 -16.482)" fill="#232323"/>
        <path id="패스_113" data-name="패스 113" d="M241.29,27.974c1.312-1.75,3.269-2.754,6.253-2.754,4.819,0,7.718,2.832,7.977,7.31H251.3c-.152-2.343-1.438-3.759-3.755-3.759a3.283,3.283,0,0,0-2.932,1.416c-.723,1.056-1.03,2.573-1.03,5.56s.308,4.53,1.03,5.582a3.283,3.283,0,0,0,2.932,1.416c2.317,0,3.6-1.416,3.755-3.755h4.226c-.259,4.478-3.14,7.306-7.977,7.306-2.984,0-4.941-1-6.253-2.754-1.516-2.005-1.953-4.76-1.953-7.784S239.774,29.98,241.29,27.974Z" transform="translate(-151.622 -15.871)" fill="#232323"/>
        <path id="패스_114" data-name="패스 114" d="M289.79,26.19h12.633v3.525h-8.414v4.633h7.351v3.525h-7.351v5.145h8.544v3.525H289.79Z" transform="translate(-183.371 -16.482)" fill="#232323"/>
      </g>
    </g>
  </g>
</svg>
