<svg xmlns="http://www.w3.org/2000/svg" width="522" height="370" viewBox="0 0 522 370">
  <g id="m_img_platform" transform="translate(-804 -2641)">
    <rect id="사각형_767" data-name="사각형 767" width="520" height="369" transform="translate(805 2642)" fill="none"/>
    <g id="img_platform" transform="translate(805 2642)">
      <g id="그룹_558" data-name="그룹 558" transform="translate(0)">
        <path id="패스_14609" data-name="패스 14609" d="M11.764,0,9.027-3.91A3.8,3.8,0,0,0,11.56-7.667c0-2.635-1.938-4.233-5.066-4.233H1.6V0h2.21V-3.468H6.494a4.143,4.143,0,0,0,.459-.017L9.384,0ZM9.333-7.667c0,1.5-1,2.38-2.941,2.38H3.808V-10.03H6.392C8.33-10.03,9.333-9.163,9.333-7.667ZM21.947-4.488a4.427,4.427,0,0,0-4.59-4.692,4.515,4.515,0,0,0-4.692,4.641c0,2.7,1.972,4.658,5.015,4.658A4.6,4.6,0,0,0,21.335-1.36L20.2-2.669a3.253,3.253,0,0,1-2.465.986A2.748,2.748,0,0,1,14.79-3.859h7.123C21.93-4.063,21.947-4.318,21.947-4.488ZM17.357-7.48a2.471,2.471,0,0,1,2.567,2.21H14.773A2.509,2.509,0,0,1,17.357-7.48Zm9.18-1.7A6.383,6.383,0,0,0,22.7-8.058l.833,1.547a4.494,4.494,0,0,1,2.754-.9c1.513,0,2.261.731,2.261,1.972V-5.3H26.2c-2.754,0-3.774,1.19-3.774,2.7,0,1.581,1.309,2.72,3.383,2.72a3.217,3.217,0,0,0,2.856-1.224V0h2.006V-5.321C30.668-7.939,29.155-9.18,26.537-9.18Zm-.289,7.752c-1.088,0-1.734-.493-1.734-1.258,0-.663.391-1.207,1.836-1.207h2.193v1.054A2.314,2.314,0,0,1,26.248-1.428ZM32.98,0h2.125V-12.614H32.98ZM54.043-9.078,51.578-2.346,49.13-9.078H47.345l-2.5,6.7-2.4-6.7H40.443L43.775,0h2.04l2.38-6.256L50.541,0h2.04L55.93-9.078Zm6.511,9.2A4.578,4.578,0,0,0,65.4-4.539,4.565,4.565,0,0,0,60.554-9.18a4.569,4.569,0,0,0-4.828,4.641A4.583,4.583,0,0,0,60.554.119Zm0-1.819a2.64,2.64,0,0,1-2.686-2.839,2.64,2.64,0,0,1,2.686-2.839,2.644,2.644,0,0,1,2.7,2.839A2.644,2.644,0,0,1,60.554-1.7Zm8.5-6.052V-9.078H67.031V0h2.125V-4.4a2.474,2.474,0,0,1,2.635-2.805,2.7,2.7,0,0,1,.493.051V-9.18A3.572,3.572,0,0,0,69.054-7.752ZM73.576,0H75.7V-12.614H73.576ZM84.847-12.614v4.658A3.717,3.717,0,0,0,81.923-9.18a4.4,4.4,0,0,0-4.59,4.641A4.418,4.418,0,0,0,81.923.119a3.743,3.743,0,0,0,3.009-1.292V0h2.04V-12.614ZM82.178-1.7a2.653,2.653,0,0,1-2.7-2.839,2.653,2.653,0,0,1,2.7-2.839,2.653,2.653,0,0,1,2.7,2.839A2.653,2.653,0,0,1,82.178-1.7Z" transform="translate(74.032 24.627)" fill="#3c3344"/>
        <path id="패스_14610" data-name="패스 14610" d="M7.106.17a6.04,6.04,0,0,0,4.726-1.989L10.4-3.179A4.137,4.137,0,0,1,7.225-1.768,4.063,4.063,0,0,1,2.975-5.95a4.063,4.063,0,0,1,4.25-4.182A4.179,4.179,0,0,1,10.4-8.738l1.428-1.343A6.028,6.028,0,0,0,7.123-12.07,6.064,6.064,0,0,0,.748-5.95,6.06,6.06,0,0,0,7.106.17ZM16.745.119A4.578,4.578,0,0,0,21.59-4.539,4.565,4.565,0,0,0,16.745-9.18a4.569,4.569,0,0,0-4.828,4.641A4.583,4.583,0,0,0,16.745.119Zm0-1.819a2.64,2.64,0,0,1-2.686-2.839,2.64,2.64,0,0,1,2.686-2.839,2.644,2.644,0,0,1,2.7,2.839A2.644,2.644,0,0,1,16.745-1.7ZM34.68-9.18a4.237,4.237,0,0,0-3.4,1.513A3.4,3.4,0,0,0,28.22-9.18a3.76,3.76,0,0,0-2.975,1.258V-9.078H23.222V0h2.125V-4.607c0-1.8.952-2.72,2.363-2.72,1.292,0,2.04.782,2.04,2.4V0h2.125V-4.607c0-1.8.969-2.72,2.363-2.72,1.292,0,2.04.782,2.04,2.4V0H38.4V-5.2C38.4-7.939,36.873-9.18,34.68-9.18Zm17.493,0a4.237,4.237,0,0,0-3.4,1.513,3.4,3.4,0,0,0-3.06-1.513,3.76,3.76,0,0,0-2.975,1.258V-9.078H40.715V0H42.84V-4.607c0-1.8.952-2.72,2.363-2.72,1.292,0,2.04.782,2.04,2.4V0h2.125V-4.607c0-1.8.969-2.72,2.363-2.72,1.292,0,2.04.782,2.04,2.4V0H55.9V-5.2C55.9-7.939,54.366-9.18,52.173-9.18ZM66.895-4.488a4.427,4.427,0,0,0-4.59-4.692,4.515,4.515,0,0,0-4.692,4.641c0,2.7,1.972,4.658,5.015,4.658A4.6,4.6,0,0,0,66.283-1.36L65.144-2.669a3.253,3.253,0,0,1-2.465.986,2.748,2.748,0,0,1-2.941-2.176h7.123C66.878-4.063,66.895-4.318,66.895-4.488ZM62.305-7.48a2.471,2.471,0,0,1,2.567,2.21H59.721A2.509,2.509,0,0,1,62.305-7.48Zm8.245-.272V-9.078H68.527V0h2.125V-4.4a2.474,2.474,0,0,1,2.635-2.805,2.7,2.7,0,0,1,.493.051V-9.18A3.572,3.572,0,0,0,70.55-7.752ZM79.084.119A4.127,4.127,0,0,0,82.96-2.006l-1.632-.952A2.569,2.569,0,0,1,79.067-1.7a2.655,2.655,0,0,1-2.754-2.839,2.664,2.664,0,0,1,2.754-2.839A2.569,2.569,0,0,1,81.328-6.12l1.632-.952A4.085,4.085,0,0,0,79.084-9.18a4.593,4.593,0,0,0-4.913,4.641A4.607,4.607,0,0,0,79.084.119ZM92.633-4.488a4.427,4.427,0,0,0-4.59-4.692,4.515,4.515,0,0,0-4.692,4.641c0,2.7,1.972,4.658,5.015,4.658A4.6,4.6,0,0,0,92.021-1.36L90.882-2.669a3.253,3.253,0,0,1-2.465.986,2.748,2.748,0,0,1-2.941-2.176H92.6C92.616-4.063,92.633-4.318,92.633-4.488ZM88.043-7.48A2.471,2.471,0,0,1,90.61-5.27H85.459A2.509,2.509,0,0,1,88.043-7.48Zm20.808,6.29-1.5-1.428a8.129,8.129,0,0,0,1.071-2.72L106.709-5.9a7.717,7.717,0,0,1-.663,2.006l-2.567-2.448c1.717-.969,2.431-1.853,2.431-3.077,0-1.615-1.258-2.618-3.179-2.618-2.091,0-3.451,1.139-3.451,2.8a3.6,3.6,0,0,0,1.326,2.618c-1.938,1.088-2.754,2.125-2.754,3.6,0,1.87,1.819,3.179,4.335,3.179a6.012,6.012,0,0,0,4-1.428l1.5,1.445Zm-6.12-9.333c.884,0,1.377.459,1.377,1.139,0,.646-.442,1.139-1.819,1.887-.85-.85-1.071-1.241-1.071-1.768C101.218-10,101.779-10.523,102.731-10.523Zm-.391,8.959c-1.462,0-2.414-.68-2.414-1.666,0-.85.476-1.479,1.853-2.244l3.145,3.009A3.986,3.986,0,0,1,102.34-1.564ZM114.614,0h8.432V-1.87h-6.222V-11.9h-2.21Zm10.625-10.574A1.3,1.3,0,0,0,126.6-11.9a1.265,1.265,0,0,0-1.36-1.224,1.294,1.294,0,0,0-1.36,1.275A1.294,1.294,0,0,0,125.239-10.574ZM124.168,0h2.125V-9.078h-2.125Zm8.194-11.016a2.093,2.093,0,0,1,1.173.374l.6-1.6a3.4,3.4,0,0,0-1.921-.493,2.933,2.933,0,0,0-3.247,3.145v.578h-1.5v1.7h1.5V0h2.125V-7.31h2.431v-1.7h-2.5v-.544C131.019-10.523,131.478-11.016,132.362-11.016ZM142.8-4.488a4.427,4.427,0,0,0-4.59-4.692,4.515,4.515,0,0,0-4.692,4.641c0,2.7,1.972,4.658,5.015,4.658a4.6,4.6,0,0,0,3.655-1.479l-1.139-1.309a3.253,3.253,0,0,1-2.465.986,2.748,2.748,0,0,1-2.941-2.176h7.123C142.783-4.063,142.8-4.318,142.8-4.488ZM138.21-7.48a2.471,2.471,0,0,1,2.567,2.21h-5.151A2.509,2.509,0,0,1,138.21-7.48Z" transform="translate(44.723 44.619)" fill="#3c3344"/>
        <path id="패스_14612" data-name="패스 14612" d="M5.287.17C8.551.17,10.1-1.462,10.1-3.366c0-4.369-7.055-2.72-7.055-5.253,0-.9.748-1.615,2.584-1.615A6.613,6.613,0,0,1,8.908-9.3l.7-1.717A7.523,7.523,0,0,0,5.644-12.07C2.38-12.07.85-10.438.85-8.517c0,4.42,7.072,2.737,7.072,5.3,0,.884-.782,1.547-2.635,1.547A6.594,6.594,0,0,1,1.36-2.975L.6-1.258A7.668,7.668,0,0,0,5.287.17Zm17.85-9.35a4.237,4.237,0,0,0-3.4,1.513,3.4,3.4,0,0,0-3.06-1.513A3.76,3.76,0,0,0,13.7-7.922V-9.078H11.679V0H13.8V-4.607c0-1.8.952-2.72,2.363-2.72,1.292,0,2.04.782,2.04,2.4V0h2.125V-4.607c0-1.8.969-2.72,2.363-2.72,1.292,0,2.04.782,2.04,2.4V0H26.86V-5.2C26.86-7.939,25.33-9.18,23.137-9.18Zm9.5,0A6.383,6.383,0,0,0,28.8-8.058l.833,1.547a4.494,4.494,0,0,1,2.754-.9c1.513,0,2.261.731,2.261,1.972V-5.3H32.3c-2.754,0-3.774,1.19-3.774,2.7,0,1.581,1.309,2.72,3.383,2.72a3.217,3.217,0,0,0,2.856-1.224V0h2.006V-5.321C36.771-7.939,35.258-9.18,32.64-9.18Zm-.289,7.752c-1.088,0-1.734-.493-1.734-1.258,0-.663.391-1.207,1.836-1.207h2.193v1.054A2.314,2.314,0,0,1,32.351-1.428Zm8.755-6.324V-9.078H39.083V0h2.125V-4.4a2.474,2.474,0,0,1,2.635-2.805,2.7,2.7,0,0,1,.493.051V-9.18A3.572,3.572,0,0,0,41.106-7.752ZM51.187-2.006A1.911,1.911,0,0,1,50-1.632c-.816,0-1.258-.476-1.258-1.36V-7.31H51.17v-1.7H48.739v-2.074H46.614V-9.01h-1.5v1.7h1.5v4.369A2.789,2.789,0,0,0,49.742.119a3.339,3.339,0,0,0,2.04-.612ZM63.1.17A6.04,6.04,0,0,0,67.83-1.819L66.4-3.179a4.137,4.137,0,0,1-3.179,1.411,4.063,4.063,0,0,1-4.25-4.182,4.063,4.063,0,0,1,4.25-4.182A4.179,4.179,0,0,1,66.4-8.738l1.428-1.343a6.028,6.028,0,0,0-4.709-1.989,6.064,6.064,0,0,0-6.375,6.12A6.06,6.06,0,0,0,63.1.17ZM72.743.119a4.578,4.578,0,0,0,4.845-4.658A4.565,4.565,0,0,0,72.743-9.18a4.569,4.569,0,0,0-4.828,4.641A4.583,4.583,0,0,0,72.743.119Zm0-1.819a2.64,2.64,0,0,1-2.686-2.839,2.64,2.64,0,0,1,2.686-2.839,2.644,2.644,0,0,1,2.7,2.839A2.644,2.644,0,0,1,72.743-1.7ZM84.371-9.18a3.947,3.947,0,0,0-3.128,1.275V-9.078H79.22V0h2.125V-4.59a2.411,2.411,0,0,1,2.533-2.737c1.36,0,2.159.782,2.159,2.4V0h2.125V-5.2C88.162-7.939,86.547-9.18,84.371-9.18ZM95.319-2.006a1.911,1.911,0,0,1-1.19.374c-.816,0-1.258-.476-1.258-1.36V-7.31H95.3v-1.7H92.871v-2.074H90.746V-9.01h-1.5v1.7h1.5v4.369A2.789,2.789,0,0,0,93.874.119a3.339,3.339,0,0,0,2.04-.612Zm3.944-5.746V-9.078H97.24V0h2.125V-4.4A2.474,2.474,0,0,1,102-7.208a2.7,2.7,0,0,1,.493.051V-9.18A3.572,3.572,0,0,0,99.263-7.752Zm7.888-1.428a6.383,6.383,0,0,0-3.842,1.122l.833,1.547a4.494,4.494,0,0,1,2.754-.9c1.513,0,2.261.731,2.261,1.972V-5.3h-2.346c-2.754,0-3.774,1.19-3.774,2.7,0,1.581,1.309,2.72,3.383,2.72a3.217,3.217,0,0,0,2.856-1.224V0h2.006V-5.321C111.282-7.939,109.769-9.18,107.151-9.18Zm-.289,7.752c-1.088,0-1.734-.493-1.734-1.258,0-.663.391-1.207,1.836-1.207h2.193v1.054A2.314,2.314,0,0,1,106.862-1.428ZM117.929.119a4.127,4.127,0,0,0,3.876-2.125l-1.632-.952A2.569,2.569,0,0,1,117.912-1.7a2.655,2.655,0,0,1-2.754-2.839,2.664,2.664,0,0,1,2.754-2.839,2.569,2.569,0,0,1,2.261,1.258l1.632-.952a4.085,4.085,0,0,0-3.876-2.108,4.593,4.593,0,0,0-4.913,4.641A4.607,4.607,0,0,0,117.929.119Zm10.387-2.125a1.911,1.911,0,0,1-1.19.374c-.816,0-1.258-.476-1.258-1.36V-7.31H128.3v-1.7h-2.431v-2.074h-2.125V-9.01h-1.5v1.7h1.5v4.369a2.789,2.789,0,0,0,3.128,3.06,3.339,3.339,0,0,0,2.04-.612Z" transform="translate(81.973 364.723)" fill="#3c3344"/>
        <circle id="타원_137" data-name="타원 137" cx="104.499" cy="104.499" r="104.499" transform="translate(159.722 62.245)" fill="none" stroke="#ff6c8f" stroke-miterlimit="10" stroke-width="1" stroke-dasharray="8 8 8 8 8 8"/>
        <path id="패스_4956" data-name="패스 4956" d="M78.288,307.385H21.171a2.415,2.415,0,0,1-2.415-2.415V218.4a2.415,2.415,0,0,1,2.415-2.415H78.288A2.415,2.415,0,0,1,80.7,218.4v86.57a2.415,2.415,0,0,1-2.415,2.415" transform="translate(-4.464 -69.58)" fill="#85d2ee"/>
        <rect id="사각형_382" data-name="사각형 382" width="61.947" height="91.4" rx="3" transform="translate(14.292 146.405)" fill="none" stroke="#3c3344" stroke-linecap="round" stroke-linejoin="round" stroke-width="2"/>
        <path id="패스_4957" data-name="패스 4957" d="M8.427,303.048a2.038,2.038,0,0,1-2.036-2.036V291.9a9.954,9.954,0,0,1,19.907,0v9.114a2.037,2.037,0,0,1-2.035,2.036Zm13.8-4.071V291.9a5.883,5.883,0,0,0-11.766,0v7.079Z" transform="translate(-2.052 -82.446)" fill="#fed9a2"/>
        <path id="패스_4958" data-name="패스 4958" d="M16.15,282.556A9.158,9.158,0,0,1,25.3,291.7v9.113a1.231,1.231,0,0,1-1.23,1.231H8.232A1.231,1.231,0,0,1,7,300.817V291.7a9.158,9.158,0,0,1,9.149-9.148M9.462,299.587H22.838V291.7a6.688,6.688,0,1,0-13.376,0v7.883m6.688-18.641A10.771,10.771,0,0,0,5.391,291.7v9.113a2.844,2.844,0,0,0,2.841,2.841H24.068a2.844,2.844,0,0,0,2.84-2.841V291.7A10.77,10.77,0,0,0,16.15,280.946m-5.078,17.031V291.7a5.078,5.078,0,1,1,10.156,0v6.273Z" transform="translate(-1.857 -82.251)" fill="#3c3344"/>
        <path id="패스_4959" data-name="패스 4959" d="M21.816,324.1H8.771A7.77,7.77,0,0,1,1,316.332V301.7H29.587v14.636a7.771,7.771,0,0,1-7.77,7.77" transform="translate(-1.001 -86.298)" fill="#ff7767"/>
        <path id="패스_4960" data-name="패스 4960" d="M21.816,324.1H8.771A7.77,7.77,0,0,1,1,316.332V301.7H29.587v14.636A7.771,7.771,0,0,1,21.816,324.1Z" transform="translate(-1.001 -86.298)" fill="none" stroke="#3c3344" stroke-linecap="round" stroke-linejoin="round" stroke-width="2"/>
        <path id="패스_4961" data-name="패스 4961" d="M20.543,313.345a2.357,2.357,0,1,1-2.357-2.357,2.357,2.357,0,0,1,2.357,2.357" transform="translate(-3.893 -88.11)" fill="#fffbe9"/>
        <rect id="사각형_383" data-name="사각형 383" width="1.226" height="5.186" transform="translate(13.679 225.141)" fill="#fffbe9"/>
        <path id="패스_4962" data-name="패스 4962" d="M34.306,228.689v-2.658h2.983v2.6q5.018.559,6.557,4.771l-4.864,1.523a2.944,2.944,0,0,0-3.044-1.974q-1.928,0-1.929,1.242a1.036,1.036,0,0,0,.327.77,4.511,4.511,0,0,0,1.8.648,34.378,34.378,0,0,1,4.832,1.319A5.362,5.362,0,0,1,43.4,238.9a5.579,5.579,0,0,1,.972,3.283,5.893,5.893,0,0,1-1.888,4.449,8.727,8.727,0,0,1-5.2,2.165v2.688H34.306V248.8q-5.625-.666-7.071-5.92l5.437-1.01a3.254,3.254,0,0,0,3.529,2.393q2.206,0,2.206-1.212a1.142,1.142,0,0,0-.513-.994,5.219,5.219,0,0,0-1.818-.623q-5.127-1.044-6.5-2.66a5.56,5.56,0,0,1-1.376-3.712,6.209,6.209,0,0,1,1.508-4.109,7.13,7.13,0,0,1,4.6-2.259" transform="translate(-6.118 -71.54)" fill="#3c3344"/>
        <line id="선_277" data-name="선 277" x2="27.219" transform="translate(43.271 157.88)" fill="none" stroke="#fff" stroke-linejoin="round" stroke-width="2"/>
        <line id="선_278" data-name="선 278" x2="9.189" transform="translate(61.3 163.419)" fill="none" stroke="#fff" stroke-linejoin="round" stroke-width="2"/>
        <line id="선_279" data-name="선 279" x2="15.991" transform="translate(43.271 163.419)" fill="none" stroke="#fff" stroke-linejoin="round" stroke-width="2"/>
        <line id="선_280" data-name="선 280" x2="27.219" transform="translate(43.271 168.957)" fill="none" stroke="#fff" stroke-linejoin="round" stroke-width="2"/>
        <line id="선_281" data-name="선 281" x2="27.219" transform="translate(43.271 174.404)" fill="none" stroke="#fff" stroke-linejoin="round" stroke-width="2"/>
        <line id="선_282" data-name="선 282" x2="9.189" transform="translate(61.3 179.943)" fill="none" stroke="#fff" stroke-linejoin="round" stroke-width="2"/>
        <line id="선_283" data-name="선 283" x2="15.991" transform="translate(43.271 179.943)" fill="none" stroke="#fff" stroke-linejoin="round" stroke-width="2"/>
        <line id="선_284" data-name="선 284" x2="50.448" transform="translate(20.042 187.829)" fill="none" stroke="#fff" stroke-linejoin="round" stroke-width="2"/>
        <line id="선_285" data-name="선 285" x2="50.092" transform="translate(20.397 194.557)" fill="none" stroke="#fff" stroke-linejoin="round" stroke-width="2"/>
        <line id="선_286" data-name="선 286" x2="40.803" transform="translate(29.687 201.286)" fill="none" stroke="#fff" stroke-linejoin="round" stroke-width="2"/>
        <line id="선_287" data-name="선 287" x2="40.803" transform="translate(29.687 208.015)" fill="none" stroke="#fff" stroke-linejoin="round" stroke-width="2"/>
        <line id="선_288" data-name="선 288" x2="33.632" transform="translate(36.858 214.743)" fill="none" stroke="#fff" stroke-linejoin="round" stroke-width="2"/>
        <line id="선_289" data-name="선 289" x2="33.632" transform="translate(36.858 221.472)" fill="none" stroke="#fff" stroke-linejoin="round" stroke-width="2"/>
        <line id="선_290" data-name="선 290" x2="33.632" transform="translate(36.858 228.2)" fill="none" stroke="#fff" stroke-linejoin="round" stroke-width="2"/>
        <path id="패스_4963" data-name="패스 4963" d="M496.279,97.53V60.948h61.115" transform="translate(-182.174 -22.19)" fill="none" stroke="#ff6c8f" stroke-miterlimit="10" stroke-width="1" stroke-dasharray="8 8 8 8 8 8"/>
        <path id="패스_4964" data-name="패스 4964" d="M565.665,59.345a6.615,6.615,0,1,1,6.614,6.614,6.614,6.614,0,0,1-6.614-6.614" transform="translate(-195.708 -20.587)" fill="#ff6c8f"/>
        <path id="패스_4965" data-name="패스 4965" d="M185.986,71.993a6.615,6.615,0,1,1,6.614,6.614,6.614,6.614,0,0,1-6.614-6.614" transform="translate(-73.49 -11.467)" fill="#ff6c8f"/>
        <path id="패스_4966" data-name="패스 4966" d="M111.247,280.785a6.615,6.615,0,1,1,6.614,6.614,6.614,6.614,0,0,1-6.614-6.614" transform="translate(-29.274 -80.929)" fill="#ff6c8f"/>
        <path id="패스_4967" data-name="패스 4967" d="M202.551,446.657a6.615,6.615,0,1,1,6.614,6.614,6.614,6.614,0,0,1-6.614-6.614" transform="translate(-62.891 -130.417)" fill="#ff6c8f"/>
        <path id="패스_4968" data-name="패스 4968" d="M496.279,377.336v37.407h61.115" transform="translate(-200.158 -110.818)" fill="none" stroke="#ff6c8f" stroke-miterlimit="10" stroke-width="1" stroke-dasharray="8 8 8 8 8 8"/>
        <path id="패스_4969" data-name="패스 4969" d="M565.665,422.2a6.615,6.615,0,1,1,6.614,6.614,6.614,6.614,0,0,1-6.614-6.614" transform="translate(-213.691 -118.279)" fill="#ff6c8f"/>
        <path id="패스_4970" data-name="패스 4970" d="M689.594,283.542a6.615,6.615,0,1,1,6.614,6.614,6.615,6.615,0,0,1-6.614-6.614" transform="translate(-265.139 -81.467)" fill="#ff6c8f"/>
        <path id="패스_4971" data-name="패스 4971" d="M563.986,253.547h37.339v25.434h20.968" transform="translate(-195.193 -76.907)" fill="none" stroke="#ff6c8f" stroke-miterlimit="10" stroke-width="1" stroke-dasharray="8 8 8 8 8 8"/>
        <path id="패스_4972" data-name="패스 4972" d="M261.719,111.005H194.2V78.08" transform="translate(-75.093 -13.944)" fill="none" stroke="#ff6c8f" stroke-miterlimit="10" stroke-width="1" stroke-dasharray="8 8 8 8 8 8"/>
        <path id="패스_4973" data-name="패스 4973" d="M190.6,226.973H159.466v45.056h-40" transform="translate(-30.877 -71.724)" fill="none" stroke="#ff6c8f" stroke-miterlimit="10" stroke-width="1" stroke-dasharray="8 8 8 8 8 8"/>
        <path id="패스_4974" data-name="패스 4974" d="M284.838,384.179H240.587v22.3H210.768v24.587" transform="translate(-64.494 -119.521)" fill="none" stroke="#ff6c8f" stroke-miterlimit="10" stroke-width="1" stroke-dasharray="8 8 8 8 8 8"/>
        <g id="그룹_900" data-name="그룹 900" transform="translate(222.36 113.859)">
          <path id="패스_4975" data-name="패스 4975" d="M375.229,229.56Z" transform="translate(-346.371 -173.151)" fill="#ec4595"/>
          <path id="패스_4976" data-name="패스 4976" d="M394.459,234.4v8.571l.553.32Z" transform="translate(-353.646 -174.983)" fill="#ff6c8f"/>
          <path id="패스_4977" data-name="패스 4977" d="M394.459,249.3v.346h1.2V249.3l-.6.344Z" transform="translate(-353.646 -180.619)" fill="#ff6c8f"/>
          <path id="패스_4978" data-name="패스 4978" d="M395.421,248.534v.691l.6-.345v-.691Z" transform="translate(-354.01 -180.198)" fill="#ff6c8f"/>
          <path id="패스_4979" data-name="패스 4979" d="M395.013,248.509l-.553-.32v.691l.6.346Z" transform="translate(-353.646 -180.198)" fill="#ff6c8f"/>
          <path id="패스_4980" data-name="패스 4980" d="M395.349,248.7l.045.717v-.691h0Z" transform="translate(-353.983 -180.393)" fill="#ff6c8f"/>
          <path id="패스_4981" data-name="패스 4981" d="M384.844,241.562v.678l3.462-1.864,0-.679Z" transform="translate(-350.008 -176.985)" fill="#ff6c8f"/>
          <path id="패스_4982" data-name="패스 4982" d="M384.8,242.652v.67l-.073-.042.038.07,3.5-1.887v-.676Z" transform="translate(-349.964 -177.398)" fill="#ff6c8f"/>
          <path id="패스_4983" data-name="패스 4983" d="M391.009,240.271l-.6.321,0,.676.6-.321Z" transform="translate(-352.115 -177.203)" fill="#ff6c8f"/>
          <path id="패스_4984" data-name="패스 4984" d="M390.907,239.265l-.5.269,0,.678.6-.321v-.441Z" transform="translate(-352.114 -176.822)" fill="#ff6c8f"/>
          <path id="패스_4985" data-name="패스 4985" d="M391.37,239.562V240l.183-.1-.183.1v.676l.465-.251Z" transform="translate(-352.478 -176.934)" fill="#ff6c8f"/>
          <path id="패스_4986" data-name="패스 4986" d="M384.477,243.375l-.318.172.318-.172V242.7l-.6.325.53.981.073.042Z" transform="translate(-349.642 -178.121)" fill="#ff6c8f"/>
          <path id="패스_4987" data-name="패스 4987" d="M367.536,231.919l4.185-2.254v-.679l-4.185,2.255Z" transform="translate(-343.461 -172.934)" fill="#ff6c8f"/>
          <path id="패스_4988" data-name="패스 4988" d="M367.536,232.332v.617l.025.048,4.159-2.241v-.678Z" transform="translate(-343.461 -173.347)" fill="#ff6c8f"/>
          <path id="패스_4989" data-name="패스 4989" d="M366.949,233.43l.257-.139v-.678l-.541.292.541,1v-.617Z" transform="translate(-343.131 -174.306)" fill="#ff6c8f"/>
          <path id="패스_4990" data-name="패스 4990" d="M374.865,229.24l-.284-.526-.314.169v.679Z" transform="translate(-346.007 -172.831)" fill="#ff6c8f"/>
          <path id="패스_4991" data-name="패스 4991" d="M374.865,229.56h0l-.6.322v.678l.6-.323Z" transform="translate(-346.007 -173.151)" fill="#ff6c8f"/>
          <path id="패스_4992" data-name="패스 4992" d="M375.229,229.561v.677l.283-.152Z" transform="translate(-346.371 -173.151)" fill="#ff6c8f"/>
          <path id="패스_4993" data-name="패스 4993" d="M349.641,223.423l.257-.139v-.678l-.542.292.542,1v-.617Z" transform="translate(-336.583 -170.52)" fill="#ff6c8f"/>
          <path id="패스_4994" data-name="패스 4994" d="M388.231,184.433l19.332-11.2v-3.871l-22.719,13.117v32.479l3.46-1.866Z" transform="translate(-350.008 -150.376)" fill="#ccfff5"/>
          <path id="패스_4995" data-name="패스 4995" d="M354.413,163.01,378.324,149.2,384.9,153l-.016.009h.02v4.819l4.181-2.414,6.576,3.8h0v3.866l7.518-4.357-24.86-14.361L350.228,160.6v32.411l4.183-2.254Z" transform="translate(-336.913 -140.92)" fill="#ccfff5"/>
          <path id="패스_4996" data-name="패스 4996" d="M390.255,159.366l-22.718,13.117V204.9l4.185-2.255V174.9l18.71-10.8h-.175Z" transform="translate(-343.461 -146.596)" fill="#ccfff5"/>
          <path id="패스_4997" data-name="패스 4997" d="M392.228,198.545l.076,30.107,1.311.757v-8.571Z" transform="translate(-352.802 -161.418)" fill="#ffe6e6"/>
          <path id="패스_4998" data-name="패스 4998" d="M406.531,157.964l-29.287-16.915-29.9,17.261v32.439l.6.346V158.65l29.287-16.924,27.247,15.743-28.814,16.7,1.58.982Z" transform="translate(-335.822 -139.667)" fill="#ffe6e6"/>
          <path id="패스_4999" data-name="패스 4999" d="M396.382,218.583l29.291-16.911V169.93l-29.29,17.186Z" transform="translate(-354.373 -150.592)" fill="#ffe6e6"/>
          <path id="패스_5000" data-name="패스 5000" d="M409.624,175.584l-19.332,11.2.073,28.653.5-.268.1.185-.072-28.228,19.491-11.3h-.759Z" transform="translate(-352.069 -152.731)" fill="#ff6c8f"/>
          <path id="패스_5001" data-name="패스 5001" d="M345.42,156.777v33.817l2.989,1.737v-.124l-.542-1,.542-.292V158.5L376.5,142.267l24.861,14.361-7.518,4.357v.69l8.711-5.048L376.5,141.576l-28.69,16.578v33.138l-1.794-1.041V157.124l30.5-17.607,29.88,17.258.293-.172.3.516h0l.3.515-.3.177v32.44L377.1,207.508v.345h-1.2v-.345l-1.907-1.1-.01-3.836-.6.321.01,3.86,3.1,1.794L407.59,190.6V156.772l-31.074-17.947Z" transform="translate(-335.094 -138.825)" fill="#ff6c8f"/>
          <path id="패스_5002" data-name="패스 5002" d="M444.46,168.251h0Z" transform="translate(-372.562 -149.957)" fill="#ec4595"/>
          <path id="패스_5003" data-name="패스 5003" d="M425.674,201.459,396.382,218.37v.691L426.272,201.8V169.365l-.6.351Z" transform="translate(-354.373 -150.379)" fill="#ff6c8f"/>
          <path id="패스_5004" data-name="패스 5004" d="M393.771,162.35l-19.491,11.3.072,28.227.468.867-.465.251.01,3.837,1.907,1.1v-.691l-1.311-.757-.076-30.107-.1-1.534-.361-.224.315-.509h0l.315-.508.24.149,28.814-16.7-27.247-15.743L347.578,158.23v32.444l-.6-.346V157.89l29.9-17.261,29.287,16.914.593-.348-29.88-17.257-30.5,17.606v33.128l1.794,1.041V158.575L376.866,142l26.053,15.051-8.711,5.048v.254Z" transform="translate(-335.458 -139.246)" fill="#ff6c8f"/>
          <path id="패스_5005" data-name="패스 5005" d="M444.46,168.25h0Z" transform="translate(-372.561 -149.957)" fill="#ec4595"/>
          <path id="패스_5006" data-name="패스 5006" d="M358.88,208.33l4.186,2.417V179l-4.186-2.416Z" transform="translate(-340.186 -153.108)" fill="#ffe6e6"/>
          <path id="패스_5007" data-name="패스 5007" d="M386.147,156.788l-4.185-2.417-22.117,12.77,4.185,2.415Z" transform="translate(-340.551 -144.707)" fill="#ffe6e6"/>
          <path id="패스_5008" data-name="패스 5008" d="M363.534,202.173v-32.42l22.718-13.117v-.679h1.176l.017-.009-6.576-3.8-23.912,13.807V193.7l.315-.17.283.525V166.992l-.3-.173.6-1.037.3.173L380.87,152.84l5.38,3.107-23.312,13.46h0v33.131l-5.381-3.105v-4.7l-.6.322v4.725l6.577,3.795v-.106l-.542-1Z" transform="translate(-339.459 -143.865)" fill="#ff6c8f"/>
          <path id="패스_5009" data-name="패스 5009" d="M381.6,153.951l4.185,2.417-22.117,12.769.3.172-.3.518,23.313-13.46-5.38-3.106-22.716,13.115.6.345Z" transform="translate(-340.187 -144.287)" fill="#ff6c8f"/>
          <path id="패스_5010" data-name="패스 5010" d="M357.92,203.086h0l.284.525-.285.154v4.7l5.381,3.105V178.44l-.3.518-.3-.172v31.752l-4.186-2.417V176.37l-.6-.344v27.06Z" transform="translate(-339.823 -152.898)" fill="#ff6c8f"/>
          <path id="패스_5011" data-name="패스 5011" d="M376.19,218.321l4.185,2.417V188.986l-4.185-2.416Z" transform="translate(-346.734 -156.887)" fill="#ffe6e6"/>
          <path id="패스_5012" data-name="패스 5012" d="M403.454,166.78l-4.185-2.415-22.117,12.768,4.183,2.415Z" transform="translate(-347.099 -148.488)" fill="#ffe6e6"/>
          <path id="패스_5013" data-name="패스 5013" d="M380.842,212.223V179.744l22.719-13.117v-.688h1.192l-6.576-3.8L394,164.556v.589h-1.02l-18.71,10.8V203.7l.314-.169.284.526h0v-27.07l-.3-.173.6-1.037.3.173,22.715-13.115,5.38,3.106L380.245,179.4v33.133l-5.38-3.107v-4.693l-.6.322v4.716l6.5,3.757-.53-.98Z" transform="translate(-346.007 -147.646)" fill="#ff6c8f"/>
          <path id="패스_5014" data-name="패스 5014" d="M398.906,163.945l4.185,2.415-22.118,12.768.3.173-.3.519h0l23.314-13.46-5.38-3.106-22.716,13.115.6.345Z" transform="translate(-346.735 -148.067)" fill="#ff6c8f"/>
          <path id="패스_5015" data-name="패스 5015" d="M375.512,213.612l-.284.153v4.693l5.38,3.107V188.431h0l-.3.518-.3-.172v31.752l-4.185-2.417V186.36l-.6-.345v27.071h0Z" transform="translate(-346.371 -156.678)" fill="#ff6c8f"/>
          <path id="패스_5016" data-name="패스 5016" d="M393.614,197.03l-1.392-.862,0,1.478,1.388,22.292Z" transform="translate(-352.799 -160.518)" fill="#ffe6e6"/>
          <path id="패스_5017" data-name="패스 5017" d="M392.075,196.077l.1,1.534,0-1.478Z" transform="translate(-352.744 -160.484)" fill="#ff6c8f"/>
          <path id="패스_5018" data-name="패스 5018" d="M392,194.9h0Z" transform="translate(-352.716 -160.038)" fill="#f2a1c6"/>
          <path id="패스_5019" data-name="패스 5019" d="M395.724,197.537l-.3-.515h0v32.155l.6-.344V197.364Z" transform="translate(-354.01 -160.842)" fill="#ff6c8f"/>
          <path id="패스_5020" data-name="패스 5020" d="M392.219,194.763,394.21,196h0l-.3-.517.31-.182-1.58-.981-.42.243Z" transform="translate(-352.798 -159.819)" fill="#ff6c8f"/>
          <path id="패스_5021" data-name="패스 5021" d="M392.136,194.472l.42-.243-.24-.149-.315.508.136.085Z" transform="translate(-352.716 -159.729)" fill="#ff6c8f"/>
          <path id="패스_5022" data-name="패스 5022" d="M391.494,195.407l.361.224-.045-.734Z" transform="translate(-352.524 -160.038)" fill="#ff6c8f"/>
          <path id="패스_5023" data-name="패스 5023" d="M392.219,195.033l0,.706,1.392.861v22.909l.553,8.891.044.025h0V196.27Z" transform="translate(-352.799 -160.089)" fill="#ff6c8f"/>
          <path id="패스_5024" data-name="패스 5024" d="M392.137,194.982,392,194.9l.045.733.092.057Z" transform="translate(-352.716 -160.038)" fill="#ff6c8f"/>
          <path id="패스_5025" data-name="패스 5025" d="M396.375,186.019v.675l29.291-17.186v-.693L396.36,186.009Z" transform="translate(-354.365 -150.171)" fill="#ff6c8f"/>
          <path id="패스_5026" data-name="패스 5026" d="M396.01,185.8,425.315,168.6V168.6l-.591-.341-29.289,17.185Z" transform="translate(-354.015 -149.959)" fill="#ff6c8f"/>
          <path id="패스_5027" data-name="패스 5027" d="M444.761,168.766l-.3-.515v.693Z" transform="translate(-372.561 -149.957)" fill="#ff6c8f"/>
          <path id="패스_5028" data-name="패스 5028" d="M443.794,167.42l-.293.172.6.344Z" transform="translate(-372.198 -149.643)" fill="#ff6c8f"/>
          <path id="패스_5029" data-name="패스 5029" d="M443.5,168.6v.693l.6-.351v-.693Z" transform="translate(-372.197 -149.957)" fill="#ff6c8f"/>
          <path id="패스_5030" data-name="패스 5030" d="M443.138,168.386v.006l.6-.351h0l-.595-.344-.594.348Z" transform="translate(-371.838 -149.748)" fill="#ff6c8f"/>
          <path id="패스_5031" data-name="패스 5031" d="M395.246,195.9l-.31.182.3.517.583-.342Z" transform="translate(-353.826 -160.416)" fill="#ff6c8f"/>
          <path id="패스_5032" data-name="패스 5032" d="M396.02,197.156v-.675l-.015-.009-.583.342.3.515Z" transform="translate(-354.011 -160.634)" fill="#ff6c8f"/>
          <path id="패스_5033" data-name="패스 5033" d="M363.068,177.673l.6-.345-4.185-2.415-.6.345,4.185,2.416Z" transform="translate(-340.188 -152.477)" fill="#ff6c8f"/>
          <path id="패스_5034" data-name="패스 5034" d="M358.883,175.468h0v.691l4.186,2.415v-.691Z" transform="translate(-340.187 -152.688)" fill="#ff6c8f"/>
          <path id="패스_5035" data-name="패스 5035" d="M358.337,174.252l-.3-.173-.6,1.037.3.173V174.6Z" transform="translate(-339.641 -152.162)" fill="#ff6c8f"/>
          <path id="패스_5036" data-name="패스 5036" d="M366.575,179.909h0Z" transform="translate(-343.097 -154.367)" fill="#ec4595"/>
          <path id="패스_5037" data-name="패스 5037" d="M365.615,179.353v.691l.3.173.3-.518h0Z" transform="translate(-342.734 -154.157)" fill="#ff6c8f"/>
          <path id="패스_5038" data-name="패스 5038" d="M358.518,175.258h0l-.6-.346v.692l.6.344Z" transform="translate(-339.823 -152.477)" fill="#ff6c8f"/>
          <path id="패스_5039" data-name="패스 5039" d="M358.52,175.047l.6-.345-.6-.346-.6.345Z" transform="translate(-339.823 -152.267)" fill="#ff6c8f"/>
          <path id="패스_5040" data-name="패스 5040" d="M366.212,178.8l-.6.345h0l.6.345h0l.3-.518Z" transform="translate(-342.734 -153.947)" fill="#ff6c8f"/>
          <path id="패스_5041" data-name="패스 5041" d="M380.374,187.664l.6-.345-4.183-2.415-.6.346,4.184,2.416Z" transform="translate(-346.735 -156.257)" fill="#ff6c8f"/>
          <path id="패스_5042" data-name="패스 5042" d="M376.19,185.46h0v.691l4.184,2.415v-.69Z" transform="translate(-346.735 -156.467)" fill="#ff6c8f"/>
          <path id="패스_5043" data-name="패스 5043" d="M375.645,184.243l-.3-.173-.6,1.037.3.173v-.691Z" transform="translate(-346.189 -155.942)" fill="#ff6c8f"/>
          <path id="패스_5044" data-name="패스 5044" d="M375.826,185.25h0l-.6-.345v.691l.6.345Z" transform="translate(-346.371 -156.258)" fill="#ff6c8f"/>
          <path id="패스_5045" data-name="패스 5045" d="M382.92,190.035l.3.172.3-.518-.6-.345Z" transform="translate(-349.281 -157.937)" fill="#ff6c8f"/>
          <path id="패스_5046" data-name="패스 5046" d="M375.827,185.039l.6-.346-.6-.345-.6.346Z" transform="translate(-346.371 -156.047)" fill="#ff6c8f"/>
          <path id="패스_5047" data-name="패스 5047" d="M383.518,188.788l-.6.345h0l.6.345.3-.519Z" transform="translate(-349.281 -157.727)" fill="#ff6c8f"/>
          <path id="패스_5048" data-name="패스 5048" d="M354.412,219.66v-.678l-4.183,2.254v.678Z" transform="translate(-336.913 -169.149)" fill="#ff6c8f"/>
          <path id="패스_5049" data-name="패스 5049" d="M350.228,222.326v.617l.025.047,4.158-2.24v-.678Z" transform="translate(-336.913 -169.562)" fill="#ff6c8f"/>
          <path id="패스_5050" data-name="패스 5050" d="M357.556,219.234v0l-.283-.524-.315.17v.678Z" transform="translate(-339.459 -169.045)" fill="#ff6c8f"/>
          <path id="패스_5051" data-name="패스 5051" d="M357.556,219.554l-.6.322v.678l.6-.322Z" transform="translate(-339.459 -169.365)" fill="#ff6c8f"/>
          <path id="패스_5052" data-name="패스 5052" d="M357.92,219.553h0v0Z" transform="translate(-339.823 -169.364)" fill="#ec4595"/>
          <path id="패스_5053" data-name="패스 5053" d="M357.92,219.553h0v.678l.284-.153Z" transform="translate(-339.823 -169.365)" fill="#ff6c8f"/>
          <path id="패스_5054" data-name="패스 5054" d="M422.944,168.25l-.594.343v3.87l.6-.346V168.25Z" transform="translate(-364.197 -149.957)" fill="#ff6c8f"/>
          <path id="패스_5055" data-name="패스 5055" d="M421.986,172.672V168.8l-.6.345v3.872Z" transform="translate(-363.833 -150.166)" fill="#ff6c8f"/>
          <path id="패스_5056" data-name="패스 5056" d="M421.388,175.624h.6v-.6l-.6.347Z" transform="translate(-363.833 -152.52)" fill="#ff6c8f"/>
          <path id="패스_5057" data-name="패스 5057" d="M422.35,175.413h.16l.437-.254v-.69l-.6.346Z" transform="translate(-364.197 -152.31)" fill="#ff6c8f"/>
          <path id="패스_5058" data-name="패스 5058" d="M423.045,175.833v-.254l-.437.254Z" transform="translate(-364.295 -152.73)" fill="#ff6c8f"/>
          <path id="패스_5059" data-name="패스 5059" d="M421.986,168.25v.343l.594-.343h-1.192v.688l.6-.346Z" transform="translate(-363.833 -149.957)" fill="#ff6c8f"/>
          <path id="패스_5060" data-name="패스 5060" d="M405.62,158.274l-.578.334v4.83l.6-.345v-4.819Z" transform="translate(-357.65 -146.183)" fill="#ff6c8f"/>
          <path id="패스_5061" data-name="패스 5061" d="M404.678,158.81l-.6.345v4.729h.175l.423-.244Z" transform="translate(-357.285 -146.386)" fill="#ff6c8f"/>
          <path id="패스_5062" data-name="패스 5062" d="M404.678,158.274v.333l.578-.333H404.08v.679l.6-.346Z" transform="translate(-357.285 -146.183)" fill="#ff6c8f"/>
          <path id="패스_5063" data-name="패스 5063" d="M405.042,166.615h.6v-.589l-.6.344Z" transform="translate(-357.65 -149.115)" fill="#ff6c8f"/>
          <path id="패스_5064" data-name="패스 5064" d="M404.362,166.824h.423v-.244Z" transform="translate(-357.392 -149.325)" fill="#ff6c8f"/>
          <path id="패스_5065" data-name="패스 5065" d="M331.008,287.269c-.022.266-.055.542-.1.83a3.062,3.062,0,0,1-.232.8,1.4,1.4,0,0,1-.432.6,1.39,1.39,0,0,1-.863.365,1.82,1.82,0,0,1-.9.1,3.054,3.054,0,0,1-.8-.233,1.89,1.89,0,0,1-.681-.713,3.482,3.482,0,0,1-.316-.88,4.581,4.581,0,0,1-.1-.963v-3.52l-.033-5.08v-1.378c0-.166-.006-.354-.017-.565s-.017-.515-.017-.913c0-.067,0-.183.017-.348s-.006-.615-.05-1.345q-1.295,2.159-2.142,3.47a23.71,23.71,0,0,1-1.428,2.025,4.1,4.1,0,0,1-1.013.963,2.067,2.067,0,0,1-.9.282.908.908,0,0,1-.531-.1,2.883,2.883,0,0,1-.515-.332,5.525,5.525,0,0,1-.465-.415,2.707,2.707,0,0,1-.348-.415q-.8-1-1.793-2.391a30.828,30.828,0,0,1-2.058-3.386q0,.033-.017,1.1t-.017,2.64q0,1.578-.017,3.387t-.033,3.37q-.017,1.561-.05,2.606a6.349,6.349,0,0,1-.066,1.046,2.137,2.137,0,0,1-.266,1.046,2.2,2.2,0,0,1-.714.78,2.055,2.055,0,0,1-1.046.332,2.512,2.512,0,0,1-1.3-.332,1.634,1.634,0,0,1-.647-.764,3.82,3.82,0,0,1-.282-.93q-.033-.466-.049-.9c-.012-.288-.017-.586-.017-.9l.033-2.59.033-5.113v-4.45q0-2.888.2-5.678a2.674,2.674,0,0,1,.083-.681,4.038,4.038,0,0,1,.216-.615,1.917,1.917,0,0,1,.7-.8,2.032,2.032,0,0,1,1.063-.3c.155,0,.3.006.448.017s.282.028.415.05a1.885,1.885,0,0,1,1.146.78,13.167,13.167,0,0,0,.913,1.113,7.784,7.784,0,0,1,.564.73q.3.432.6.9t.565.9q.265.432.465.764.863,1.394,1.544,2.557t1.278,1.992a2.417,2.417,0,0,0,.232-.282q.132-.182.282-.4c.1-.144.187-.282.266-.415s.138-.243.182-.332q.332-.531.664-1.046t.714-1.1q.382-.581.8-1.279t.979-1.594q.233-.4.6-.962a9.488,9.488,0,0,1,.83-1.1,6.289,6.289,0,0,1,.98-.913,1.744,1.744,0,0,1,1.046-.382c.177,0,.332.006.465.017s.266.028.4.05a1.3,1.3,0,0,1,.764.365,1.9,1.9,0,0,1,.4.565,4.176,4.176,0,0,1,.166.73q.032.233.05.432c.011.133.017.266.017.4q0,1.86.033,3.685t.033,3.685q0,2.258.017,4.649t.017,4.648q0,.466.033,1a8.563,8.563,0,0,1,0,1.063" transform="translate(-310.787 -183.678)" fill="#ffe6e6"/>
          <path id="패스_5066" data-name="패스 5066" d="M331.008,287.269c-.022.266-.055.542-.1.83a3.062,3.062,0,0,1-.232.8,1.4,1.4,0,0,1-.432.6,1.39,1.39,0,0,1-.863.365,1.82,1.82,0,0,1-.9.1,3.054,3.054,0,0,1-.8-.233,1.89,1.89,0,0,1-.681-.713,3.482,3.482,0,0,1-.316-.88,4.581,4.581,0,0,1-.1-.963v-3.52l-.033-5.08v-1.378c0-.166-.006-.354-.017-.565s-.017-.515-.017-.913c0-.067,0-.183.017-.348s-.006-.615-.05-1.345q-1.295,2.159-2.142,3.47a23.71,23.71,0,0,1-1.428,2.025,4.1,4.1,0,0,1-1.013.963,2.067,2.067,0,0,1-.9.282.908.908,0,0,1-.531-.1,2.883,2.883,0,0,1-.515-.332,5.525,5.525,0,0,1-.465-.415,2.707,2.707,0,0,1-.348-.415q-.8-1-1.793-2.391a30.828,30.828,0,0,1-2.058-3.386q0,.033-.017,1.1t-.017,2.64q0,1.578-.017,3.387t-.033,3.37q-.017,1.561-.05,2.606a6.349,6.349,0,0,1-.066,1.046,2.137,2.137,0,0,1-.266,1.046,2.2,2.2,0,0,1-.714.78,2.055,2.055,0,0,1-1.046.332,2.512,2.512,0,0,1-1.3-.332,1.634,1.634,0,0,1-.647-.764,3.82,3.82,0,0,1-.282-.93q-.033-.466-.049-.9c-.012-.288-.017-.586-.017-.9l.033-2.59.033-5.113v-4.45q0-2.888.2-5.678a2.674,2.674,0,0,1,.083-.681,4.038,4.038,0,0,1,.216-.615,1.917,1.917,0,0,1,.7-.8,2.032,2.032,0,0,1,1.063-.3c.155,0,.3.006.448.017s.282.028.415.05a1.885,1.885,0,0,1,1.146.78,13.167,13.167,0,0,0,.913,1.113,7.784,7.784,0,0,1,.564.73q.3.432.6.9t.565.9q.265.432.465.764.863,1.394,1.544,2.557t1.278,1.992a2.417,2.417,0,0,0,.232-.282q.132-.182.282-.4c.1-.144.187-.282.266-.415s.138-.243.182-.332q.332-.531.664-1.046t.714-1.1q.382-.581.8-1.279t.979-1.594q.233-.4.6-.962a9.488,9.488,0,0,1,.83-1.1,6.289,6.289,0,0,1,.98-.913,1.744,1.744,0,0,1,1.046-.382c.177,0,.332.006.465.017s.266.028.4.05a1.3,1.3,0,0,1,.764.365,1.9,1.9,0,0,1,.4.565,4.176,4.176,0,0,1,.166.73q.032.233.05.432c.011.133.017.266.017.4q0,1.86.033,3.685t.033,3.685q0,2.258.017,4.649t.017,4.648q0,.466.033,1A8.563,8.563,0,0,1,331.008,287.269Z" transform="translate(-310.787 -183.678)" fill="none" stroke="#f16c8e" stroke-miterlimit="10" stroke-width="2"/>
          <path id="패스_5067" data-name="패스 5067" d="M378.152,267.671a1.135,1.135,0,0,1,.017.332,1.07,1.07,0,0,1-.116.366,5.97,5.97,0,0,1-.3.83,2.869,2.869,0,0,1-.5.8c-.089.133-.172.26-.249.382s-.149.238-.216.349l-.432.564-4.25,6.143-.763.963v8.832a.869.869,0,0,0-.067.332,2.311,2.311,0,0,1-.033.366,2.006,2.006,0,0,0-.1.315,2.073,2.073,0,0,1-.1.316.5.5,0,0,0-.067.2l-.05.1-.05.1a2.059,2.059,0,0,1-.564.6,2.466,2.466,0,0,1-1.66.166,1.335,1.335,0,0,1-.8-.332.915.915,0,0,1-.266-.233,3.519,3.519,0,0,1-.2-.3q-.067-.2-.133-.365a1.85,1.85,0,0,1-.1-.332.847.847,0,0,1-.067-.316V278.5l-.73-1.129-4.317-6.109-.365-.6q-.2-.3-.5-.7a4.67,4.67,0,0,1-.465-.8,2.086,2.086,0,0,1-.216-.415c-.056-.144-.105-.294-.15-.448a1.354,1.354,0,0,1-.033-.664,1.483,1.483,0,0,1,.4-.731,2.757,2.757,0,0,1,.7-.465,1.489,1.489,0,0,1,1.063-.266,1.4,1.4,0,0,1,.631.133c.177.089.354.189.531.3q.3.233.581.5a5.017,5.017,0,0,1,.515.564q.266.332.5.615a6.7,6.7,0,0,1,.465.647l.1.133q.8,1.063,1.494,2.042t1.461,2.108a2.075,2.075,0,0,1,.2.266c.088.133.187.288.3.465q.133-.232.249-.415a1.579,1.579,0,0,1,.183-.249q.763-1.128,1.461-2.125t1.494-2.059l.067-.133a6.282,6.282,0,0,0,.481-.614q.215-.316.481-.648a3.764,3.764,0,0,1,1.162-1.029,2.778,2.778,0,0,1,1.1-.465,1.544,1.544,0,0,1,1.1.266c.133.089.26.165.382.232a1.385,1.385,0,0,1,.316.233,2.383,2.383,0,0,1,.432.73" transform="translate(-336.07 -183.77)" fill="#ffe6e6"/>
          <path id="패스_5068" data-name="패스 5068" d="M378.152,267.671a1.135,1.135,0,0,1,.017.332,1.07,1.07,0,0,1-.116.366,5.97,5.97,0,0,1-.3.83,2.869,2.869,0,0,1-.5.8c-.089.133-.172.26-.249.382s-.149.238-.216.349l-.432.564-4.25,6.143-.763.963v8.832a.869.869,0,0,0-.067.332,2.311,2.311,0,0,1-.033.366,2.006,2.006,0,0,0-.1.315,2.073,2.073,0,0,1-.1.316.5.5,0,0,0-.067.2l-.05.1-.05.1a2.059,2.059,0,0,1-.564.6,2.466,2.466,0,0,1-1.66.166,1.335,1.335,0,0,1-.8-.332.915.915,0,0,1-.266-.233,3.519,3.519,0,0,1-.2-.3q-.067-.2-.133-.365a1.85,1.85,0,0,1-.1-.332.847.847,0,0,1-.067-.316V278.5l-.73-1.129-4.317-6.109-.365-.6q-.2-.3-.5-.7a4.67,4.67,0,0,1-.465-.8,2.086,2.086,0,0,1-.216-.415c-.056-.144-.105-.294-.15-.448a1.354,1.354,0,0,1-.033-.664,1.483,1.483,0,0,1,.4-.731,2.757,2.757,0,0,1,.7-.465,1.489,1.489,0,0,1,1.063-.266,1.4,1.4,0,0,1,.631.133c.177.089.354.189.531.3q.3.233.581.5a5.017,5.017,0,0,1,.515.564q.266.332.5.615a6.7,6.7,0,0,1,.465.647l.1.133q.8,1.063,1.494,2.042t1.461,2.108a2.075,2.075,0,0,1,.2.266c.088.133.187.288.3.465q.133-.232.249-.415a1.579,1.579,0,0,1,.183-.249q.763-1.128,1.461-2.125t1.494-2.059l.067-.133a6.282,6.282,0,0,0,.481-.614q.215-.316.481-.648a3.764,3.764,0,0,1,1.162-1.029,2.778,2.778,0,0,1,1.1-.465,1.544,1.544,0,0,1,1.1.266c.133.089.26.165.382.232a1.385,1.385,0,0,1,.316.233A2.383,2.383,0,0,1,378.152,267.671Z" transform="translate(-336.07 -183.77)" fill="none" stroke="#ff6c8f" stroke-miterlimit="10" stroke-width="2"/>
          <path id="패스_5069" data-name="패스 5069" d="M419.3,284.09a2.226,2.226,0,0,1,.033,1.876,4.825,4.825,0,0,1-1.262,1.677,10.067,10.067,0,0,1-4.084,2.125,10.445,10.445,0,0,1-2.308.216,11.454,11.454,0,0,1-4.781-1.129,10.176,10.176,0,0,1-2.108-1.345,6.8,6.8,0,0,1-1.81-2.308,11.843,11.843,0,0,1-.946-2.872,16.885,16.885,0,0,1-.315-3.071q-.018-1.544.083-2.905a12.4,12.4,0,0,1,.5-2.557,12.98,12.98,0,0,1,1.113-2.606,12.363,12.363,0,0,1,1.726-2.374,9.61,9.61,0,0,1,2.374-1.86,6.823,6.823,0,0,1,2.308-.813,10.131,10.131,0,0,1,2.59-.1,9.285,9.285,0,0,1,2.491.565,6.174,6.174,0,0,1,2.009,1.212,7.294,7.294,0,0,1,1.112,1.3,6.1,6.1,0,0,1,.847,1.693,2.59,2.59,0,0,1,.017,1.61,2.187,2.187,0,0,1-2.175,1.063,1.784,1.784,0,0,1-.664-.3,3.458,3.458,0,0,1-.565-.515q-.266-.3-.5-.6a4.029,4.029,0,0,0-1.859-1.312,4.3,4.3,0,0,0-2.108-.166,4.658,4.658,0,0,0-3.37,2.606,12.515,12.515,0,0,0-.847,2.474,13.25,13.25,0,0,0-.348,2.722,11.2,11.2,0,0,0,.249,2.673,6.278,6.278,0,0,0,.98,2.291,4.421,4.421,0,0,0,1.311,1.295,5.178,5.178,0,0,0,1.677.7,4.957,4.957,0,0,0,1.81.067,5.34,5.34,0,0,0,1.776-.6,3.463,3.463,0,0,0,.581-.382q.315-.249.647-.515t.681-.5a2.378,2.378,0,0,1,.747-.332,2.059,2.059,0,0,1,1.312.033,1.809,1.809,0,0,1,1.079.963" transform="translate(-357.226 -183.687)" fill="#ffe6e6"/>
          <path id="패스_5070" data-name="패스 5070" d="M419.3,284.09a2.226,2.226,0,0,1,.033,1.876,4.825,4.825,0,0,1-1.262,1.677,10.067,10.067,0,0,1-4.084,2.125,10.445,10.445,0,0,1-2.308.216,11.454,11.454,0,0,1-4.781-1.129,10.176,10.176,0,0,1-2.108-1.345,6.8,6.8,0,0,1-1.81-2.308,11.843,11.843,0,0,1-.946-2.872,16.885,16.885,0,0,1-.315-3.071q-.018-1.544.083-2.905a12.4,12.4,0,0,1,.5-2.557,12.98,12.98,0,0,1,1.113-2.606,12.363,12.363,0,0,1,1.726-2.374,9.61,9.61,0,0,1,2.374-1.86,6.823,6.823,0,0,1,2.308-.813,10.131,10.131,0,0,1,2.59-.1,9.285,9.285,0,0,1,2.491.565,6.174,6.174,0,0,1,2.009,1.212,7.294,7.294,0,0,1,1.112,1.3,6.1,6.1,0,0,1,.847,1.693,2.59,2.59,0,0,1,.017,1.61,2.187,2.187,0,0,1-2.175,1.063,1.784,1.784,0,0,1-.664-.3,3.458,3.458,0,0,1-.565-.515q-.266-.3-.5-.6a4.029,4.029,0,0,0-1.859-1.312,4.3,4.3,0,0,0-2.108-.166,4.658,4.658,0,0,0-3.37,2.606,12.515,12.515,0,0,0-.847,2.474,13.25,13.25,0,0,0-.348,2.722,11.2,11.2,0,0,0,.249,2.673,6.278,6.278,0,0,0,.98,2.291,4.421,4.421,0,0,0,1.311,1.295,5.178,5.178,0,0,0,1.677.7,4.957,4.957,0,0,0,1.81.067,5.34,5.34,0,0,0,1.776-.6,3.463,3.463,0,0,0,.581-.382q.315-.249.647-.515t.681-.5a2.378,2.378,0,0,1,.747-.332,2.059,2.059,0,0,1,1.312.033A1.809,1.809,0,0,1,419.3,284.09Z" transform="translate(-357.226 -183.687)" fill="none" stroke="#f16c8e" stroke-miterlimit="10" stroke-width="2"/>
          <path id="패스_5071" data-name="패스 5071" d="M452.777,270.308l-.067,5.213h1.328q1.361-.033,2.424-.033t2.358.033h.166q.4,0,.78.017t.747.017a5.566,5.566,0,0,1,.763.116q.365.083.731.182a2.25,2.25,0,0,1,.93.6,1.541,1.541,0,0,1,.332.962v.382a1.023,1.023,0,0,1-.067.382,1.125,1.125,0,0,1-.432.664,1,1,0,0,1-.631.332,3.9,3.9,0,0,1-.864.166,4.419,4.419,0,0,1-.93.1h-1.56l-6.143.033-.066,6.508,6.607.067h2.058a2.654,2.654,0,0,1,.432.033,2.86,2.86,0,0,0,.481.083,1.75,1.75,0,0,1,.415.083,1.931,1.931,0,0,1,.664.365,1.582,1.582,0,0,1,.432.7,3.358,3.358,0,0,1,.05.349,1.516,1.516,0,0,1-.017.382,1.547,1.547,0,0,1-.332.963,1.788,1.788,0,0,1-.93.6,3.842,3.842,0,0,1-1.528.3c-.244.022-.5.033-.764.033s-.521.011-.764.033h-.2q-2.59.066-5.379,0-.665,0-1.063-.017c-.266-.012-.5-.017-.714-.017h-1.511a1.918,1.918,0,0,1-1.261-.266,1.557,1.557,0,0,1-.565-.631.286.286,0,0,1-.1-.2.39.39,0,0,0-.066-.1.368.368,0,0,1-.067-.1,1.79,1.79,0,0,1-.1-.348,1.962,1.962,0,0,1-.033-.349,3.339,3.339,0,0,1-.049-.332c-.012-.111-.028-.221-.05-.332v-.531a2.1,2.1,0,0,1,.017-.266,2.2,2.2,0,0,0,.017-.266v-2.59l.066-4.782v-4.416q0-1.2.017-2.125t.05-2.025v-.166q.033-.365.05-.681t.017-.647a3.079,3.079,0,0,1,.366-1.3,3.034,3.034,0,0,1,.282-.465,1.144,1.144,0,0,1,.415-.332,1.97,1.97,0,0,1,1.029-.3,1.777,1.777,0,0,1,.4.034v-.034h1.677c.232,0,.481,0,.747-.016s.631-.017,1.1-.017q1.328-.033,2.523-.034t2.457.034h.133c.244.022.5.033.764.033s.52.012.764.034a3.323,3.323,0,0,1,.73.083,6.291,6.291,0,0,1,.731.216,2,2,0,0,1,.93.565,1.71,1.71,0,0,1,.3.93v.382a.932.932,0,0,1-.067.349,1.205,1.205,0,0,1-.4.7,2.719,2.719,0,0,0-.282.166,1.441,1.441,0,0,1-.349.166,1.674,1.674,0,0,1-.415.083c-.144.012-.282.028-.415.05a1.969,1.969,0,0,1-.481.067h-1.976l-6.641.033Z" transform="translate(-380.978 -183.85)" fill="#ffe6e6"/>
          <path id="패스_5072" data-name="패스 5072" d="M452.777,270.308l-.067,5.213h1.328q1.361-.033,2.424-.033t2.358.033h.166q.4,0,.78.017t.747.017a5.566,5.566,0,0,1,.763.116q.365.083.731.182a2.25,2.25,0,0,1,.93.6,1.541,1.541,0,0,1,.332.962v.382a1.023,1.023,0,0,1-.067.382,1.125,1.125,0,0,1-.432.664,1,1,0,0,1-.631.332,3.9,3.9,0,0,1-.864.166,4.419,4.419,0,0,1-.93.1h-1.56l-6.143.033-.066,6.508,6.607.067h2.058a2.654,2.654,0,0,1,.432.033,2.86,2.86,0,0,0,.481.083,1.75,1.75,0,0,1,.415.083,1.931,1.931,0,0,1,.664.365,1.582,1.582,0,0,1,.432.7,3.358,3.358,0,0,1,.05.349,1.516,1.516,0,0,1-.017.382,1.547,1.547,0,0,1-.332.963,1.788,1.788,0,0,1-.93.6,3.842,3.842,0,0,1-1.528.3c-.244.022-.5.033-.764.033s-.521.011-.764.033h-.2q-2.59.066-5.379,0-.665,0-1.063-.017c-.266-.012-.5-.017-.714-.017h-1.511a1.918,1.918,0,0,1-1.261-.266,1.557,1.557,0,0,1-.565-.631.286.286,0,0,1-.1-.2.39.39,0,0,0-.066-.1.368.368,0,0,1-.067-.1,1.79,1.79,0,0,1-.1-.348,1.962,1.962,0,0,1-.033-.349,3.339,3.339,0,0,1-.049-.332c-.012-.111-.028-.221-.05-.332v-.531a2.1,2.1,0,0,1,.017-.266,2.2,2.2,0,0,0,.017-.266v-2.59l.066-4.782v-4.416q0-1.2.017-2.125t.05-2.025v-.166q.033-.365.05-.681t.017-.647a3.079,3.079,0,0,1,.366-1.3,3.034,3.034,0,0,1,.282-.465,1.144,1.144,0,0,1,.415-.332,1.97,1.97,0,0,1,1.029-.3,1.777,1.777,0,0,1,.4.034v-.034h1.677c.232,0,.481,0,.747-.016s.631-.017,1.1-.017q1.328-.033,2.523-.034t2.457.034h.133c.244.022.5.033.764.033s.52.012.764.034a3.323,3.323,0,0,1,.73.083,6.291,6.291,0,0,1,.731.216,2,2,0,0,1,.93.565,1.71,1.71,0,0,1,.3.93v.382a.932.932,0,0,1-.067.349,1.205,1.205,0,0,1-.4.7,2.719,2.719,0,0,0-.282.166,1.441,1.441,0,0,1-.349.166,1.674,1.674,0,0,1-.415.083c-.144.012-.282.028-.415.05a1.969,1.969,0,0,1-.481.067h-1.976l-6.641.033Z" transform="translate(-380.978 -183.85)" fill="none" stroke="#f16c8e" stroke-miterlimit="10" stroke-width="2"/>
        </g>
        <path id="패스_5073" data-name="패스 5073" d="M616.885,463.517,605.036,445.89l-11.848-17.626h47.394l-11.848,17.627Z" transform="translate(-219.059 -120.751)" fill="#d6b1dd" fill-rule="evenodd"/>
        <path id="패스_5074" data-name="패스 5074" d="M616.328,463.672l-11.844-17.62-11.849-17.626a.515.515,0,0,1,.428-.8v0h47.394a.517.517,0,0,1,.4.839l-11.826,17.591-11.848,17.626a.515.515,0,0,1-.715.141.508.508,0,0,1-.146-.147M605.34,445.478l11.421,16.99,11.421-16.99,11.309-16.823H594.031Z" transform="translate(-218.934 -120.626)" fill="#3c3344" fill-rule="evenodd"/>
        <path id="패스_5075" data-name="패스 5075" d="M640.818,426.071l-5.953-4.207-5.953-4.206H605.1l-5.953,4.206-5.953,4.207,5.953,4.207,5.953,4.207h23.811l5.953-4.207Z" transform="translate(-219.061 -118.683)" fill="#f1d3f8" fill-rule="evenodd"/>
        <path id="패스_5076" data-name="패스 5076" d="M639.8,425.946l-5.355-3.785-5.819-4.111H605.139l-5.818,4.111-5.356,3.785,5.356,3.784,5.818,4.112h23.486l5.819-4.112Zm-4.762-4.628,5.944,4.2a.5.5,0,0,1,.134.131.516.516,0,0,1-.125.719l-5.953,4.207-5.928,4.188a.513.513,0,0,1-.322.113H604.976a.513.513,0,0,1-.3-.094l-5.953-4.206-5.943-4.2a.508.508,0,0,1-.134-.131.516.516,0,0,1,.125-.719l5.953-4.207,5.928-4.188a.513.513,0,0,1,.322-.113h23.811a.508.508,0,0,1,.3.094Z" transform="translate(-218.936 -118.557)" fill="#3c3344" fill-rule="evenodd"/>
        <path id="패스_5077" data-name="패스 5077" d="M646.6,427.114l-.214-.151-23.554-3.956,11.947,12.461,5.867-4.147Z" transform="translate(-224.841 -119.726)" fill="#d6c5e8" fill-rule="evenodd"/>
        <path id="패스_5078" data-name="패스 5078" d="M646.556,426.416l.205.145a.5.5,0,0,1,.134.131.516.516,0,0,1-.125.719l-5.953,4.206-5.867,4.147h0a.516.516,0,0,1-.668-.064l-11.934-12.449a.516.516,0,0,1,.444-.879l23.543,3.955a.5.5,0,0,1,.223.089m-1.271.781-21.131-3.55,10.563,11.017,5.507-3.891Z" transform="translate(-224.716 -119.601)" fill="#3c3344" fill-rule="evenodd"/>
        <path id="패스_5079" data-name="패스 5079" d="M631.646,417.86H608.337l11.492,4.173Z" transform="translate(-222.014 -118.722)" fill="#d6b1dd" fill-rule="evenodd"/>
        <path id="패스_5080" data-name="패스 5080" d="M628.508,418.252H611.145l8.56,3.108Zm-20.3-1.034h23.309a.516.516,0,0,1,.171,1l-11.818,4.173h0a.509.509,0,0,1-.347,0l-11.456-4.159a.517.517,0,0,1,.14-1.014" transform="translate(-221.889 -118.597)" fill="#3c3344" fill-rule="evenodd"/>
        <path id="패스_5081" data-name="패스 5081" d="M607.8,435.427l.153.108H631.76l.025-.018-2.164-2.242-9.874-10.233-9.874,10.233Z" transform="translate(-221.909 -119.733)" fill="#f7e4fc" fill-rule="evenodd"/>
        <path id="패스_5082" data-name="패스 5082" d="M607.528,435.831l-.153-.108a.577.577,0,0,1-.06-.05.516.516,0,0,1-.015-.729l2.077-2.151,9.874-10.233.014-.014a.515.515,0,0,1,.729.014l9.874,10.233,2.164,2.241h0a.592.592,0,0,1,.049.06.538.538,0,0,1-.444.831H607.824a.513.513,0,0,1-.3-.094m1.255-.939h21.679l-1.336-1.385-9.5-9.848-9.5,9.848Z" transform="translate(-221.784 -119.608)" fill="#3c3344" fill-rule="evenodd"/>
        <path id="패스_5083" data-name="패스 5083" d="M619.557,465.374l-8.095-17.627-4.575-9.961.884.625h23.811l.528-.374-4.459,9.711Z" transform="translate(-221.731 -122.608)" fill="#f1d3f8" fill-rule="evenodd"/>
        <path id="패스_5084" data-name="패스 5084" d="M618.963,465.462l-8.094-17.626-4.575-9.962a.515.515,0,0,1,.765-.635h0l.75.53H631.3l.394-.279a.516.516,0,0,1,.751.666L628,447.836l-8.1,17.626a.516.516,0,0,1-.937,0m-7.157-18.054,7.626,16.607,7.627-16.607,3.952-8.607H607.853Z" transform="translate(-221.607 -122.483)" fill="#3c3344" fill-rule="evenodd"/>
        <path id="패스_5085" data-name="패스 5085" d="M593.043,427.114l.214-.151,23.554-3.956-11.947,12.461L599,431.321Z" transform="translate(-219.031 -119.726)" fill="#e5cff1" fill-rule="evenodd"/>
        <path id="패스_5086" data-name="패스 5086" d="M592.63,426.561l.205-.145a.5.5,0,0,1,.224-.089l23.543-3.956a.516.516,0,0,1,.443.879L605.111,435.7a.516.516,0,0,1-.668.064l-5.868-4.147-5.953-4.206a.516.516,0,0,1-.125-.719.5.5,0,0,1,.134-.131m.429-.233.5.213a.515.515,0,0,0-.5-.213m22.178-2.68-21.131,3.55,5.062,3.576,5.506,3.892Z" transform="translate(-218.906 -119.601)" fill="#3c3344" fill-rule="evenodd"/>
        <path id="패스_5087" data-name="패스 5087" d="M608.814,416.1l11.5-42.91,10.852,42.91Z" transform="translate(-222.107 -110.009)" fill="#f1d3f8" fill-rule="evenodd"/>
        <path id="패스_5088" data-name="패스 5088" d="M608.814,416.1l11.5-42.91,10.852,42.91Z" transform="translate(-222.107 -110.009)" fill="none" stroke="#3c3344" stroke-linecap="round" stroke-linejoin="round" stroke-width="1.5"/>
        <path id="패스_5089" data-name="패스 5089" d="M593.78,407.332l12.1,8.768,11.5-42.911Z" transform="translate(-219.175 -110.009)" fill="#f1d3f8" fill-rule="evenodd"/>
        <path id="패스_5090" data-name="패스 5090" d="M593.78,407.332l12.1,8.768,11.5-42.911Z" transform="translate(-219.175 -110.009)" fill="none" stroke="#3c3344" stroke-linecap="round" stroke-linejoin="round" stroke-width="1.5"/>
        <path id="패스_5091" data-name="패스 5091" d="M646.058,407.332l-12.1,8.768L623.1,373.189Z" transform="translate(-224.894 -110.009)" fill="#f1d3f8" fill-rule="evenodd"/>
        <path id="패스_5092" data-name="패스 5092" d="M646.058,407.332l-12.1,8.768L623.1,373.189Z" transform="translate(-224.894 -110.009)" fill="none" stroke="#3c3344" stroke-linecap="round" stroke-linejoin="round" stroke-width="1.5"/>
        <path id="패스_5093" data-name="패스 5093" d="M758.854,220.639h-32.83c-2.887,0-5.227,1.609-5.227,3.594v44.735c0,1.985,2.34,3.595,5.227,3.595h32.83c2.886,0,5.227-1.61,5.227-3.595V224.233c0-1.985-2.34-3.594-5.227-3.594" transform="translate(-271.225 -70.488)" fill="#f08fa2"/>
        <path id="패스_5094" data-name="패스 5094" d="M758.854,220.639h-32.83c-2.887,0-5.227,1.609-5.227,3.594v44.735c0,1.985,2.34,3.595,5.227,3.595h32.83c2.886,0,5.227-1.61,5.227-3.595V224.233C764.08,222.248,761.74,220.639,758.854,220.639Z" transform="translate(-271.225 -70.488)" fill="none" stroke="#3c3344" stroke-miterlimit="10" stroke-width="2"/>
        <path id="패스_5095" data-name="패스 5095" d="M792.437,230.662H773.075c-1.7,0-3.082.976-3.082,2.179v27.127c0,1.2,1.38,2.18,3.082,2.18h19.362c1.7,0,3.082-.976,3.082-2.18V232.841c0-1.2-1.38-2.179-3.082-2.179" transform="translate(-280.82 -72.443)" fill="#fed9a2"/>
        <path id="패스_5096" data-name="패스 5096" d="M792.437,230.662H773.075c-1.7,0-3.082.976-3.082,2.179v27.127c0,1.2,1.38,2.18,3.082,2.18h19.362c1.7,0,3.082-.976,3.082-2.18V232.841C795.52,231.638,794.14,230.662,792.437,230.662Z" transform="translate(-280.82 -72.443)" fill="none" stroke="#3c3344" stroke-linecap="round" stroke-linejoin="round" stroke-width="2"/>
        <path id="패스_5097" data-name="패스 5097" d="M762.177,251.517h-6.792V214.534a2.432,2.432,0,0,1,2.432-2.432h1.928a2.432,2.432,0,0,1,2.432,2.432Z" transform="translate(-277.971 -68.823)" fill="#fff"/>
        <path id="패스_5098" data-name="패스 5098" d="M762.177,251.517h-6.792V214.534a2.432,2.432,0,0,1,2.432-2.432h1.928a2.432,2.432,0,0,1,2.432,2.432Z" transform="translate(-277.971 -68.823)" fill="none" stroke="#3c3344" stroke-linecap="round" stroke-linejoin="round" stroke-width="2"/>
        <path id="패스_5099" data-name="패스 5099" d="M786.757,263.755h-73.3a2.541,2.541,0,0,1-2.541-2.541V259.2a2.541,2.541,0,0,1,2.541-2.541h73.3A2.541,2.541,0,0,1,789.3,259.2v2.014a2.541,2.541,0,0,1-2.541,2.541" transform="translate(-269.298 -77.514)" fill="#fff"/>
        <rect id="사각형_384" data-name="사각형 384" width="78.378" height="7.096" rx="3.157" transform="translate(441.621 179.145)" fill="none" stroke="#3c3344" stroke-linecap="round" stroke-linejoin="round" stroke-width="2"/>
        <path id="패스_5100" data-name="패스 5100" d="M778.72,299.732h-55.5l-7.889-34.257h71.281Z" transform="translate(-270.158 -79.233)" fill="#e6fbff"/>
        <path id="패스_5101" data-name="패스 5101" d="M778.72,299.732h-55.5l-7.889-34.257h71.281Z" transform="translate(-270.158 -79.233)" fill="none" stroke="#3c3344" stroke-miterlimit="10" stroke-width="2"/>
        <path id="패스_5102" data-name="패스 5102" d="M764.917,259.368a7.011,7.011,0,1,1-7.011-7.011,7.012,7.012,0,0,1,7.011,7.011" transform="translate(-277.095 -76.674)" fill="#fff"/>
        <circle id="타원_138" data-name="타원 138" cx="7.011" cy="7.011" r="7.011" transform="translate(472.767 176.896) rotate(-9.217)" fill="none" stroke="#3c3344" stroke-linecap="round" stroke-linejoin="round" stroke-width="2"/>
        <line id="선_291" data-name="선 291" x2="6.751" transform="translate(455.327 157.213)" fill="none" stroke="#3c3344" stroke-linecap="round" stroke-linejoin="round" stroke-width="3"/>
        <line id="선_292" data-name="선 292" x2="4.102" transform="translate(455.327 162.49)" fill="none" stroke="#3c3344" stroke-linecap="round" stroke-linejoin="round" stroke-width="3"/>
        <line id="선_293" data-name="선 293" x1="3.289" y2="16.547" transform="translate(499.63 195.097)" fill="none" stroke="#3c3344" stroke-linecap="round" stroke-linejoin="round" stroke-width="2"/>
        <line id="선_294" data-name="선 294" x1="3.289" y1="16.547" transform="translate(458.703 195.097)" fill="none" stroke="#3c3344" stroke-linecap="round" stroke-linejoin="round" stroke-width="2"/>
        <line id="선_295" data-name="선 295" x1="1.096" y1="16.547" transform="translate(473.441 195.097)" fill="none" stroke="#3c3344" stroke-linecap="round" stroke-linejoin="round" stroke-width="2"/>
        <line id="선_296" data-name="선 296" y1="16.547" x2="1.096" transform="translate(487.084 195.097)" fill="none" stroke="#3c3344" stroke-linecap="round" stroke-linejoin="round" stroke-width="2"/>
        <path id="패스_5103" data-name="패스 5103" d="M670.881,12.8h-36.52a6.091,6.091,0,0,0-6.091,6.091V95.5a6.091,6.091,0,0,0,6.091,6.091h36.52a6.091,6.091,0,0,0,6.091-6.091V18.89a6.091,6.091,0,0,0-6.091-6.091" transform="translate(-207.919 -12.799)" fill="#4b87dd"/>
        <rect id="사각형_385" data-name="사각형 385" width="48.702" height="88.789" rx="7.567" transform="translate(420.352)" fill="none" stroke="#3c3344" stroke-miterlimit="10" stroke-width="2"/>
        <path id="패스_5104" data-name="패스 5104" d="M633.368,20.7V95.273a3.825,3.825,0,0,0,3.825,3.825h32.846a3.824,3.824,0,0,0,3.823-3.824V20.7a3.824,3.824,0,0,0-3.823-3.824H637.193a3.836,3.836,0,0,0-3.825,3.825" transform="translate(-208.913 -13.595)" fill="#eef6ff"/>
        <line id="선_297" data-name="선 297" x2="6.434" transform="translate(441.485 8.812)" fill="none" stroke="#3c3344" stroke-linecap="round" stroke-linejoin="round" stroke-width="2"/>
        <path id="패스_5105" data-name="패스 5105" d="M662.947,64.487q0-1.133-.008-2.334t-.009-2.322q0-.939-.017-1.861c-.01-.605-.016-1.214-.016-1.83,0-.089,0-.179-.011-.268s-.017-.165-.027-.237a2.816,2.816,0,0,0-.113-.512l-.035-.092a1.814,1.814,0,0,0-.394-.551,1.4,1.4,0,0,0-.792-.381c-.085-.014-.171-.025-.265-.034s-.185-.01-.3-.01a1.663,1.663,0,0,0-1,.349,3.881,3.881,0,0,0-.617.573,5.476,5.476,0,0,0-.487.642c-.13.2-.237.373-.3.491q-.29.46-.5.815-.2.333-.381.609l-.362.556-.126.2c-.22-.374-.467-.782-.735-1.215l-.239-.393c-.091-.147-.187-.3-.29-.461s-.209-.319-.315-.472a4.585,4.585,0,0,0-.353-.454,5.986,5.986,0,0,1-.4-.491,1.763,1.763,0,0,0-1.088-.7c-.086-.014-.175-.026-.278-.034a2.079,2.079,0,0,0-1.24.258,1.783,1.783,0,0,0-.663.757,2.777,2.777,0,0,0-.151.43,1.944,1.944,0,0,0-.066.489c-.068.946-.1,1.921-.1,2.9l-.033,6.085c0,.167,0,.327.009.48s.015.312.034.541a2.684,2.684,0,0,0,.2.663,1.642,1.642,0,0,0,.689.775,2.093,2.093,0,0,0,.972.26c.031,0,.063,0,.093,0a1.814,1.814,0,0,0,.927-.3,1.9,1.9,0,0,0,.615-.671,1.858,1.858,0,0,0,.233-.913h0a4.895,4.895,0,0,0,.035-.5c.01-.354.019-.794.025-1.323l.016-1.689c0-.291,0-.574.006-.847.178.238.337.446.472.61a2.064,2.064,0,0,0,.275.332,3.691,3.691,0,0,0,.3.267,2.288,2.288,0,0,0,.4.26,1.169,1.169,0,0,0,.682.132,1.842,1.842,0,0,0,.794-.248,2.737,2.737,0,0,0,.728-.671c.118-.146.25-.323.394-.529l.014,3.854a3.12,3.12,0,0,0,.068.65,2.556,2.556,0,0,0,.231.643,1.747,1.747,0,0,0,.62.663l.1.057a2.385,2.385,0,0,0,.609.178,1.682,1.682,0,0,0,.741-.055,1.4,1.4,0,0,0,.744-.328,1.462,1.462,0,0,0,.469-.613,2.337,2.337,0,0,0,.179-.609q.037-.244.056-.47l0-.019a5.148,5.148,0,0,0,0-.632c-.01-.159-.015-.308-.015-.448" transform="translate(-212.396 -20.845)" fill="#d3bb6e"/>
        <path id="패스_5106" data-name="패스 5106" d="M662.947,63.987q0-1.133-.008-2.334t-.009-2.322q0-.939-.017-1.861c-.01-.605-.016-1.214-.016-1.83,0-.089,0-.179-.011-.268s-.017-.165-.027-.237a2.816,2.816,0,0,0-.113-.512l-.035-.092a1.814,1.814,0,0,0-.394-.551,1.4,1.4,0,0,0-.792-.381c-.085-.014-.171-.025-.265-.034s-.185-.01-.3-.01a1.663,1.663,0,0,0-1,.349,3.881,3.881,0,0,0-.617.573,5.476,5.476,0,0,0-.487.642c-.13.2-.237.373-.3.491q-.29.46-.5.815-.2.333-.381.609l-.362.556-.126.2c-.22-.374-.467-.782-.735-1.215l-.239-.393c-.091-.147-.187-.3-.29-.461s-.209-.319-.315-.472a4.584,4.584,0,0,0-.353-.454,5.988,5.988,0,0,1-.4-.491,1.762,1.762,0,0,0-1.088-.7c-.086-.014-.175-.026-.278-.034a2.079,2.079,0,0,0-1.24.258,1.783,1.783,0,0,0-.663.757,2.777,2.777,0,0,0-.151.43,1.944,1.944,0,0,0-.066.489c-.068.946-.1,1.921-.1,2.9l-.033,6.085c0,.167,0,.327.009.48s.015.312.034.541a2.685,2.685,0,0,0,.2.663,1.642,1.642,0,0,0,.689.775,2.093,2.093,0,0,0,.972.26c.031,0,.063,0,.093,0a1.814,1.814,0,0,0,.927-.3,1.9,1.9,0,0,0,.615-.671,1.859,1.859,0,0,0,.233-.913h0a4.895,4.895,0,0,0,.035-.5c.01-.354.019-.794.025-1.323l.016-1.689c0-.291,0-.574.006-.847.178.238.337.446.472.61a2.064,2.064,0,0,0,.275.332,3.691,3.691,0,0,0,.3.267,2.288,2.288,0,0,0,.4.26,1.169,1.169,0,0,0,.682.132,1.842,1.842,0,0,0,.794-.248,2.736,2.736,0,0,0,.728-.671c.118-.146.25-.323.394-.529l.014,3.854a3.12,3.12,0,0,0,.068.65,2.556,2.556,0,0,0,.231.643,1.747,1.747,0,0,0,.62.663l.1.057a2.385,2.385,0,0,0,.609.178,1.682,1.682,0,0,0,.741-.055,1.4,1.4,0,0,0,.744-.328,1.462,1.462,0,0,0,.469-.613,2.337,2.337,0,0,0,.179-.609q.037-.244.056-.47l0-.019a5.148,5.148,0,0,0,0-.632c-.01-.159-.015-.308-.015-.448" transform="translate(-212.396 -20.748)" fill="#fdc374"/>
        <path id="패스_5107" data-name="패스 5107" d="M669.055,59.17a13.878,13.878,0,0,1-13.878,13.878c-18.408-.731-18.4-27.028,0-27.756A13.878,13.878,0,0,1,669.055,59.17Z" transform="translate(-210.474 -19.137)" fill="none" stroke="#fdc374" stroke-linecap="round" stroke-linejoin="round" stroke-width="1" stroke-dasharray="2.006 2.006 2.006 2.006 2.006 2.006"/>
        <rect id="사각형_386" data-name="사각형 386" width="56.428" height="27.169" transform="translate(388.275 52.72)" fill="#ff7767"/>
        <rect id="사각형_387" data-name="사각형 387" width="56.428" height="27.169" transform="translate(388.275 52.72)" fill="none" stroke="#3e3160" stroke-linecap="round" stroke-linejoin="round" stroke-width="3"/>
        <line id="선_298" data-name="선 298" x2="44.306" transform="translate(395.101 59.825)" fill="none" stroke="#fff" stroke-linejoin="round" stroke-width="2"/>
        <line id="선_299" data-name="선 299" x2="37.062" transform="translate(402.346 66.304)" fill="none" stroke="#fff" stroke-linejoin="round" stroke-width="2"/>
        <line id="선_300" data-name="선 300" x2="4.041" transform="translate(426.227 49.153)" fill="none" stroke="#fff" stroke-linejoin="round" stroke-width="2"/>
        <line id="선_301" data-name="선 301" x2="37.479" transform="translate(395.101 72.783)" fill="none" stroke="#fff" stroke-linejoin="round" stroke-width="2"/>
        <line id="선_302" data-name="선 302" x2="3.414" transform="translate(435.995 72.783)" fill="none" stroke="#fff" stroke-linejoin="round" stroke-width="2"/>
        <rect id="사각형_388" data-name="사각형 388" width="56.428" height="27.169" transform="translate(458.554 17.197)" fill="#fed9a2"/>
        <rect id="사각형_389" data-name="사각형 389" width="56.428" height="27.169" transform="translate(458.554 17.197)" fill="none" stroke="#3e3160" stroke-linecap="round" stroke-linejoin="round" stroke-width="3"/>
        <line id="선_303" data-name="선 303" x2="44.306" transform="translate(465.381 24.302)" fill="none" stroke="#fff" stroke-linejoin="round" stroke-width="2"/>
        <line id="선_304" data-name="선 304" x2="37.062" transform="translate(472.626 30.781)" fill="none" stroke="#fff" stroke-linejoin="round" stroke-width="2"/>
        <line id="선_305" data-name="선 305" x2="4.041" transform="translate(465.381 30.781)" fill="none" stroke="#fff" stroke-linejoin="round" stroke-width="2"/>
        <line id="선_306" data-name="선 306" x2="37.479" transform="translate(465.381 37.259)" fill="none" stroke="#fff" stroke-linejoin="round" stroke-width="2"/>
        <path id="패스_14611" data-name="패스 14611" d="M7.106.17a6.04,6.04,0,0,0,4.726-1.989L10.4-3.179A4.137,4.137,0,0,1,7.225-1.768,4.063,4.063,0,0,1,2.975-5.95a4.063,4.063,0,0,1,4.25-4.182A4.179,4.179,0,0,1,10.4-8.738l1.428-1.343A6.028,6.028,0,0,0,7.123-12.07,6.064,6.064,0,0,0,.748-5.95,6.06,6.06,0,0,0,7.106.17ZM16.745.119A4.578,4.578,0,0,0,21.59-4.539,4.565,4.565,0,0,0,16.745-9.18a4.569,4.569,0,0,0-4.828,4.641A4.583,4.583,0,0,0,16.745.119Zm0-1.819a2.64,2.64,0,0,1-2.686-2.839,2.64,2.64,0,0,1,2.686-2.839,2.644,2.644,0,0,1,2.7,2.839A2.644,2.644,0,0,1,16.745-1.7ZM28.373-9.18a3.947,3.947,0,0,0-3.128,1.275V-9.078H23.222V0h2.125V-4.59A2.411,2.411,0,0,1,27.88-7.327c1.36,0,2.159.782,2.159,2.4V0h2.125V-5.2C32.164-7.939,30.549-9.18,28.373-9.18Zm11.237,0a3.947,3.947,0,0,0-3.128,1.275V-9.078H34.459V0h2.125V-4.59a2.411,2.411,0,0,1,2.533-2.737c1.36,0,2.159.782,2.159,2.4V0H43.4V-5.2C43.4-7.939,41.786-9.18,39.61-9.18ZM54.4-4.488A4.427,4.427,0,0,0,49.81-9.18a4.515,4.515,0,0,0-4.692,4.641c0,2.7,1.972,4.658,5.015,4.658A4.6,4.6,0,0,0,53.788-1.36L52.649-2.669a3.253,3.253,0,0,1-2.465.986,2.748,2.748,0,0,1-2.941-2.176h7.123C54.383-4.063,54.4-4.318,54.4-4.488ZM49.81-7.48a2.471,2.471,0,0,1,2.567,2.21H47.226A2.509,2.509,0,0,1,49.81-7.48ZM60.2.119a4.127,4.127,0,0,0,3.876-2.125l-1.632-.952A2.569,2.569,0,0,1,60.18-1.7a2.655,2.655,0,0,1-2.754-2.839A2.664,2.664,0,0,1,60.18-7.378,2.569,2.569,0,0,1,62.441-6.12l1.632-.952A4.085,4.085,0,0,0,60.2-9.18a4.593,4.593,0,0,0-4.913,4.641A4.607,4.607,0,0,0,60.2.119ZM70.6-2.006a1.911,1.911,0,0,1-1.19.374c-.816,0-1.258-.476-1.258-1.36V-7.31h2.431v-1.7H68.153v-2.074H66.028V-9.01h-1.5v1.7h1.5v4.369A2.789,2.789,0,0,0,69.156.119,3.339,3.339,0,0,0,71.2-.493Zm11.084,0a1.911,1.911,0,0,1-1.19.374c-.816,0-1.258-.476-1.258-1.36V-7.31h2.431v-1.7H79.237v-2.074H77.112V-9.01h-1.5v1.7h1.5v4.369A2.789,2.789,0,0,0,80.24.119a3.339,3.339,0,0,0,2.04-.612ZM87.091.119a4.578,4.578,0,0,0,4.845-4.658A4.565,4.565,0,0,0,87.091-9.18a4.569,4.569,0,0,0-4.828,4.641A4.583,4.583,0,0,0,87.091.119Zm0-1.819a2.64,2.64,0,0,1-2.686-2.839,2.64,2.64,0,0,1,2.686-2.839,2.644,2.644,0,0,1,2.7,2.839A2.644,2.644,0,0,1,87.091-1.7Z" transform="translate(100.399 345.584)" fill="#3c3344"/>
      </g>
    </g>
  </g>
</svg>
