<svg xmlns="http://www.w3.org/2000/svg" width="97" height="48" viewBox="0 0 97 48">
  <g id="partners_froala" transform="translate(3537 2596)">
    <g id="partners_froala-2" data-name="partners_froala" transform="translate(-3537 -2653.9)">
      <g id="그룹_1764" data-name="그룹 1764" transform="translate(0 61.9)">
        <path id="패스_16426" data-name="패스 16426" d="M14.439,73.666A1.933,1.933,0,0,0,12.979,73H1.939A1.988,1.988,0,0,0,0,74.974V79.46a1.922,1.922,0,0,0,3.843,0V76.633h9.171a1.831,1.831,0,0,0,1.811-1.507A1.771,1.771,0,0,0,14.439,73.666Z" transform="translate(0 -71.703)" fill="#0098f7"/>
        <path id="패스_16427" data-name="패스 16427" d="M12.091,165.672a1.905,1.905,0,0,0-1.332-.572H1.846A1.85,1.85,0,0,0,0,166.946v10.362a1.934,1.934,0,0,0,.584,1.39,1.883,1.883,0,0,0,1.332.549h.023a1.92,1.92,0,0,0,1.916-1.928v-8.586h6.928a1.793,1.793,0,0,0,1.308-3.061Z" transform="translate(0 -153.044)" fill="#0098f7"/>
        <path id="패스_16428" data-name="패스 16428" d="M150.953,137.576a3.82,3.82,0,0,0-2.815-.876,4.449,4.449,0,0,0-4.264,2.745v-.666a1.887,1.887,0,1,0-3.773,0v13.493a1.887,1.887,0,0,0,3.773,0v-4.521c0-2.231.409-7.418,4.194-7.418a4.468,4.468,0,0,1,.689.035h.012c1.5.14,2.348-.315,2.523-1.367A1.618,1.618,0,0,0,150.953,137.576Z" transform="translate(-123.733 -127.962)" fill="#0098f7"/>
        <path id="패스_16429" data-name="패스 16429" d="M257.782,139.071a9.375,9.375,0,0,0-12.465,0,8.547,8.547,0,0,0-2.617,6.4,8.624,8.624,0,0,0,8.843,8.878,8.959,8.959,0,0,0,6.238-2.43,8.816,8.816,0,0,0,2.64-6.449A8.628,8.628,0,0,0,257.782,139.071Zm-1.133,6.4a5.106,5.106,0,1,1-10.21,0,5.105,5.105,0,0,1,10.21,0Z" transform="translate(-214.347 -127.962)" fill="#0098f7"/>
        <path id="패스_16430" data-name="패스 16430" d="M432.323,136.775a1.89,1.89,0,0,0-1.869,1.9v.117A7.331,7.331,0,0,0,425,136.6a8.562,8.562,0,0,0-6.04,2.383,8.751,8.751,0,0,0-2.558,6.425,8.882,8.882,0,0,0,2.558,6.425,8.563,8.563,0,0,0,6.04,2.418,7.261,7.261,0,0,0,5.456-2.266v.187a1.887,1.887,0,0,0,3.773.012h0v-13.5A1.912,1.912,0,0,0,432.323,136.775Zm-1.9,8.6a5.088,5.088,0,1,1-10.175,0,4.875,4.875,0,0,1,5.035-5.07,5.011,5.011,0,0,1,5.14,5.07Z" transform="translate(-367.755 -127.873)" fill="#0098f7"/>
        <path id="패스_16431" data-name="패스 16431" d="M609.368,61.9a1.89,1.89,0,0,0-1.869,1.9V86.2a1.887,1.887,0,1,0,3.773.012h0V63.8A1.912,1.912,0,0,0,609.368,61.9Z" transform="translate(-536.53 -61.9)" fill="#0098f7"/>
        <path id="패스_16432" data-name="패스 16432" d="M686.123,136.775a1.89,1.89,0,0,0-1.869,1.9v.117a7.331,7.331,0,0,0-5.456-2.2,8.562,8.562,0,0,0-6.04,2.383,8.751,8.751,0,0,0-2.558,6.425,8.882,8.882,0,0,0,2.558,6.425,8.562,8.562,0,0,0,6.04,2.418,7.261,7.261,0,0,0,5.456-2.266v.187a1.887,1.887,0,0,0,3.773.012h0v-13.5A1.912,1.912,0,0,0,686.123,136.775Zm-1.9,8.6a5.088,5.088,0,1,1-10.175,0,4.875,4.875,0,0,1,5.035-5.07,5.011,5.011,0,0,1,5.14,5.07Z" transform="translate(-591.906 -127.873)" fill="#0098f7"/>
      </g>
      <g id="그룹_1765" data-name="그룹 1765" transform="translate(0.035 92.741)">
        <path id="패스_16433" data-name="패스 16433" d="M2.5,330.7h.935l2.208,6.519H4.751l-.619-1.986H1.76l-.631,1.986H.3Zm-.526,3.867H3.921l-.3-.993c-.234-.724-.444-1.437-.654-2.2H2.929c-.2.759-.409,1.472-.643,2.2Z" transform="translate(-0.3 -330.139)"/>
        <path id="패스_16434" data-name="패스 16434" d="M53.2,344.217h.678l.07.7h.035a2.291,2.291,0,0,1,1.624-.818c1.016,0,1.472.654,1.472,1.893v3.061h-.818v-2.944c0-.9-.28-1.3-.911-1.3-.5,0-.829.257-1.32.748v3.493h-.818l-.012-4.836Z" transform="translate(-47.02 -341.974)"/>
        <path id="패스_16435" data-name="패스 16435" d="M117.4,330.7h.829v6.519H117.4Z" transform="translate(-103.72 -330.139)"/>
        <path id="패스_16436" data-name="패스 16436" d="M136.1,330.573a2.292,2.292,0,0,1,2.091-2.547,1.992,1.992,0,0,1,1.355.561l-.035-.829V325.9h.829v7.079h-.678l-.07-.561h-.035a2.21,2.21,0,0,1-1.46.689C136.883,333.1,136.1,332.185,136.1,330.573Zm3.4,1.168v-2.523a1.692,1.692,0,0,0-1.168-.5c-.771,0-1.39.748-1.39,1.846,0,1.156.491,1.846,1.332,1.846A1.64,1.64,0,0,0,139.5,331.741Z" transform="translate(-120.236 -325.9)"/>
        <path id="패스_16437" data-name="패스 16437" d="M183.2,346.647a2.333,2.333,0,0,1,2.161-2.547c1.227,0,1.928.888,1.928,2.266a2.72,2.72,0,0,1-.035.467h-3.259a1.6,1.6,0,0,0,1.612,1.682,2.253,2.253,0,0,0,1.2-.374l.292.537a2.884,2.884,0,0,1-1.589.5A2.322,2.322,0,0,1,183.2,346.647Zm3.376-.4c0-.97-.432-1.5-1.192-1.5a1.486,1.486,0,0,0-1.39,1.5Z" transform="translate(-161.833 -341.974)"/>
      </g>
      <g id="그룹_1766" data-name="그룹 1766" transform="translate(26.671 94.867)">
        <path id="패스_16438" data-name="패스 16438" d="M228.312,344.217h.678l.07.876h.035a1.653,1.653,0,0,1,1.367-.993,1.346,1.346,0,0,1,.514.094l-.164.713a1.45,1.45,0,0,0-.467-.082c-.409,0-.9.3-1.227,1.11v3.119H228.3l.012-4.836Z" transform="translate(-228.3 -344.1)"/>
      </g>
      <g id="그룹_1767" data-name="그룹 1767" transform="translate(29.591 93.185)">
        <path id="패스_16439" data-name="패스 16439" d="M253.3,347.7c0-1.051.9-1.577,2.956-1.811,0-.619-.2-1.215-.993-1.215a2.6,2.6,0,0,0-1.437.514l-.315-.561A3.535,3.535,0,0,1,255.4,344c1.18,0,1.682.783,1.682,1.986v2.979h-.678l-.07-.572H256.3a2.6,2.6,0,0,1-1.6.7A1.334,1.334,0,0,1,253.3,347.7Zm2.956.07V346.43c-1.612.2-2.161.6-2.161,1.215,0,.549.374.771.853.771A1.882,1.882,0,0,0,256.256,347.773Z" transform="translate(-253.3 -342.329)"/>
        <path id="패스_16440" data-name="패스 16440" d="M295.7,379.137a1.346,1.346,0,0,0,.9-1.215.324.324,0,0,1-.105.012.545.545,0,0,1-.584-.561.567.567,0,0,1,.608-.572c.432,0,.689.362.689.958a1.986,1.986,0,0,1-1.3,1.857Z" transform="translate(-290.747 -371.298)"/>
        <path id="패스_16441" data-name="패스 16441" d="M337.5,330.7h.829v6.519H337.5Z" transform="translate(-327.664 -330.583)"/>
        <path id="패스_16442" data-name="패스 16442" d="M359.2,344.217h.678l.07.7h.035a2.291,2.291,0,0,1,1.624-.818c1.016,0,1.472.654,1.472,1.893v3.061h-.818v-2.944c0-.9-.28-1.3-.911-1.3-.5,0-.829.257-1.32.748v3.493h-.818v-4.836Z" transform="translate(-346.829 -342.418)"/>
        <path id="패스_16443" data-name="패스 16443" d="M402.6,346.647a2.341,2.341,0,0,1,2.325-2.547,2.038,2.038,0,0,1,1.414.561l-.421.537a1.43,1.43,0,0,0-.958-.432c-.876,0-1.507.759-1.507,1.869s.607,1.846,1.5,1.846a1.738,1.738,0,0,0,1.133-.491l.362.549a2.351,2.351,0,0,1-1.554.619A2.255,2.255,0,0,1,402.6,346.647Z" transform="translate(-385.159 -342.418)"/>
        <path id="패스_16444" data-name="패스 16444" d="M443,377.431a.591.591,0,1,1,.6.619A.6.6,0,0,1,443,377.431Z" transform="translate(-420.839 -371.298)"/>
        <path id="패스_16445" data-name="패스 16445" d="M480.1,333.076c0-2.091,1.227-3.376,2.886-3.376a2.354,2.354,0,0,1,1.787.806l-.444.537a1.8,1.8,0,0,0-1.332-.619c-1.227,0-2.044,1.016-2.044,2.629,0,1.635.783,2.675,2.021,2.675a1.945,1.945,0,0,0,1.507-.736l.456.514a2.527,2.527,0,0,1-2,.946C481.3,336.452,480.1,335.2,480.1,333.076Z" transform="translate(-453.605 -329.7)"/>
        <path id="패스_16446" data-name="패스 16446" d="M528.1,346.647a2.248,2.248,0,1,1,2.231,2.523A2.306,2.306,0,0,1,528.1,346.647Zm3.621,0c0-1.11-.561-1.869-1.39-1.869s-1.39.759-1.39,1.869.561,1.846,1.39,1.846S531.721,347.745,531.721,346.647Z" transform="translate(-495.997 -342.418)"/>
        <path id="패스_16447" data-name="패스 16447" d="M577.112,344.217h.678l.07.7h.035a2.135,2.135,0,0,1,1.5-.818,1.27,1.27,0,0,1,1.332.923,2.264,2.264,0,0,1,1.589-.923c.993,0,1.472.654,1.472,1.893v3.061h-.818v-2.944c0-.9-.292-1.3-.9-1.3a1.785,1.785,0,0,0-1.215.748v3.493h-.818v-2.944c0-.9-.292-1.3-.9-1.3a1.808,1.808,0,0,0-1.215.748v3.493H577.1v-4.836Z" transform="translate(-539.273 -342.418)"/>
      </g>
      <g id="그룹_1768" data-name="그룹 1768" transform="translate(75.666 94.867)">
        <path id="패스_16448" data-name="패스 16448" d="M647.7,344.217h.678l.07.561h.035a2.51,2.51,0,0,1,1.542-.678c1.238,0,1.9.958,1.9,2.465,0,1.635-.981,2.605-2.091,2.605a2.235,2.235,0,0,1-1.344-.561l.023.841v1.624H647.7v-6.857Zm3.376,2.348c0-1.063-.362-1.776-1.273-1.776a2.077,2.077,0,0,0-1.3.654v2.535a1.922,1.922,0,0,0,1.18.5C650.492,348.481,651.076,347.757,651.076,346.565Z" transform="translate(-647.7 -344.1)"/>
      </g>
      <g id="그룹_1769" data-name="그룹 1769" transform="translate(80.736 94.856)">
        <path id="패스_16449" data-name="패스 16449" d="M691.1,347.7c0-1.051.9-1.577,2.956-1.811,0-.619-.2-1.215-.993-1.215a2.6,2.6,0,0,0-1.437.514l-.315-.561A3.535,3.535,0,0,1,693.2,344c1.18,0,1.682.783,1.682,1.986v2.979h-.677l-.07-.572H694.1a2.6,2.6,0,0,1-1.6.7A1.334,1.334,0,0,1,691.1,347.7Zm2.967.07V346.43c-1.612.2-2.161.6-2.161,1.215,0,.549.374.771.853.771A1.9,1.9,0,0,0,694.067,347.773Z" transform="translate(-691.1 -344)"/>
        <path id="패스_16450" data-name="패스 16450" d="M736.5,344.217h.677l.07.7h.035a2.291,2.291,0,0,1,1.624-.818c1.016,0,1.472.654,1.472,1.893v3.061h-.818v-2.944c0-.9-.28-1.3-.911-1.3-.5,0-.829.257-1.32.748v3.493h-.818l-.012-4.836Z" transform="translate(-731.196 -344.088)"/>
        <path id="패스_16451" data-name="패스 16451" d="M777.21,352l.164-.643a1.175,1.175,0,0,0,.362.07c.549,0,.9-.432,1.1-1.028l.105-.362L777,345.2h.841l.981,2.675c.152.421.315.911.467,1.355h.035c.14-.432.28-.935.409-1.355l.864-2.675h.794l-1.822,5.222c-.339.958-.829,1.682-1.811,1.682A2,2,0,0,1,777.21,352Z" transform="translate(-766.965 -345.06)"/>
      </g>
    </g>
    <rect id="사각형_2176" data-name="사각형 2176" width="97" height="48" transform="translate(-3537 -2596)" fill="none"/>
  </g>
</svg>
